<ttFont>
    <TTGlyph name=".notdef" xMin="0" yMin="-190" xMax="1715" yMax="1636">
      <contour>
        <pt x="0" y="1636" on="1"/>
        <pt x="1715" y="1636" on="1"/>
        <pt x="1715" y="-190" on="1"/>
        <pt x="0" y="-190" on="1"/>
      </contour>
      <contour>
        <pt x="501" y="160" on="1"/>
        <pt x="855" y="519" on="1"/>
        <pt x="1211" y="160" on="1"/>
        <pt x="1400" y="353" on="1"/>
        <pt x="1041" y="707" on="1"/>
        <pt x="1398" y="1058" on="1"/>
        <pt x="1211" y="1248" on="1"/>
        <pt x="857" y="892" on="1"/>
        <pt x="505" y="1249" on="1"/>
        <pt x="317" y="1057" on="1"/>
        <pt x="672" y="705" on="1"/>
        <pt x="315" y="351" on="1"/>
      </contour>
    </TTGlyph>
    <TTGlyph name="A" xMin="-16" yMin="0" xMax="1299" yMax="1516">
      <contour>
        <pt x="275" y="381" on="1"/>
        <pt x="-16" y="381" on="1"/>
        <pt x="-8" y="451" on="0"/>
        <pt x="93" y="552" on="0"/>
        <pt x="159" y="552" on="1"/>
        <pt x="305" y="552" on="1"/>
        <pt x="438" y="1327" on="1"/>
        <pt x="452" y="1408" on="0"/>
        <pt x="510" y="1463" on="1"/>
        <pt x="567" y="1516" on="0"/>
        <pt x="633" y="1516" on="1"/>
        <pt x="876" y="1516" on="1"/>
        <pt x="941" y="1516" on="0"/>
        <pt x="998" y="1462" on="1"/>
        <pt x="1058" y="1406" on="0"/>
        <pt x="1071" y="1326" on="1"/>
        <pt x="1299" y="0" on="1"/>
        <pt x="1060" y="0" on="1"/>
        <pt x="998" y="381" on="1"/>
        <pt x="507" y="381" on="1"/>
        <pt x="446" y="0" on="1"/>
        <pt x="210" y="0" on="1"/>
      </contour>
      <contour>
        <pt x="971" y="552" on="1"/>
        <pt x="843" y="1347" on="1"/>
        <pt x="660" y="1347" on="1"/>
        <pt x="534" y="552" on="1"/>
      </contour>
    </TTGlyph>
    <TTGlyph name="AE" xMin="40" yMin="0" xMax="1817" yMax="1516">
      <contour>
        <pt x="281" y="512" on="1"/>
        <pt x="40" y="512" on="1"/>
        <pt x="50" y="617" on="0"/>
        <pt x="144" y="660" on="1"/>
        <pt x="173" y="673" on="0"/>
        <pt x="205" y="673" on="1"/>
        <pt x="308" y="673" on="1"/>
        <pt x="421" y="1327" on="1"/>
        <pt x="435" y="1408" on="0"/>
        <pt x="494" y="1463" on="1"/>
        <pt x="550" y="1516" on="0"/>
        <pt x="616" y="1516" on="1"/>
        <pt x="1728" y="1516" on="1"/>
        <pt x="1728" y="1347" on="1"/>
        <pt x="1152" y="1347" on="1"/>
        <pt x="1152" y="673" on="1"/>
        <pt x="1598" y="673" on="1"/>
        <pt x="1598" y="512" on="1"/>
        <pt x="1152" y="512" on="1"/>
        <pt x="1152" y="171" on="1"/>
        <pt x="1817" y="171" on="1"/>
        <pt x="1809" y="99" on="0"/>
        <pt x="1758" y="50" on="1"/>
        <pt x="1707" y="0" on="0"/>
        <pt x="1642" y="0" on="1"/>
        <pt x="1102" y="0" on="1"/>
        <pt x="1023" y="0" on="0"/>
        <pt x="912" y="148" on="0"/>
        <pt x="912" y="252" on="1"/>
        <pt x="912" y="512" on="1"/>
        <pt x="510" y="512" on="1"/>
        <pt x="429" y="0" on="1"/>
        <pt x="193" y="0" on="1"/>
      </contour>
      <contour>
        <pt x="912" y="673" on="1"/>
        <pt x="912" y="1347" on="1"/>
        <pt x="643" y="1347" on="1"/>
        <pt x="536" y="673" on="1"/>
      </contour>
    </TTGlyph>
    <TTGlyph name="AEacute" xMin="40" yMin="0" xMax="1817" yMax="1996">
      <component glyphName="AE" x="0" y="0" flags="0x1204"/>
      <component glyphName="acute.cap" x="397" y="0" flags="0x1004"/>
    </TTGlyph>
    <TTGlyph name="Aacute" xMin="-16" yMin="0" xMax="1299" yMax="1996">
      <component glyphName="A" x="0" y="0" flags="0x1204"/>
      <component glyphName="acute.cap" x="234" y="0" flags="0x1004"/>
    </TTGlyph>
    <TTGlyph name="Abreve" xMin="-16" yMin="0" xMax="1299" yMax="2000">
      <component glyphName="A" x="0" y="0" flags="0x1204"/>
      <component glyphName="breve.cap" x="332" y="0" flags="0x1004"/>
    </TTGlyph>
    <TTGlyph name="Acircumflex" xMin="-16" yMin="0" xMax="1299" yMax="2000">
      <component glyphName="A" x="0" y="0" flags="0x1204"/>
      <component glyphName="circumflex.cap" x="239" y="0" flags="0x1004"/>
    </TTGlyph>
    <TTGlyph name="Adieresis" xMin="-16" yMin="0" xMax="1299" yMax="1978">
      <component glyphName="A" x="0" y="0" flags="0x1204"/>
      <component glyphName="dieresis.cap" x="234" y="0" flags="0x1004"/>
    </TTGlyph>
    <TTGlyph name="Agrave" xMin="-16" yMin="0" xMax="1299" yMax="1998">
      <component glyphName="A" x="0" y="0" flags="0x1204"/>
      <component glyphName="grave.cap" x="234" y="0" flags="0x1004"/>
    </TTGlyph>
    <TTGlyph name="Amacron" xMin="-16" yMin="0" xMax="1299" yMax="1869">
      <component glyphName="A" x="0" y="0" flags="0x1204"/>
      <component glyphName="macron.cap" x="331" y="0" flags="0x1004"/>
    </TTGlyph>
    <TTGlyph name="Aring" xMin="-16" yMin="0" xMax="1299" yMax="2000">
      <component glyphName="A" x="0" y="0" flags="0x1204"/>
      <component glyphName="ring" x="124" y="126" flags="0x1004"/>
    </TTGlyph>
    <TTGlyph name="Atilde" xMin="-16" yMin="0" xMax="1299" yMax="2000">
      <component glyphName="A" x="0" y="0" flags="0x1204"/>
      <component glyphName="tilde.cap" x="224" y="0" flags="0x1004"/>
    </TTGlyph>
    <TTGlyph name="B" xMin="-54" yMin="0" xMax="1205" yMax="1516">
      <contour>
        <pt x="1165" y="888" on="1"/>
        <pt x="1165" y="732" on="0"/>
        <pt x="1036" y="656" on="1"/>
        <pt x="1118" y="626" on="0"/>
        <pt x="1164" y="547" on="1"/>
        <pt x="1205" y="478" on="0"/>
        <pt x="1205" y="402" on="1"/>
        <pt x="1205" y="252" on="1"/>
        <pt x="1205" y="146" on="0"/>
        <pt x="1148" y="74" on="1"/>
        <pt x="1091" y="0" on="0"/>
        <pt x="1014" y="0" on="1"/>
        <pt x="257" y="0" on="1"/>
        <pt x="257" y="565" on="1"/>
        <pt x="-54" y="565" on="1"/>
        <pt x="-48" y="637" on="0"/>
        <pt x="2" y="686" on="1"/>
        <pt x="54" y="736" on="0"/>
        <pt x="121" y="736" on="1"/>
        <pt x="257" y="736" on="1"/>
        <pt x="257" y="1516" on="1"/>
        <pt x="959" y="1516" on="1"/>
        <pt x="1041" y="1516" on="0"/>
        <pt x="1102" y="1442" on="1"/>
        <pt x="1165" y="1366" on="0"/>
        <pt x="1165" y="1262" on="1"/>
      </contour>
      <contour>
        <pt x="928" y="736" on="1"/>
        <pt x="928" y="1345" on="1"/>
        <pt x="494" y="1345" on="1"/>
        <pt x="494" y="736" on="1"/>
      </contour>
      <contour>
        <pt x="966" y="171" on="1"/>
        <pt x="966" y="565" on="1"/>
        <pt x="494" y="565" on="1"/>
        <pt x="494" y="171" on="1"/>
      </contour>
    </TTGlyph>
    <TTGlyph name="C" xMin="237" yMin="0" xMax="1284" yMax="1516">
      <contour>
        <pt x="237" y="1262" on="1"/>
        <pt x="237" y="1368" on="0"/>
        <pt x="293" y="1442" on="1"/>
        <pt x="348" y="1516" on="0"/>
        <pt x="426" y="1516" on="1"/>
        <pt x="982" y="1516" on="1"/>
        <pt x="1061" y="1516" on="0"/>
        <pt x="1116" y="1442" on="1"/>
        <pt x="1172" y="1368" on="0"/>
        <pt x="1172" y="1262" on="1"/>
        <pt x="1172" y="871" on="1"/>
        <pt x="934" y="871" on="1"/>
        <pt x="934" y="1347" on="1"/>
        <pt x="474" y="1347" on="1"/>
        <pt x="474" y="171" on="1"/>
        <pt x="1284" y="171" on="1"/>
        <pt x="1276" y="99" on="0"/>
        <pt x="1226" y="50" on="1"/>
        <pt x="1174" y="0" on="0"/>
        <pt x="1109" y="0" on="1"/>
        <pt x="426" y="0" on="1"/>
        <pt x="350" y="0" on="0"/>
        <pt x="293" y="74" on="1"/>
        <pt x="237" y="147" on="0"/>
        <pt x="237" y="252" on="1"/>
      </contour>
    </TTGlyph>
    <TTGlyph name="Cacute" xMin="237" yMin="0" xMax="1284" yMax="1929">
      <component glyphName="C" x="0" y="0" flags="0x1204"/>
      <component glyphName="acute.cap" x="167" y="-67" flags="0x1004"/>
    </TTGlyph>
    <TTGlyph name="Ccaron" xMin="237" yMin="0" xMax="1284" yMax="1933">
      <component glyphName="C" x="0" y="0" flags="0x1204"/>
      <component glyphName="caron.cap" x="167" y="-67" flags="0x1004"/>
    </TTGlyph>
    <TTGlyph name="Ccedilla" xMin="237" yMin="-508" xMax="1284" yMax="1516">
      <component glyphName="C" x="0" y="0" flags="0x1204"/>
      <component glyphName="cedilla" x="177" y="0" flags="0x1004"/>
    </TTGlyph>
    <TTGlyph name="Ccircumflex" xMin="237" yMin="0" xMax="1284" yMax="1933">
      <component glyphName="C" x="0" y="0" flags="0x1204"/>
      <component glyphName="circumflex.cap" x="172" y="-67" flags="0x1004"/>
    </TTGlyph>
    <TTGlyph name="Cdotaccent" xMin="237" yMin="0" xMax="1284" yMax="1933">
      <component glyphName="C" x="0" y="0" flags="0x1204"/>
      <component glyphName="dotaccent.cap" x="263" y="-67" flags="0x1004"/>
    </TTGlyph>
    <TTGlyph name="D" xMin="42" yMin="0" xMax="1175" yMax="1516">
      <contour>
        <pt x="236" y="982" on="1"/>
        <pt x="236" y="1085" on="0"/>
        <pt x="294" y="1160" on="1"/>
        <pt x="351" y="1234" on="0"/>
        <pt x="430" y="1234" on="1"/>
        <pt x="475" y="1234" on="1"/>
        <pt x="475" y="171" on="1"/>
        <pt x="936" y="171" on="1"/>
        <pt x="936" y="1347" on="1"/>
        <pt x="42" y="1347" on="1"/>
        <pt x="48" y="1417" on="0"/>
        <pt x="100" y="1467" on="1"/>
        <pt x="150" y="1516" on="0"/>
        <pt x="217" y="1516" on="1"/>
        <pt x="985" y="1516" on="1"/>
        <pt x="1065" y="1516" on="0"/>
        <pt x="1120" y="1442" on="1"/>
        <pt x="1175" y="1367" on="0"/>
        <pt x="1175" y="1262" on="1"/>
        <pt x="1175" y="252" on="1"/>
        <pt x="1175" y="148" on="0"/>
        <pt x="1064" y="0" on="0"/>
        <pt x="986" y="0" on="1"/>
        <pt x="237" y="0" on="1"/>
      </contour>
    </TTGlyph>
    <TTGlyph name="Dcaron" xMin="42" yMin="0" xMax="1175" yMax="2000">
      <component glyphName="D" x="0" y="0" flags="0x1204"/>
      <component glyphName="caron.cap" x="77" y="0" flags="0x1004"/>
    </TTGlyph>
    <TTGlyph name="Dcroat" xMin="43" yMin="0" xMax="1176" yMax="1516">
      <contour>
        <pt x="237" y="549" on="1"/>
        <pt x="44" y="549" on="1"/>
        <pt x="44" y="703" on="1"/>
        <pt x="237" y="703" on="1"/>
        <pt x="237" y="982" on="1"/>
        <pt x="237" y="1085" on="0"/>
        <pt x="294" y="1160" on="1"/>
        <pt x="352" y="1234" on="0"/>
        <pt x="431" y="1234" on="1"/>
        <pt x="476" y="1234" on="1"/>
        <pt x="476" y="703" on="1"/>
        <pt x="717" y="703" on="1"/>
        <pt x="717" y="549" on="1"/>
        <pt x="476" y="549" on="1"/>
        <pt x="476" y="171" on="1"/>
        <pt x="937" y="171" on="1"/>
        <pt x="937" y="1347" on="1"/>
        <pt x="43" y="1347" on="1"/>
        <pt x="49" y="1417" on="0"/>
        <pt x="100" y="1467" on="1"/>
        <pt x="151" y="1516" on="0"/>
        <pt x="218" y="1516" on="1"/>
        <pt x="986" y="1516" on="1"/>
        <pt x="1066" y="1516" on="0"/>
        <pt x="1120" y="1442" on="1"/>
        <pt x="1176" y="1367" on="0"/>
        <pt x="1176" y="1262" on="1"/>
        <pt x="1176" y="252" on="1"/>
        <pt x="1176" y="148" on="0"/>
        <pt x="1065" y="0" on="0"/>
        <pt x="987" y="0" on="1"/>
        <pt x="238" y="0" on="1"/>
      </contour>
    </TTGlyph>
    <TTGlyph name="E" xMin="-16" yMin="0" xMax="1171" yMax="1516">
      <contour>
        <pt x="266" y="564" on="1"/>
        <pt x="-16" y="564" on="1"/>
        <pt x="-6" y="669" on="0"/>
        <pt x="88" y="712" on="1"/>
        <pt x="117" y="725" on="0"/>
        <pt x="149" y="725" on="1"/>
        <pt x="266" y="725" on="1"/>
        <pt x="266" y="1262" on="1"/>
        <pt x="266" y="1369" on="0"/>
        <pt x="320" y="1442" on="1"/>
        <pt x="375" y="1516" on="0"/>
        <pt x="454" y="1516" on="1"/>
        <pt x="1082" y="1516" on="1"/>
        <pt x="1082" y="1347" on="1"/>
        <pt x="506" y="1347" on="1"/>
        <pt x="506" y="725" on="1"/>
        <pt x="902" y="725" on="1"/>
        <pt x="902" y="564" on="1"/>
        <pt x="506" y="564" on="1"/>
        <pt x="506" y="171" on="1"/>
        <pt x="1171" y="171" on="1"/>
        <pt x="1163" y="99" on="0"/>
        <pt x="1112" y="50" on="1"/>
        <pt x="1061" y="0" on="0"/>
        <pt x="996" y="0" on="1"/>
        <pt x="456" y="0" on="1"/>
        <pt x="377" y="0" on="0"/>
        <pt x="266" y="148" on="0"/>
        <pt x="266" y="252" on="1"/>
      </contour>
    </TTGlyph>
    <TTGlyph name="Eacute" xMin="-16" yMin="0" xMax="1171" yMax="1996">
      <component glyphName="E" x="0" y="0" flags="0x1204"/>
      <component glyphName="acute.cap" x="212" y="0" flags="0x1004"/>
    </TTGlyph>
    <TTGlyph name="Ebreve" xMin="-16" yMin="0" xMax="1171" yMax="2000">
      <component glyphName="E" x="0" y="0" flags="0x1204"/>
      <component glyphName="breve.cap" x="310" y="0" flags="0x1004"/>
    </TTGlyph>
    <TTGlyph name="Ecaron" xMin="-16" yMin="0" xMax="1171" yMax="2000">
      <component glyphName="E" x="0" y="0" flags="0x1204"/>
      <component glyphName="caron.cap" x="212" y="0" flags="0x1004"/>
    </TTGlyph>
    <TTGlyph name="Ecircumflex" xMin="-16" yMin="0" xMax="1171" yMax="2000">
      <component glyphName="E" x="0" y="0" flags="0x1204"/>
      <component glyphName="circumflex.cap" x="217" y="0" flags="0x1004"/>
    </TTGlyph>
    <TTGlyph name="Edieresis" xMin="-16" yMin="0" xMax="1171" yMax="1978">
      <component glyphName="E" x="0" y="0" flags="0x1204"/>
      <component glyphName="dieresis.cap" x="212" y="0" flags="0x1004"/>
    </TTGlyph>
    <TTGlyph name="Edotaccent" xMin="-16" yMin="0" xMax="1171" yMax="2000">
      <component glyphName="E" x="0" y="0" flags="0x1204"/>
      <component glyphName="dotaccent.cap" x="308" y="0" flags="0x1004"/>
    </TTGlyph>
    <TTGlyph name="Egrave" xMin="-16" yMin="0" xMax="1171" yMax="1998">
      <component glyphName="E" x="0" y="0" flags="0x1204"/>
      <component glyphName="grave.cap" x="212" y="0" flags="0x1004"/>
    </TTGlyph>
    <TTGlyph name="Emacron" xMin="-16" yMin="0" xMax="1194" yMax="1869">
      <component glyphName="E" x="0" y="0" flags="0x1204"/>
      <component glyphName="macron.cap" x="309" y="0" flags="0x1004"/>
    </TTGlyph>
    <TTGlyph name="Eth" xMin="43" yMin="0" xMax="1176" yMax="1516">
      <contour>
        <pt x="237" y="549" on="1"/>
        <pt x="44" y="549" on="1"/>
        <pt x="44" y="703" on="1"/>
        <pt x="237" y="703" on="1"/>
        <pt x="237" y="982" on="1"/>
        <pt x="237" y="1085" on="0"/>
        <pt x="294" y="1160" on="1"/>
        <pt x="352" y="1234" on="0"/>
        <pt x="431" y="1234" on="1"/>
        <pt x="476" y="1234" on="1"/>
        <pt x="476" y="703" on="1"/>
        <pt x="717" y="703" on="1"/>
        <pt x="717" y="549" on="1"/>
        <pt x="476" y="549" on="1"/>
        <pt x="476" y="171" on="1"/>
        <pt x="937" y="171" on="1"/>
        <pt x="937" y="1347" on="1"/>
        <pt x="43" y="1347" on="1"/>
        <pt x="49" y="1417" on="0"/>
        <pt x="100" y="1467" on="1"/>
        <pt x="151" y="1516" on="0"/>
        <pt x="218" y="1516" on="1"/>
        <pt x="986" y="1516" on="1"/>
        <pt x="1066" y="1516" on="0"/>
        <pt x="1120" y="1442" on="1"/>
        <pt x="1176" y="1367" on="0"/>
        <pt x="1176" y="1262" on="1"/>
        <pt x="1176" y="252" on="1"/>
        <pt x="1176" y="148" on="0"/>
        <pt x="1065" y="0" on="0"/>
        <pt x="987" y="0" on="1"/>
        <pt x="238" y="0" on="1"/>
      </contour>
    </TTGlyph>
    <TTGlyph name="Euro" xMin="134" yMin="0" xMax="1290" yMax="1345">
      <contour>
        <pt x="331" y="434" on="1"/>
        <pt x="134" y="434" on="1"/>
        <pt x="140" y="504" on="0"/>
        <pt x="192" y="554" on="1"/>
        <pt x="244" y="605" on="0"/>
        <pt x="309" y="605" on="1"/>
        <pt x="331" y="605" on="1"/>
        <pt x="331" y="719" on="1"/>
        <pt x="134" y="719" on="1"/>
        <pt x="140" y="789" on="0"/>
        <pt x="192" y="839" on="1"/>
        <pt x="244" y="890" on="0"/>
        <pt x="309" y="890" on="1"/>
        <pt x="331" y="890" on="1"/>
        <pt x="331" y="1091" on="1"/>
        <pt x="331" y="1196" on="0"/>
        <pt x="386" y="1272" on="1"/>
        <pt x="441" y="1345" on="0"/>
        <pt x="519" y="1345" on="1"/>
        <pt x="1099" y="1345" on="1"/>
        <pt x="1179" y="1345" on="0"/>
        <pt x="1234" y="1272" on="1"/>
        <pt x="1290" y="1197" on="0"/>
        <pt x="1290" y="1091" on="1"/>
        <pt x="1289" y="1030" on="1"/>
        <pt x="1051" y="1030" on="1"/>
        <pt x="1051" y="1176" on="1"/>
        <pt x="570" y="1176" on="1"/>
        <pt x="570" y="890" on="1"/>
        <pt x="1123" y="890" on="1"/>
        <pt x="1123" y="821" on="0"/>
        <pt x="1068" y="768" on="1"/>
        <pt x="1017" y="719" on="0"/>
        <pt x="948" y="719" on="1"/>
        <pt x="570" y="719" on="1"/>
        <pt x="570" y="605" on="1"/>
        <pt x="1021" y="605" on="1"/>
        <pt x="1021" y="536" on="0"/>
        <pt x="966" y="484" on="1"/>
        <pt x="915" y="434" on="0"/>
        <pt x="846" y="434" on="1"/>
        <pt x="570" y="434" on="1"/>
        <pt x="570" y="171" on="1"/>
        <pt x="1051" y="171" on="1"/>
        <pt x="1051" y="317" on="1"/>
        <pt x="1289" y="317" on="1"/>
        <pt x="1289" y="252" on="1"/>
        <pt x="1289" y="147" on="0"/>
        <pt x="1233" y="74" on="1"/>
        <pt x="1176" y="0" on="0"/>
        <pt x="1099" y="0" on="1"/>
        <pt x="519" y="0" on="1"/>
        <pt x="442" y="0" on="0"/>
        <pt x="331" y="148" on="0"/>
        <pt x="331" y="252" on="1"/>
      </contour>
    </TTGlyph>
    <TTGlyph name="F" xMin="-2" yMin="-262" xMax="1114" yMax="1516">
      <contour>
        <pt x="1113" y="725" on="1"/>
        <pt x="1114" y="564" on="1"/>
        <pt x="879" y="564" on="1"/>
        <pt x="879" y="-11" on="1"/>
        <pt x="879" y="-115" on="0"/>
        <pt x="820" y="-189" on="1"/>
        <pt x="762" y="-262" on="0"/>
        <pt x="685" y="-262" on="1"/>
        <pt x="639" y="-262" on="1"/>
        <pt x="639" y="564" on="1"/>
        <pt x="156" y="564" on="1"/>
        <pt x="166" y="669" on="0"/>
        <pt x="260" y="712" on="1"/>
        <pt x="289" y="725" on="0"/>
        <pt x="321" y="725" on="1"/>
        <pt x="639" y="725" on="1"/>
        <pt x="639" y="1346" on="1"/>
        <pt x="-2" y="1346" on="1"/>
        <pt x="6" y="1417" on="0"/>
        <pt x="56" y="1466" on="1"/>
        <pt x="108" y="1516" on="0"/>
        <pt x="173" y="1516" on="1"/>
        <pt x="879" y="1516" on="1"/>
        <pt x="879" y="725" on="1"/>
      </contour>
    </TTGlyph>
    <TTGlyph name="G" xMin="237" yMin="-368" xMax="1227" yMax="1515">
      <contour>
        <pt x="237" y="1261" on="1"/>
        <pt x="237" y="1366" on="0"/>
        <pt x="292" y="1442" on="1"/>
        <pt x="347" y="1515" on="0"/>
        <pt x="425" y="1515" on="1"/>
        <pt x="1225" y="1515" on="1"/>
        <pt x="1225" y="1346" on="1"/>
        <pt x="476" y="1346" on="1"/>
        <pt x="476" y="172" on="1"/>
        <pt x="986" y="172" on="1"/>
        <pt x="986" y="883" on="1"/>
        <pt x="1227" y="883" on="1"/>
        <pt x="1225" y="-117" on="1"/>
        <pt x="1225" y="-219" on="0"/>
        <pt x="1117" y="-368" on="0"/>
        <pt x="1040" y="-368" on="1"/>
        <pt x="986" y="-368" on="1"/>
        <pt x="986" y="0" on="1"/>
        <pt x="425" y="0" on="1"/>
        <pt x="348" y="0" on="0"/>
        <pt x="237" y="148" on="0"/>
        <pt x="237" y="252" on="1"/>
      </contour>
    </TTGlyph>
    <TTGlyph name="Gbreve" xMin="237" yMin="-368" xMax="1227" yMax="2000">
      <component glyphName="G" x="0" y="0" flags="0x1204"/>
      <component glyphName="breve.cap" x="304" y="0" flags="0x1004"/>
    </TTGlyph>
    <TTGlyph name="Gcircumflex" xMin="237" yMin="-368" xMax="1227" yMax="2000">
      <component glyphName="G" x="0" y="0" flags="0x1204"/>
      <component glyphName="circumflex.cap" x="211" y="0" flags="0x1004"/>
    </TTGlyph>
    <TTGlyph name="Gcommaaccent" xMin="237" yMin="-556" xMax="1227" yMax="1515">
      <component glyphName="G" x="0" y="0" flags="0x1204"/>
      <component glyphName="commaaccent" x="201" y="0" flags="0x1004"/>
    </TTGlyph>
    <TTGlyph name="Gdotaccent" xMin="237" yMin="-368" xMax="1227" yMax="2000">
      <component glyphName="G" x="0" y="0" flags="0x1204"/>
      <component glyphName="dotaccent.cap" x="302" y="0" flags="0x1004"/>
    </TTGlyph>
    <TTGlyph name="H" xMin="-52" yMin="0" xMax="1234" yMax="1516">
      <contour>
        <pt x="237" y="565" on="1"/>
        <pt x="-52" y="565" on="1"/>
        <pt x="-44" y="637" on="0"/>
        <pt x="6" y="686" on="1"/>
        <pt x="58" y="736" on="0"/>
        <pt x="123" y="736" on="1"/>
        <pt x="237" y="736" on="1"/>
        <pt x="237" y="1516" on="1"/>
        <pt x="475" y="1516" on="1"/>
        <pt x="475" y="736" on="1"/>
        <pt x="994" y="736" on="1"/>
        <pt x="994" y="1516" on="1"/>
        <pt x="1234" y="1516" on="1"/>
        <pt x="1234" y="0" on="1"/>
        <pt x="994" y="0" on="1"/>
        <pt x="994" y="565" on="1"/>
        <pt x="475" y="565" on="1"/>
        <pt x="475" y="0" on="1"/>
        <pt x="237" y="0" on="1"/>
      </contour>
    </TTGlyph>
    <TTGlyph name="Hcircumflex" xMin="-52" yMin="0" xMax="1234" yMax="2000">
      <component glyphName="H" x="0" y="0" flags="0x1204"/>
      <component glyphName="circumflex.cap" x="223" y="0" flags="0x1004"/>
    </TTGlyph>
    <TTGlyph name="I" xMin="177" yMin="0" xMax="951" yMax="1516">
      <contour>
        <pt x="396" y="171" on="1"/>
        <pt x="711" y="171" on="1"/>
        <pt x="711" y="1347" on="1"/>
        <pt x="383" y="1347" on="1"/>
        <pt x="383" y="1002" on="1"/>
        <pt x="177" y="1002" on="1"/>
        <pt x="177" y="1262" on="1"/>
        <pt x="177" y="1368" on="0"/>
        <pt x="233" y="1442" on="1"/>
        <pt x="288" y="1516" on="0"/>
        <pt x="368" y="1516" on="1"/>
        <pt x="951" y="1516" on="1"/>
        <pt x="951" y="252" on="1"/>
        <pt x="951" y="147" on="0"/>
        <pt x="895" y="74" on="1"/>
        <pt x="838" y="0" on="0"/>
        <pt x="761" y="0" on="1"/>
        <pt x="396" y="0" on="1"/>
      </contour>
    </TTGlyph>
    <TTGlyph name="IJ" xMin="237" yMin="0" xMax="1192" yMax="1516">
      <contour>
        <pt x="300" y="0" on="1"/>
        <pt x="306" y="69" on="0"/>
        <pt x="358" y="120" on="1"/>
        <pt x="408" y="171" on="0"/>
        <pt x="474" y="171" on="1"/>
        <pt x="953" y="171" on="1"/>
        <pt x="953" y="1516" on="1"/>
        <pt x="1192" y="1516" on="1"/>
        <pt x="1192" y="254" on="1"/>
        <pt x="1192" y="149" on="0"/>
        <pt x="1080" y="0" on="0"/>
        <pt x="1001" y="0" on="1"/>
      </contour>
      <contour>
        <pt x="428" y="469" on="1"/>
        <pt x="349" y="469" on="0"/>
        <pt x="237" y="618" on="0"/>
        <pt x="237" y="723" on="1"/>
        <pt x="237" y="1516" on="1"/>
        <pt x="476" y="1516" on="1"/>
        <pt x="476" y="640" on="1"/>
        <pt x="804" y="640" on="1"/>
        <pt x="798" y="569" on="0"/>
        <pt x="746" y="519" on="1"/>
        <pt x="695" y="469" on="0"/>
        <pt x="630" y="469" on="1"/>
      </contour>
    </TTGlyph>
    <TTGlyph name="Iacute" xMin="177" yMin="0" xMax="995" yMax="1996">
      <component glyphName="I" x="0" y="0" flags="0x1204"/>
      <component glyphName="acute.cap" x="95" y="0" flags="0x1004"/>
    </TTGlyph>
    <TTGlyph name="Ibreve" xMin="177" yMin="0" xMax="1031" yMax="2000">
      <component glyphName="I" x="0" y="0" flags="0x1204"/>
      <component glyphName="breve.cap" x="193" y="0" flags="0x1004"/>
    </TTGlyph>
    <TTGlyph name="Icircumflex" xMin="177" yMin="0" xMax="1004" yMax="2000">
      <component glyphName="I" x="0" y="0" flags="0x1204"/>
      <component glyphName="circumflex.cap" x="100" y="0" flags="0x1004"/>
    </TTGlyph>
    <TTGlyph name="Idieresis" xMin="177" yMin="0" xMax="1017" yMax="1978">
      <component glyphName="I" x="0" y="0" flags="0x1204"/>
      <component glyphName="dieresis.cap" x="95" y="0" flags="0x1004"/>
    </TTGlyph>
    <TTGlyph name="Idotaccent" xMin="177" yMin="0" xMax="951" yMax="2000">
      <component glyphName="I" x="0" y="0" flags="0x1204"/>
      <component glyphName="dotaccent.cap" x="191" y="0" flags="0x1004"/>
    </TTGlyph>
    <TTGlyph name="Igrave" xMin="177" yMin="0" xMax="951" yMax="1998">
      <component glyphName="I" x="0" y="0" flags="0x1204"/>
      <component glyphName="grave.cap" x="95" y="0" flags="0x1004"/>
    </TTGlyph>
    <TTGlyph name="Imacron" xMin="175" yMin="0" xMax="1077" yMax="1869">
      <component glyphName="I" x="0" y="0" flags="0x1204"/>
      <component glyphName="macron.cap" x="192" y="0" flags="0x1004"/>
    </TTGlyph>
    <TTGlyph name="Itilde" xMin="177" yMin="0" xMax="1002" yMax="2000">
      <component glyphName="I" x="0" y="0" flags="0x1204"/>
      <component glyphName="tilde.cap" x="85" y="0" flags="0x1004"/>
    </TTGlyph>
    <TTGlyph name="J" xMin="237" yMin="0" xMax="1147" yMax="1516">
      <contour>
        <pt x="237" y="670" on="1"/>
        <pt x="472" y="670" on="1"/>
        <pt x="472" y="171" on="1"/>
        <pt x="896" y="171" on="1"/>
        <pt x="896" y="1347" on="1"/>
        <pt x="457" y="1347" on="1"/>
        <pt x="457" y="1516" on="1"/>
        <pt x="1147" y="1516" on="1"/>
        <pt x="1147" y="254" on="1"/>
        <pt x="1147" y="149" on="0"/>
        <pt x="1035" y="0" on="0"/>
        <pt x="956" y="0" on="1"/>
        <pt x="426" y="0" on="1"/>
        <pt x="348" y="0" on="0"/>
        <pt x="237" y="148" on="0"/>
        <pt x="237" y="252" on="1"/>
      </contour>
    </TTGlyph>
    <TTGlyph name="Jcircumflex" xMin="237" yMin="0" xMax="1156" yMax="2000">
      <component glyphName="J" x="0" y="0" flags="0x1204"/>
      <component glyphName="circumflex.cap" x="252" y="0" flags="0x1004"/>
    </TTGlyph>
    <TTGlyph name="K" xMin="233" yMin="0" xMax="1392" yMax="1516">
      <contour>
        <pt x="233" y="1516" on="1"/>
        <pt x="473" y="1516" on="1"/>
        <pt x="473" y="763" on="1"/>
        <pt x="672" y="763" on="1"/>
        <pt x="930" y="1516" on="1"/>
        <pt x="1184" y="1516" on="1"/>
        <pt x="909" y="763" on="1"/>
        <pt x="950" y="763" on="1"/>
        <pt x="1027" y="763" on="0"/>
        <pt x="1077" y="689" on="1"/>
        <pt x="1126" y="617" on="0"/>
        <pt x="1126" y="512" on="1"/>
        <pt x="1126" y="172" on="1"/>
        <pt x="1392" y="172" on="1"/>
        <pt x="1384" y="101" on="0"/>
        <pt x="1283" y="0" on="0"/>
        <pt x="1217" y="0" on="1"/>
        <pt x="1076" y="0" on="1"/>
        <pt x="999" y="0" on="0"/>
        <pt x="942" y="74" on="1"/>
        <pt x="886" y="147" on="0"/>
        <pt x="886" y="252" on="1"/>
        <pt x="886" y="595" on="1"/>
        <pt x="473" y="595" on="1"/>
        <pt x="473" y="0" on="1"/>
        <pt x="233" y="0" on="1"/>
      </contour>
    </TTGlyph>
    <TTGlyph name="Kcommaaccent" xMin="233" yMin="-556" xMax="1392" yMax="1516">
      <component glyphName="K" x="0" y="0" flags="0x1204"/>
      <component glyphName="commaaccent" x="147" y="0" flags="0x1004"/>
    </TTGlyph>
    <TTGlyph name="L" xMin="30" yMin="0" xMax="1155" yMax="1516">
      <contour>
        <pt x="30" y="0" on="1"/>
        <pt x="36" y="70" on="0"/>
        <pt x="88" y="120" on="1"/>
        <pt x="140" y="171" on="0"/>
        <pt x="205" y="171" on="1"/>
        <pt x="267" y="171" on="1"/>
        <pt x="267" y="1262" on="1"/>
        <pt x="267" y="1367" on="0"/>
        <pt x="322" y="1442" on="1"/>
        <pt x="377" y="1516" on="0"/>
        <pt x="456" y="1516" on="1"/>
        <pt x="776" y="1516" on="1"/>
        <pt x="776" y="1357" on="1"/>
        <pt x="505" y="1357" on="1"/>
        <pt x="505" y="416" on="1"/>
        <pt x="505" y="321" on="0"/>
        <pt x="454" y="246" on="1"/>
        <pt x="410" y="180" on="0"/>
        <pt x="358" y="171" on="1"/>
        <pt x="944" y="171" on="1"/>
        <pt x="944" y="371" on="1"/>
        <pt x="1155" y="371" on="1"/>
        <pt x="1155" y="170" on="1"/>
        <pt x="1155" y="100" on="0"/>
        <pt x="1100" y="49" on="1"/>
        <pt x="1048" y="0" on="0"/>
        <pt x="980" y="0" on="1"/>
      </contour>
    </TTGlyph>
    <TTGlyph name="Lcaron" xMin="21" yMin="0" xMax="1210" yMax="1516">
      <contour>
        <pt x="21" y="0" on="1"/>
        <pt x="27" y="70" on="0"/>
        <pt x="78" y="120" on="1"/>
        <pt x="131" y="171" on="0"/>
        <pt x="196" y="171" on="1"/>
        <pt x="258" y="171" on="1"/>
        <pt x="258" y="1262" on="1"/>
        <pt x="258" y="1367" on="0"/>
        <pt x="314" y="1442" on="1"/>
        <pt x="368" y="1516" on="0"/>
        <pt x="447" y="1516" on="1"/>
        <pt x="679" y="1516" on="1"/>
        <pt x="679" y="1357" on="1"/>
        <pt x="496" y="1357" on="1"/>
        <pt x="496" y="416" on="1"/>
        <pt x="496" y="321" on="0"/>
        <pt x="446" y="246" on="1"/>
        <pt x="401" y="180" on="0"/>
        <pt x="349" y="171" on="1"/>
        <pt x="905" y="171" on="1"/>
        <pt x="905" y="351" on="1"/>
        <pt x="1116" y="351" on="1"/>
        <pt x="1116" y="170" on="1"/>
        <pt x="1116" y="100" on="0"/>
        <pt x="1062" y="49" on="1"/>
        <pt x="1009" y="0" on="0"/>
        <pt x="941" y="0" on="1"/>
      </contour>
      <contour>
        <pt x="954" y="1201" on="1"/>
        <pt x="872" y="1250" on="0"/>
        <pt x="872" y="1346" on="1"/>
        <pt x="872" y="1416" on="0"/>
        <pt x="920" y="1466" on="1"/>
        <pt x="968" y="1515" on="0"/>
        <pt x="1041" y="1515" on="1"/>
        <pt x="1111" y="1515" on="0"/>
        <pt x="1160" y="1466" on="1"/>
        <pt x="1210" y="1416" on="0"/>
        <pt x="1210" y="1302" on="0"/>
        <pt x="1191" y="1226" on="0"/>
        <pt x="1173" y="1190" on="1"/>
        <pt x="1141" y="1126" on="0"/>
        <pt x="1071" y="1041" on="1"/>
        <pt x="957" y="898" on="1"/>
        <pt x="863" y="943" on="1"/>
      </contour>
    </TTGlyph>
    <TTGlyph name="Lcommaaccent" xMin="30" yMin="-556" xMax="1155" yMax="1516">
      <component glyphName="L" x="0" y="0" flags="0x1204"/>
      <component glyphName="commaaccent" x="61" y="0" flags="0x1004"/>
    </TTGlyph>
    <TTGlyph name="Ldot" xMin="51" yMin="0" xMax="1176" yMax="1516">
      <component glyphName="L" x="21" y="0" flags="0x1004"/>
      <component glyphName="dotaccentcmb" x="609" y="-834" flags="0x1004"/>
    </TTGlyph>
    <TTGlyph name="Lslash" xMin="30" yMin="0" xMax="1155" yMax="1516">
      <contour>
        <pt x="30" y="0" on="1"/>
        <pt x="36" y="70" on="0"/>
        <pt x="88" y="120" on="1"/>
        <pt x="140" y="171" on="0"/>
        <pt x="205" y="171" on="1"/>
        <pt x="267" y="171" on="1"/>
        <pt x="267" y="639" on="1"/>
        <pt x="30" y="563" on="1"/>
        <pt x="30" y="732" on="1"/>
        <pt x="267" y="808" on="1"/>
        <pt x="267" y="1262" on="1"/>
        <pt x="267" y="1367" on="0"/>
        <pt x="322" y="1442" on="1"/>
        <pt x="377" y="1516" on="0"/>
        <pt x="456" y="1516" on="1"/>
        <pt x="776" y="1516" on="1"/>
        <pt x="776" y="1357" on="1"/>
        <pt x="505" y="1357" on="1"/>
        <pt x="505" y="884" on="1"/>
        <pt x="860" y="999" on="1"/>
        <pt x="860" y="830" on="1"/>
        <pt x="505" y="715" on="1"/>
        <pt x="505" y="416" on="1"/>
        <pt x="505" y="321" on="0"/>
        <pt x="454" y="246" on="1"/>
        <pt x="410" y="180" on="0"/>
        <pt x="358" y="171" on="1"/>
        <pt x="944" y="171" on="1"/>
        <pt x="944" y="371" on="1"/>
        <pt x="1155" y="371" on="1"/>
        <pt x="1155" y="170" on="1"/>
        <pt x="1155" y="100" on="0"/>
        <pt x="1100" y="49" on="1"/>
        <pt x="1048" y="0" on="0"/>
        <pt x="980" y="0" on="1"/>
      </contour>
    </TTGlyph>
    <TTGlyph name="M" xMin="217" yMin="0" xMax="1900" yMax="1516">
      <contour>
        <pt x="217" y="1516" on="1"/>
        <pt x="456" y="1516" on="1"/>
        <pt x="456" y="1114" on="1"/>
        <pt x="727" y="1438" on="1"/>
        <pt x="793" y="1516" on="0"/>
        <pt x="880" y="1516" on="1"/>
        <pt x="966" y="1516" on="0"/>
        <pt x="1024" y="1448" on="1"/>
        <pt x="1084" y="1380" on="0"/>
        <pt x="1084" y="1284" on="1"/>
        <pt x="1084" y="1148" on="1"/>
        <pt x="1327" y="1438" on="1"/>
        <pt x="1393" y="1516" on="0"/>
        <pt x="1480" y="1516" on="1"/>
        <pt x="1566" y="1516" on="0"/>
        <pt x="1624" y="1448" on="1"/>
        <pt x="1684" y="1380" on="0"/>
        <pt x="1684" y="1284" on="1"/>
        <pt x="1684" y="171" on="1"/>
        <pt x="1900" y="171" on="1"/>
        <pt x="1892" y="99" on="0"/>
        <pt x="1842" y="50" on="1"/>
        <pt x="1790" y="0" on="0"/>
        <pt x="1725" y="0" on="1"/>
        <pt x="1631" y="0" on="1"/>
        <pt x="1553" y="0" on="0"/>
        <pt x="1499" y="74" on="1"/>
        <pt x="1445" y="147" on="0"/>
        <pt x="1445" y="252" on="1"/>
        <pt x="1445" y="1320" on="1"/>
        <pt x="1084" y="891" on="1"/>
        <pt x="1084" y="0" on="1"/>
        <pt x="845" y="0" on="1"/>
        <pt x="845" y="1320" on="1"/>
        <pt x="456" y="858" on="1"/>
        <pt x="456" y="0" on="1"/>
        <pt x="217" y="0" on="1"/>
      </contour>
    </TTGlyph>
    <TTGlyph name="N" xMin="230" yMin="0" xMax="1413" yMax="1516">
      <contour>
        <pt x="230" y="1516" on="1"/>
        <pt x="467" y="1516" on="1"/>
        <pt x="467" y="1149" on="1"/>
        <pt x="840" y="1441" on="1"/>
        <pt x="907" y="1497" on="0"/>
        <pt x="976" y="1516" on="0"/>
        <pt x="1040" y="1516" on="0"/>
        <pt x="1108" y="1481" on="0"/>
        <pt x="1134" y="1450" on="1"/>
        <pt x="1188" y="1382" on="0"/>
        <pt x="1188" y="1284" on="1"/>
        <pt x="1188" y="172" on="1"/>
        <pt x="1413" y="172" on="1"/>
        <pt x="1405" y="101" on="0"/>
        <pt x="1304" y="0" on="0"/>
        <pt x="1238" y="0" on="1"/>
        <pt x="1130" y="0" on="1"/>
        <pt x="1053" y="0" on="0"/>
        <pt x="998" y="74" on="1"/>
        <pt x="943" y="147" on="0"/>
        <pt x="943" y="252" on="1"/>
        <pt x="943" y="1315" on="1"/>
        <pt x="467" y="944" on="1"/>
        <pt x="467" y="0" on="1"/>
        <pt x="230" y="0" on="1"/>
      </contour>
    </TTGlyph>
    <TTGlyph name="Nacute" xMin="230" yMin="0" xMax="1413" yMax="1996">
      <component glyphName="N" x="0" y="0" flags="0x1204"/>
      <component glyphName="acute.cap" x="177" y="0" flags="0x1004"/>
    </TTGlyph>
    <TTGlyph name="Ncaron" xMin="230" yMin="0" xMax="1413" yMax="2000">
      <component glyphName="N" x="0" y="0" flags="0x1204"/>
      <component glyphName="caron.cap" x="177" y="0" flags="0x1004"/>
    </TTGlyph>
    <TTGlyph name="Ncommaaccent" xMin="230" yMin="-556" xMax="1413" yMax="1516">
      <component glyphName="N" x="0" y="0" flags="0x1204"/>
      <component glyphName="commaaccent" x="205" y="0" flags="0x1004"/>
    </TTGlyph>
    <TTGlyph name="Ntilde" xMin="230" yMin="0" xMax="1413" yMax="2000">
      <component glyphName="N" x="0" y="0" flags="0x1204"/>
      <component glyphName="tilde.cap" x="167" y="0" flags="0x1004"/>
    </TTGlyph>
    <TTGlyph name="O" xMin="203" yMin="0" xMax="1162" yMax="1516">
      <contour>
        <pt x="203" y="1262" on="1"/>
        <pt x="203" y="1367" on="0"/>
        <pt x="258" y="1442" on="1"/>
        <pt x="313" y="1516" on="0"/>
        <pt x="391" y="1516" on="1"/>
        <pt x="971" y="1516" on="1"/>
        <pt x="1051" y="1516" on="0"/>
        <pt x="1106" y="1442" on="1"/>
        <pt x="1162" y="1368" on="0"/>
        <pt x="1162" y="1262" on="1"/>
        <pt x="1161" y="252" on="1"/>
        <pt x="1161" y="147" on="0"/>
        <pt x="1105" y="74" on="1"/>
        <pt x="1048" y="0" on="0"/>
        <pt x="971" y="0" on="1"/>
        <pt x="391" y="0" on="1"/>
        <pt x="314" y="0" on="0"/>
        <pt x="203" y="148" on="0"/>
        <pt x="203" y="252" on="1"/>
      </contour>
      <contour>
        <pt x="923" y="171" on="1"/>
        <pt x="923" y="1347" on="1"/>
        <pt x="442" y="1347" on="1"/>
        <pt x="442" y="171" on="1"/>
      </contour>
    </TTGlyph>
    <TTGlyph name="OE" xMin="203" yMin="0" xMax="1828" yMax="1516">
      <contour>
        <pt x="203" y="1262" on="1"/>
        <pt x="203" y="1367" on="0"/>
        <pt x="258" y="1442" on="1"/>
        <pt x="313" y="1516" on="0"/>
        <pt x="391" y="1516" on="1"/>
        <pt x="880" y="1516" on="1"/>
        <pt x="929" y="1516" on="0"/>
        <pt x="1017" y="1449" on="0"/>
        <pt x="1046" y="1392" on="1"/>
        <pt x="1075" y="1449" on="0"/>
        <pt x="1163" y="1516" on="0"/>
        <pt x="1212" y="1516" on="1"/>
        <pt x="1739" y="1516" on="1"/>
        <pt x="1739" y="1343" on="1"/>
        <pt x="1163" y="1343" on="1"/>
        <pt x="1163" y="755" on="1"/>
        <pt x="1609" y="755" on="1"/>
        <pt x="1609" y="594" on="1"/>
        <pt x="1163" y="594" on="1"/>
        <pt x="1163" y="171" on="1"/>
        <pt x="1828" y="171" on="1"/>
        <pt x="1820" y="99" on="0"/>
        <pt x="1770" y="50" on="1"/>
        <pt x="1718" y="0" on="0"/>
        <pt x="1653" y="0" on="1"/>
        <pt x="1206" y="0" on="1"/>
        <pt x="1157" y="0" on="0"/>
        <pt x="1069" y="67" on="0"/>
        <pt x="1040" y="124" on="1"/>
        <pt x="1011" y="67" on="0"/>
        <pt x="923" y="0" on="0"/>
        <pt x="874" y="0" on="1"/>
        <pt x="391" y="0" on="1"/>
        <pt x="314" y="0" on="0"/>
        <pt x="203" y="148" on="0"/>
        <pt x="203" y="252" on="1"/>
      </contour>
      <contour>
        <pt x="923" y="171" on="1"/>
        <pt x="923" y="1343" on="1"/>
        <pt x="442" y="1343" on="1"/>
        <pt x="442" y="171" on="1"/>
      </contour>
    </TTGlyph>
    <TTGlyph name="Oacute" xMin="203" yMin="0" xMax="1162" yMax="1996">
      <component glyphName="O" x="0" y="0" flags="0x1204"/>
      <component glyphName="acute.cap" x="152" y="0" flags="0x1004"/>
    </TTGlyph>
    <TTGlyph name="Obreve" xMin="203" yMin="0" xMax="1162" yMax="2000">
      <component glyphName="O" x="0" y="0" flags="0x1204"/>
      <component glyphName="breve.cap" x="250" y="0" flags="0x1004"/>
    </TTGlyph>
    <TTGlyph name="Ocircumflex" xMin="203" yMin="0" xMax="1162" yMax="2000">
      <component glyphName="O" x="0" y="0" flags="0x1204"/>
      <component glyphName="circumflex.cap" x="157" y="0" flags="0x1004"/>
    </TTGlyph>
    <TTGlyph name="Odieresis" xMin="203" yMin="0" xMax="1162" yMax="1978">
      <component glyphName="O" x="0" y="0" flags="0x1204"/>
      <component glyphName="dieresis.cap" x="152" y="0" flags="0x1004"/>
    </TTGlyph>
    <TTGlyph name="Ograve" xMin="203" yMin="0" xMax="1162" yMax="1998">
      <component glyphName="O" x="0" y="0" flags="0x1204"/>
      <component glyphName="grave.cap" x="152" y="0" flags="0x1004"/>
    </TTGlyph>
    <TTGlyph name="Ohungarumlaut" xMin="203" yMin="0" xMax="1255" yMax="1999">
      <component glyphName="O" x="0" y="0" flags="0x1204"/>
      <component glyphName="hungarumlaut.cap" x="261" y="0" flags="0x1004"/>
    </TTGlyph>
    <TTGlyph name="Omacron" xMin="203" yMin="0" xMax="1162" yMax="1516">
      <component glyphName="O" x="0" y="0" flags="0x1204"/>
    </TTGlyph>
    <TTGlyph name="Oslash" xMin="194" yMin="-177" xMax="1236" yMax="1717">
      <contour>
        <pt x="1118" y="1466" on="1"/>
        <pt x="1196" y="1388" on="0"/>
        <pt x="1196" y="1262" on="1"/>
        <pt x="1195" y="252" on="1"/>
        <pt x="1195" y="147" on="0"/>
        <pt x="1139" y="74" on="1"/>
        <pt x="1082" y="0" on="0"/>
        <pt x="1005" y="0" on="1"/>
        <pt x="428" y="0" on="1"/>
        <pt x="345" y="-177" on="1"/>
        <pt x="194" y="-177" on="1"/>
        <pt x="304" y="59" on="1"/>
        <pt x="237" y="135" on="0"/>
        <pt x="237" y="252" on="1"/>
        <pt x="237" y="1262" on="1"/>
        <pt x="237" y="1367" on="0"/>
        <pt x="292" y="1442" on="1"/>
        <pt x="347" y="1516" on="0"/>
        <pt x="425" y="1516" on="1"/>
        <pt x="981" y="1516" on="1"/>
        <pt x="1075" y="1717" on="1"/>
        <pt x="1236" y="1717" on="1"/>
      </contour>
      <contour>
        <pt x="903" y="1347" on="1"/>
        <pt x="476" y="1347" on="1"/>
        <pt x="476" y="429" on="1"/>
      </contour>
      <contour>
        <pt x="957" y="171" on="1"/>
        <pt x="957" y="1123" on="1"/>
        <pt x="509" y="171" on="1"/>
      </contour>
    </TTGlyph>
    <TTGlyph name="Otilde" xMin="203" yMin="0" xMax="1162" yMax="2000">
      <component glyphName="O" x="0" y="0" flags="0x1204"/>
      <component glyphName="tilde.cap" x="142" y="0" flags="0x1004"/>
    </TTGlyph>
    <TTGlyph name="P" xMin="50" yMin="0" xMax="1272" yMax="1516">
      <contour>
        <pt x="338" y="526" on="1"/>
        <pt x="50" y="526" on="1"/>
        <pt x="58" y="596" on="0"/>
        <pt x="159" y="697" on="0"/>
        <pt x="225" y="697" on="1"/>
        <pt x="337" y="697" on="1"/>
        <pt x="337" y="1516" on="1"/>
        <pt x="1082" y="1516" on="1"/>
        <pt x="1161" y="1516" on="0"/>
        <pt x="1216" y="1442" on="1"/>
        <pt x="1272" y="1368" on="0"/>
        <pt x="1272" y="1262" on="1"/>
        <pt x="1272" y="778" on="1"/>
        <pt x="1272" y="674" on="0"/>
        <pt x="1216" y="600" on="1"/>
        <pt x="1161" y="526" on="0"/>
        <pt x="1082" y="526" on="1"/>
        <pt x="578" y="526" on="1"/>
        <pt x="578" y="0" on="1"/>
        <pt x="338" y="0" on="1"/>
      </contour>
      <contour>
        <pt x="1039" y="697" on="1"/>
        <pt x="1039" y="1347" on="1"/>
        <pt x="577" y="1347" on="1"/>
        <pt x="577" y="697" on="1"/>
      </contour>
    </TTGlyph>
    <TTGlyph name="Q" xMin="188" yMin="0" xMax="1361" yMax="1516">
      <contour>
        <pt x="270" y="0" on="1"/>
        <pt x="278" y="71" on="0"/>
        <pt x="329" y="120" on="1"/>
        <pt x="381" y="171" on="0"/>
        <pt x="445" y="171" on="1"/>
        <pt x="901" y="171" on="1"/>
        <pt x="901" y="1347" on="1"/>
        <pt x="428" y="1347" on="1"/>
        <pt x="428" y="460" on="1"/>
        <pt x="378" y="460" on="1"/>
        <pt x="300" y="460" on="0"/>
        <pt x="188" y="609" on="0"/>
        <pt x="188" y="715" on="1"/>
        <pt x="188" y="1262" on="1"/>
        <pt x="188" y="1368" on="0"/>
        <pt x="244" y="1442" on="1"/>
        <pt x="299" y="1516" on="0"/>
        <pt x="377" y="1516" on="1"/>
        <pt x="949" y="1516" on="1"/>
        <pt x="1029" y="1516" on="0"/>
        <pt x="1084" y="1442" on="1"/>
        <pt x="1140" y="1368" on="0"/>
        <pt x="1140" y="1262" on="1"/>
        <pt x="1140" y="409" on="1"/>
        <pt x="1140" y="285" on="0"/>
        <pt x="1059" y="208" on="1"/>
        <pt x="1034" y="185" on="0"/>
        <pt x="1004" y="171" on="1"/>
        <pt x="1361" y="171" on="1"/>
        <pt x="1353" y="101" on="0"/>
        <pt x="1252" y="0" on="0"/>
        <pt x="1186" y="0" on="1"/>
      </contour>
    </TTGlyph>
    <TTGlyph name="R" xMin="-36" yMin="0" xMax="1423" yMax="1516">
      <contour>
        <pt x="1120" y="889" on="1"/>
        <pt x="1120" y="733" on="0"/>
        <pt x="991" y="657" on="1"/>
        <pt x="1072" y="627" on="0"/>
        <pt x="1120" y="548" on="1"/>
        <pt x="1161" y="480" on="0"/>
        <pt x="1161" y="403" on="1"/>
        <pt x="1160" y="172" on="1"/>
        <pt x="1423" y="172" on="1"/>
        <pt x="1415" y="101" on="0"/>
        <pt x="1314" y="0" on="0"/>
        <pt x="1248" y="0" on="1"/>
        <pt x="1110" y="0" on="1"/>
        <pt x="1033" y="0" on="0"/>
        <pt x="976" y="74" on="1"/>
        <pt x="920" y="147" on="0"/>
        <pt x="920" y="252" on="1"/>
        <pt x="920" y="564" on="1"/>
        <pt x="474" y="564" on="1"/>
        <pt x="473" y="0" on="1"/>
        <pt x="237" y="0" on="1"/>
        <pt x="237" y="564" on="1"/>
        <pt x="-36" y="564" on="1"/>
        <pt x="-30" y="633" on="0"/>
        <pt x="22" y="684" on="1"/>
        <pt x="72" y="735" on="0"/>
        <pt x="139" y="735" on="1"/>
        <pt x="237" y="735" on="1"/>
        <pt x="237" y="1516" on="1"/>
        <pt x="915" y="1516" on="1"/>
        <pt x="997" y="1516" on="0"/>
        <pt x="1058" y="1442" on="1"/>
        <pt x="1120" y="1367" on="0"/>
        <pt x="1120" y="1262" on="1"/>
      </contour>
      <contour>
        <pt x="883" y="735" on="1"/>
        <pt x="883" y="1345" on="1"/>
        <pt x="474" y="1345" on="1"/>
        <pt x="474" y="735" on="1"/>
      </contour>
    </TTGlyph>
    <TTGlyph name="Racute" xMin="-36" yMin="0" xMax="1423" yMax="1996">
      <component glyphName="R" x="0" y="0" flags="0x1204"/>
      <component glyphName="acute.cap" x="165" y="0" flags="0x1004"/>
    </TTGlyph>
    <TTGlyph name="Rcaron" xMin="-36" yMin="0" xMax="1423" yMax="2000">
      <component glyphName="R" x="0" y="0" flags="0x1204"/>
      <component glyphName="caron.cap" x="165" y="0" flags="0x1004"/>
    </TTGlyph>
    <TTGlyph name="Rcommaaccent" xMin="-36" yMin="-556" xMax="1423" yMax="1516">
      <component glyphName="R" x="0" y="0" flags="0x1204"/>
      <component glyphName="commaaccent" x="197" y="0" flags="0x1004"/>
    </TTGlyph>
    <TTGlyph name="S" xMin="237" yMin="0" xMax="1165" yMax="1516">
      <contour>
        <pt x="351" y="0" on="1"/>
        <pt x="359" y="70" on="0"/>
        <pt x="460" y="171" on="0"/>
        <pt x="526" y="171" on="1"/>
        <pt x="893" y="171" on="1"/>
        <pt x="893" y="414" on="1"/>
        <pt x="369" y="675" on="1"/>
        <pt x="237" y="741" on="0"/>
        <pt x="237" y="918" on="1"/>
        <pt x="237" y="1262" on="1"/>
        <pt x="237" y="1369" on="0"/>
        <pt x="292" y="1442" on="1"/>
        <pt x="346" y="1516" on="0"/>
        <pt x="424" y="1516" on="1"/>
        <pt x="977" y="1516" on="1"/>
        <pt x="1055" y="1516" on="0"/>
        <pt x="1110" y="1442" on="1"/>
        <pt x="1165" y="1367" on="0"/>
        <pt x="1165" y="1262" on="1"/>
        <pt x="1165" y="966" on="1"/>
        <pt x="926" y="966" on="1"/>
        <pt x="926" y="1345" on="1"/>
        <pt x="476" y="1345" on="1"/>
        <pt x="476" y="871" on="1"/>
        <pt x="1018" y="594" on="1"/>
        <pt x="1099" y="554" on="0"/>
        <pt x="1124" y="437" on="1"/>
        <pt x="1132" y="400" on="0"/>
        <pt x="1132" y="360" on="1"/>
        <pt x="1132" y="252" on="1"/>
        <pt x="1132" y="148" on="0"/>
        <pt x="1021" y="0" on="0"/>
        <pt x="944" y="0" on="1"/>
      </contour>
    </TTGlyph>
    <TTGlyph name="Sacute" xMin="237" yMin="0" xMax="1165" yMax="1929">
      <component glyphName="S" x="0" y="0" flags="0x1204"/>
      <component glyphName="acute.cap" x="126" y="-67" flags="0x1004"/>
    </TTGlyph>
    <TTGlyph name="Scaron" xMin="237" yMin="0" xMax="1165" yMax="1933">
      <component glyphName="S" x="0" y="0" flags="0x1204"/>
      <component glyphName="caron.cap" x="126" y="-67" flags="0x1004"/>
    </TTGlyph>
    <TTGlyph name="Scedilla" xMin="237" yMin="-493" xMax="1165" yMax="1516">
      <component glyphName="S" x="0" y="0" flags="0x1204"/>
      <component glyphName="cedilla" x="178" y="15" flags="0x1004"/>
    </TTGlyph>
    <TTGlyph name="Scircumflex" xMin="237" yMin="0" xMax="1165" yMax="1933">
      <component glyphName="S" x="0" y="0" flags="0x1204"/>
      <component glyphName="circumflex.cap" x="131" y="-67" flags="0x1004"/>
    </TTGlyph>
    <TTGlyph name="Scommaaccent" xMin="237" yMin="-556" xMax="1165" yMax="1516">
      <component glyphName="S" x="0" y="0" flags="0x1204"/>
      <component glyphName="commaaccent" x="170" y="0" flags="0x1004"/>
    </TTGlyph>
    <TTGlyph name="T" xMin="212" yMin="0" xMax="1340" yMax="1516">
      <contour>
        <pt x="426" y="0" on="1"/>
        <pt x="434" y="70" on="0"/>
        <pt x="535" y="171" on="0"/>
        <pt x="601" y="171" on="1"/>
        <pt x="895" y="171" on="1"/>
        <pt x="895" y="1347" on="1"/>
        <pt x="451" y="1347" on="1"/>
        <pt x="451" y="1022" on="1"/>
        <pt x="212" y="1022" on="1"/>
        <pt x="212" y="1262" on="1"/>
        <pt x="212" y="1368" on="0"/>
        <pt x="268" y="1442" on="1"/>
        <pt x="323" y="1516" on="0"/>
        <pt x="401" y="1516" on="1"/>
        <pt x="1340" y="1516" on="1"/>
        <pt x="1340" y="1347" on="1"/>
        <pt x="1133" y="1347" on="1"/>
        <pt x="1133" y="253" on="1"/>
        <pt x="1133" y="149" on="0"/>
        <pt x="1021" y="0" on="0"/>
        <pt x="944" y="0" on="1"/>
      </contour>
    </TTGlyph>
    <TTGlyph name="Tcaron" xMin="212" yMin="0" xMax="1381" yMax="2000">
      <component glyphName="T" x="0" y="0" flags="0x1204"/>
      <component glyphName="caron.cap" x="469" y="0" flags="0x1004"/>
    </TTGlyph>
    <TTGlyph name="Tcommaaccent" xMin="212" yMin="-556" xMax="1340" yMax="1516">
      <component glyphName="T" x="0" y="0" flags="0x1204"/>
      <component glyphName="commaaccent" x="245" y="0" flags="0x1004"/>
    </TTGlyph>
    <TTGlyph name="Thorn" xMin="-50" yMin="0" xMax="1172" yMax="1516">
      <contour>
        <pt x="238" y="307" on="1"/>
        <pt x="-50" y="307" on="1"/>
        <pt x="-42" y="377" on="0"/>
        <pt x="59" y="478" on="0"/>
        <pt x="125" y="478" on="1"/>
        <pt x="237" y="478" on="1"/>
        <pt x="237" y="1516" on="1"/>
        <pt x="476" y="1516" on="1"/>
        <pt x="476" y="1256" on="1"/>
        <pt x="982" y="1256" on="1"/>
        <pt x="1061" y="1256" on="0"/>
        <pt x="1116" y="1182" on="1"/>
        <pt x="1172" y="1108" on="0"/>
        <pt x="1172" y="1002" on="1"/>
        <pt x="1172" y="559" on="1"/>
        <pt x="1172" y="455" on="0"/>
        <pt x="1116" y="380" on="1"/>
        <pt x="1061" y="307" on="0"/>
        <pt x="982" y="307" on="1"/>
        <pt x="478" y="307" on="1"/>
        <pt x="478" y="0" on="1"/>
        <pt x="238" y="0" on="1"/>
      </contour>
      <contour>
        <pt x="939" y="478" on="1"/>
        <pt x="939" y="1087" on="1"/>
        <pt x="477" y="1087" on="1"/>
        <pt x="477" y="478" on="1"/>
      </contour>
    </TTGlyph>
    <TTGlyph name="U" xMin="207" yMin="0" xMax="1363" yMax="1516">
      <contour>
        <pt x="207" y="1516" on="1"/>
        <pt x="447" y="1516" on="1"/>
        <pt x="447" y="182" on="1"/>
        <pt x="540" y="182" on="1"/>
        <pt x="925" y="486" on="1"/>
        <pt x="925" y="1516" on="1"/>
        <pt x="1163" y="1516" on="1"/>
        <pt x="1163" y="172" on="1"/>
        <pt x="1363" y="172" on="1"/>
        <pt x="1355" y="101" on="0"/>
        <pt x="1254" y="0" on="0"/>
        <pt x="1188" y="0" on="1"/>
        <pt x="925" y="0" on="1"/>
        <pt x="925" y="288" on="1"/>
        <pt x="608" y="33" on="1"/>
        <pt x="570" y="0" on="0"/>
        <pt x="520" y="0" on="1"/>
        <pt x="405" y="0" on="1"/>
        <pt x="325" y="0" on="0"/>
        <pt x="266" y="74" on="1"/>
        <pt x="207" y="148" on="0"/>
        <pt x="207" y="252" on="1"/>
      </contour>
    </TTGlyph>
    <TTGlyph name="Uacute" xMin="207" yMin="0" xMax="1363" yMax="1996">
      <component glyphName="U" x="0" y="0" flags="0x1204"/>
      <component glyphName="acute.cap" x="177" y="0" flags="0x1004"/>
    </TTGlyph>
    <TTGlyph name="Ubreve" xMin="207" yMin="0" xMax="1363" yMax="2000">
      <component glyphName="U" x="0" y="0" flags="0x1204"/>
      <component glyphName="breve.cap" x="275" y="0" flags="0x1004"/>
    </TTGlyph>
    <TTGlyph name="Ucircumflex" xMin="207" yMin="0" xMax="1363" yMax="2000">
      <component glyphName="U" x="0" y="0" flags="0x1204"/>
      <component glyphName="circumflex.cap" x="182" y="0" flags="0x1004"/>
    </TTGlyph>
    <TTGlyph name="Udieresis" xMin="207" yMin="0" xMax="1363" yMax="1978">
      <component glyphName="U" x="0" y="0" flags="0x1204"/>
      <component glyphName="dieresis.cap" x="177" y="0" flags="0x1004"/>
    </TTGlyph>
    <TTGlyph name="Ugrave" xMin="207" yMin="0" xMax="1363" yMax="1998">
      <component glyphName="U" x="0" y="0" flags="0x1204"/>
      <component glyphName="grave.cap" x="177" y="0" flags="0x1004"/>
    </TTGlyph>
    <TTGlyph name="Uhungarumlaut" xMin="207" yMin="0" xMax="1363" yMax="1999">
      <component glyphName="U" x="0" y="0" flags="0x1204"/>
      <component glyphName="hungarumlaut.cap" x="286" y="0" flags="0x1004"/>
    </TTGlyph>
    <TTGlyph name="Umacron" xMin="207" yMin="0" xMax="1363" yMax="1869">
      <component glyphName="U" x="0" y="0" flags="0x1204"/>
      <component glyphName="macron.cap" x="274" y="0" flags="0x1004"/>
    </TTGlyph>
    <TTGlyph name="Uring" xMin="207" yMin="0" xMax="1363" yMax="2000">
      <component glyphName="U" x="0" y="0" flags="0x1204"/>
      <component glyphName="ring" x="67" y="126" flags="0x1004"/>
    </TTGlyph>
    <TTGlyph name="Utilde" xMin="207" yMin="0" xMax="1363" yMax="2000">
      <component glyphName="U" x="0" y="0" flags="0x1204"/>
      <component glyphName="tilde.cap" x="167" y="0" flags="0x1004"/>
    </TTGlyph>
    <TTGlyph name="V" xMin="28" yMin="0" xMax="1369" yMax="1516">
      <contour>
        <pt x="294" y="1345" on="1"/>
        <pt x="28" y="1345" on="1"/>
        <pt x="36" y="1415" on="0"/>
        <pt x="137" y="1516" on="0"/>
        <pt x="203" y="1516" on="1"/>
        <pt x="502" y="1516" on="1"/>
        <pt x="815" y="171" on="1"/>
        <pt x="1121" y="1516" on="1"/>
        <pt x="1369" y="1516" on="1"/>
        <pt x="997" y="0" on="1"/>
        <pt x="635" y="0" on="1"/>
      </contour>
    </TTGlyph>
    <TTGlyph name="W" xMin="-27" yMin="0" xMax="1695" yMax="1517">
      <contour>
        <pt x="237" y="1346" on="1"/>
        <pt x="-27" y="1346" on="1"/>
        <pt x="-19" y="1416" on="0"/>
        <pt x="82" y="1517" on="0"/>
        <pt x="148" y="1517" on="1"/>
        <pt x="476" y="1517" on="1"/>
        <pt x="476" y="172" on="1"/>
        <pt x="846" y="172" on="1"/>
        <pt x="846" y="1517" on="1"/>
        <pt x="1086" y="1517" on="1"/>
        <pt x="1086" y="172" on="1"/>
        <pt x="1456" y="172" on="1"/>
        <pt x="1456" y="1517" on="1"/>
        <pt x="1695" y="1517" on="1"/>
        <pt x="1695" y="254" on="1"/>
        <pt x="1695" y="149" on="0"/>
        <pt x="1583" y="0" on="0"/>
        <pt x="1504" y="0" on="1"/>
        <pt x="1131" y="0" on="1"/>
        <pt x="1082" y="0" on="0"/>
        <pt x="994" y="67" on="0"/>
        <pt x="965" y="124" on="1"/>
        <pt x="936" y="67" on="0"/>
        <pt x="848" y="0" on="0"/>
        <pt x="799" y="0" on="1"/>
        <pt x="428" y="0" on="1"/>
        <pt x="349" y="0" on="0"/>
        <pt x="237" y="149" on="0"/>
        <pt x="237" y="254" on="1"/>
      </contour>
    </TTGlyph>
    <TTGlyph name="Wacute" xMin="-27" yMin="0" xMax="1695" yMax="1929">
      <component glyphName="W" x="0" y="0" flags="0x1204"/>
      <component glyphName="acute.cap" x="387" y="-67" flags="0x1004"/>
    </TTGlyph>
    <TTGlyph name="Wcircumflex" xMin="-27" yMin="0" xMax="1695" yMax="1933">
      <component glyphName="W" x="0" y="0" flags="0x1204"/>
      <component glyphName="circumflex.cap" x="392" y="-67" flags="0x1004"/>
    </TTGlyph>
    <TTGlyph name="Wdieresis" xMin="-27" yMin="0" xMax="1695" yMax="1911">
      <component glyphName="W" x="0" y="0" flags="0x1204"/>
      <component glyphName="dieresis.cap" x="387" y="-67" flags="0x1004"/>
    </TTGlyph>
    <TTGlyph name="Wgrave" xMin="-27" yMin="0" xMax="1695" yMax="1931">
      <component glyphName="W" x="0" y="0" flags="0x1204"/>
      <component glyphName="grave.cap" x="387" y="-67" flags="0x1004"/>
    </TTGlyph>
    <TTGlyph name="X" xMin="11" yMin="0" xMax="1246" yMax="1516">
      <contour>
        <pt x="444" y="802" on="1"/>
        <pt x="62" y="1516" on="1"/>
        <pt x="311" y="1516" on="1"/>
        <pt x="569" y="1033" on="1"/>
        <pt x="830" y="1516" on="1"/>
        <pt x="1079" y="1516" on="1"/>
        <pt x="694" y="798" on="1"/>
        <pt x="1029" y="171" on="1"/>
        <pt x="1246" y="171" on="1"/>
        <pt x="1238" y="99" on="0"/>
        <pt x="1188" y="50" on="1"/>
        <pt x="1136" y="0" on="0"/>
        <pt x="1071" y="0" on="1"/>
        <pt x="874" y="0" on="1"/>
        <pt x="570" y="566" on="1"/>
        <pt x="267" y="0" on="1"/>
        <pt x="11" y="0" on="1"/>
      </contour>
    </TTGlyph>
    <TTGlyph name="Y" xMin="25" yMin="0" xMax="1193" yMax="1516">
      <contour>
        <pt x="300" y="0" on="1"/>
        <pt x="308" y="70" on="0"/>
        <pt x="409" y="171" on="0"/>
        <pt x="475" y="171" on="1"/>
        <pt x="955" y="171" on="1"/>
        <pt x="955" y="618" on="1"/>
        <pt x="651" y="434" on="1"/>
        <pt x="604" y="404" on="0"/>
        <pt x="548" y="406" on="1"/>
        <pt x="435" y="406" on="1"/>
        <pt x="355" y="406" on="0"/>
        <pt x="296" y="480" on="1"/>
        <pt x="237" y="554" on="0"/>
        <pt x="237" y="658" on="1"/>
        <pt x="237" y="1345" on="1"/>
        <pt x="25" y="1345" on="1"/>
        <pt x="33" y="1416" on="0"/>
        <pt x="84" y="1466" on="1"/>
        <pt x="137" y="1516" on="0"/>
        <pt x="210" y="1516" on="1"/>
        <pt x="477" y="1516" on="1"/>
        <pt x="477" y="578" on="1"/>
        <pt x="570" y="578" on="1"/>
        <pt x="955" y="815" on="1"/>
        <pt x="955" y="1516" on="1"/>
        <pt x="1193" y="1516" on="1"/>
        <pt x="1193" y="251" on="1"/>
        <pt x="1193" y="150" on="0"/>
        <pt x="1138" y="74" on="1"/>
        <pt x="1082" y="0" on="0"/>
        <pt x="1003" y="0" on="1"/>
      </contour>
    </TTGlyph>
    <TTGlyph name="Yacute" xMin="188" yMin="0" xMax="1356" yMax="1996">
      <component glyphName="Y" x="163" y="0" flags="0x1204"/>
      <component glyphName="acute.cap" x="282" y="0" flags="0x1004"/>
    </TTGlyph>
    <TTGlyph name="Ycircumflex" xMin="25" yMin="0" xMax="1193" yMax="2000">
      <component glyphName="Y" x="0" y="0" flags="0x1204"/>
      <component glyphName="circumflex.cap" x="165" y="0" flags="0x1004"/>
    </TTGlyph>
    <TTGlyph name="Ydieresis" xMin="25" yMin="0" xMax="1193" yMax="1978">
      <component glyphName="Y" x="0" y="0" flags="0x1204"/>
      <component glyphName="dieresis.cap" x="160" y="0" flags="0x1004"/>
    </TTGlyph>
    <TTGlyph name="Ygrave" xMin="25" yMin="0" xMax="1193" yMax="1998">
      <component glyphName="Y" x="0" y="0" flags="0x1204"/>
      <component glyphName="grave.cap" x="160" y="0" flags="0x1004"/>
    </TTGlyph>
    <TTGlyph name="Z" xMin="165" yMin="0" xMax="1183" yMax="1516">
      <contour>
        <pt x="165" y="176" on="1"/>
        <pt x="832" y="1347" on="1"/>
        <pt x="190" y="1347" on="1"/>
        <pt x="190" y="1516" on="1"/>
        <pt x="1106" y="1516" on="1"/>
        <pt x="1106" y="1343" on="1"/>
        <pt x="439" y="171" on="1"/>
        <pt x="1183" y="172" on="1"/>
        <pt x="1175" y="101" on="0"/>
        <pt x="1074" y="0" on="0"/>
        <pt x="1008" y="0" on="1"/>
        <pt x="165" y="0" on="1"/>
      </contour>
    </TTGlyph>
    <TTGlyph name="Zacute" xMin="165" yMin="0" xMax="1183" yMax="1929">
      <component glyphName="Z" x="0" y="0" flags="0x1204"/>
      <component glyphName="acute.cap" x="65" y="-67" flags="0x1004"/>
    </TTGlyph>
    <TTGlyph name="Zcaron" xMin="165" yMin="0" xMax="1183" yMax="1933">
      <component glyphName="Z" x="0" y="0" flags="0x1204"/>
      <component glyphName="caron.cap" x="65" y="-67" flags="0x1004"/>
    </TTGlyph>
    <TTGlyph name="Zdotaccent" xMin="165" yMin="0" xMax="1183" yMax="1933">
      <component glyphName="Z" x="0" y="0" flags="0x1204"/>
      <component glyphName="dotaccent.cap" x="161" y="-67" flags="0x1004"/>
    </TTGlyph>
    <TTGlyph name="a" xMin="237" yMin="0" xMax="1344" yMax="1048">
      <contour>
        <pt x="237" y="765" on="1"/>
        <pt x="237" y="886" on="0"/>
        <pt x="299" y="967" on="1"/>
        <pt x="361" y="1048" on="0"/>
        <pt x="453" y="1048" on="1"/>
        <pt x="1127" y="1048" on="1"/>
        <pt x="1127" y="171" on="1"/>
        <pt x="1344" y="171" on="1"/>
        <pt x="1336" y="99" on="0"/>
        <pt x="1286" y="50" on="1"/>
        <pt x="1234" y="0" on="0"/>
        <pt x="1169" y="0" on="1"/>
        <pt x="1062" y="0" on="1"/>
        <pt x="1013" y="0" on="0"/>
        <pt x="925" y="67" on="0"/>
        <pt x="896" y="124" on="1"/>
        <pt x="867" y="67" on="0"/>
        <pt x="779" y="0" on="0"/>
        <pt x="730" y="0" on="1"/>
        <pt x="427" y="0" on="1"/>
        <pt x="348" y="0" on="0"/>
        <pt x="237" y="148" on="0"/>
        <pt x="237" y="251" on="1"/>
      </contour>
      <contour>
        <pt x="889" y="171" on="1"/>
        <pt x="889" y="876" on="1"/>
        <pt x="475" y="876" on="1"/>
        <pt x="475" y="171" on="1"/>
      </contour>
    </TTGlyph>
    <TTGlyph name="aacute" xMin="237" yMin="0" xMax="1344" yMax="1672">
      <component glyphName="a" x="0" y="0" flags="0x1204"/>
      <component glyphName="acute" x="107" y="-170" flags="0x1004"/>
    </TTGlyph>
    <TTGlyph name="abreve" xMin="237" yMin="0" xMax="1344" yMax="1846">
      <component glyphName="a" x="0" y="0" flags="0x1204"/>
      <component glyphName="breve" x="1" y="0" flags="0x1004"/>
    </TTGlyph>
    <TTGlyph name="acircumflex" xMin="237" yMin="0" xMax="1344" yMax="1678">
      <component glyphName="a" x="0" y="0" flags="0x1204"/>
      <component glyphName="circumflex" x="-12" y="-170" flags="0x1004"/>
    </TTGlyph>
    <TTGlyph name="acute" xMin="366" yMin="1430" xMax="975" yMax="1842">
      <contour>
        <pt x="366" y="1535" on="1"/>
        <pt x="747" y="1809" on="1"/>
        <pt x="793" y="1841" on="0"/>
        <pt x="856" y="1841" on="0"/>
        <pt x="878" y="1836" on="1"/>
        <pt x="932" y="1822" on="0"/>
        <pt x="962" y="1756" on="1"/>
        <pt x="975" y="1727" on="0"/>
        <pt x="975" y="1693" on="0"/>
        <pt x="972" y="1654" on="0"/>
        <pt x="956" y="1624" on="1"/>
        <pt x="921" y="1562" on="0"/>
        <pt x="851" y="1543" on="1"/>
        <pt x="427" y="1430" on="1"/>
      </contour>
    </TTGlyph>
    <TTGlyph name="acute.cap" xMin="352" yMin="1625" xMax="900" yMax="1996">
      <contour>
        <pt x="352" y="1719" on="1"/>
        <pt x="695" y="1966" on="1"/>
        <pt x="736" y="1996" on="0"/>
        <pt x="793" y="1996" on="0"/>
        <pt x="812" y="1990" on="1"/>
        <pt x="860" y="1977" on="0"/>
        <pt x="888" y="1918" on="1"/>
        <pt x="900" y="1892" on="0"/>
        <pt x="900" y="1861" on="0"/>
        <pt x="897" y="1826" on="0"/>
        <pt x="882" y="1800" on="1"/>
        <pt x="850" y="1744" on="0"/>
        <pt x="788" y="1727" on="1"/>
        <pt x="407" y="1625" on="1"/>
      </contour>
    </TTGlyph>
    <TTGlyph name="adieresis" xMin="237" yMin="0" xMax="1344" yMax="1630">
      <component glyphName="a" x="0" y="0" flags="0x1204"/>
      <component glyphName="dieresis" x="-111" y="-170" flags="0x1004"/>
    </TTGlyph>
    <TTGlyph name="ae" xMin="237" yMin="0" xMax="1853" yMax="1048">
      <contour>
        <pt x="237" y="765" on="1"/>
        <pt x="237" y="886" on="0"/>
        <pt x="300" y="967" on="1"/>
        <pt x="362" y="1048" on="0"/>
        <pt x="454" y="1048" on="1"/>
        <pt x="1016" y="1048" on="1"/>
        <pt x="1016" y="907" on="1"/>
        <pt x="1039" y="970" on="0"/>
        <pt x="1129" y="1047" on="0"/>
        <pt x="1186" y="1047" on="1"/>
        <pt x="1611" y="1047" on="1"/>
        <pt x="1689" y="1047" on="0"/>
        <pt x="1801" y="898" on="0"/>
        <pt x="1801" y="793" on="1"/>
        <pt x="1801" y="460" on="1"/>
        <pt x="1129" y="460" on="1"/>
        <pt x="1129" y="171" on="1"/>
        <pt x="1853" y="171" on="1"/>
        <pt x="1845" y="99" on="0"/>
        <pt x="1794" y="50" on="1"/>
        <pt x="1743" y="0" on="0"/>
        <pt x="1678" y="0" on="1"/>
        <pt x="1080" y="0" on="1"/>
        <pt x="1002" y="0" on="0"/>
        <pt x="946" y="73" on="1"/>
        <pt x="890" y="146" on="0"/>
        <pt x="890" y="251" on="1"/>
        <pt x="638" y="33" on="1"/>
        <pt x="600" y="0" on="0"/>
        <pt x="550" y="0" on="1"/>
        <pt x="435" y="0" on="1"/>
        <pt x="355" y="0" on="0"/>
        <pt x="296" y="74" on="1"/>
        <pt x="237" y="148" on="0"/>
        <pt x="237" y="252" on="1"/>
      </contour>
      <contour>
        <pt x="1562" y="600" on="1"/>
        <pt x="1562" y="876" on="1"/>
        <pt x="1129" y="876" on="1"/>
        <pt x="1129" y="600" on="1"/>
      </contour>
      <contour>
        <pt x="570" y="172" on="1"/>
        <pt x="890" y="453" on="1"/>
        <pt x="890" y="876" on="1"/>
        <pt x="477" y="876" on="1"/>
        <pt x="477" y="172" on="1"/>
      </contour>
    </TTGlyph>
    <TTGlyph name="aeacute" xMin="237" yMin="0" xMax="1853" yMax="1842">
      <component glyphName="ae" x="0" y="0" flags="0x1204"/>
      <component glyphName="acute" x="468" y="0" flags="0x1004"/>
    </TTGlyph>
    <TTGlyph name="agrave" xMin="237" yMin="0" xMax="1344" yMax="1672">
      <component glyphName="a" x="0" y="0" flags="0x1204"/>
      <component glyphName="grave" x="74" y="-170" flags="0x1004"/>
    </TTGlyph>
    <TTGlyph name="amacron" xMin="237" yMin="0" xMax="1344" yMax="1570">
      <component glyphName="a" x="0" y="0" flags="0x1204"/>
      <component glyphName="macron" x="-6" y="0" flags="0x1004"/>
    </TTGlyph>
    <TTGlyph name="ampersand" xMin="159" yMin="0" xMax="1324" yMax="1516">
      <contour>
        <pt x="159" y="633" on="1"/>
        <pt x="159" y="720" on="0"/>
        <pt x="215" y="794" on="1"/>
        <pt x="284" y="884" on="0"/>
        <pt x="410" y="904" on="1"/>
        <pt x="379" y="946" on="1"/>
        <pt x="322" y="1023" on="0"/>
        <pt x="322" y="1119" on="1"/>
        <pt x="322" y="1259" on="1"/>
        <pt x="322" y="1366" on="0"/>
        <pt x="378" y="1441" on="1"/>
        <pt x="434" y="1516" on="0"/>
        <pt x="514" y="1516" on="1"/>
        <pt x="857" y="1516" on="1"/>
        <pt x="936" y="1516" on="0"/>
        <pt x="992" y="1442" on="1"/>
        <pt x="1046" y="1368" on="0"/>
        <pt x="1046" y="1260" on="1"/>
        <pt x="1046" y="1135" on="1"/>
        <pt x="808" y="1135" on="1"/>
        <pt x="808" y="1345" on="1"/>
        <pt x="559" y="1345" on="1"/>
        <pt x="559" y="1052" on="1"/>
        <pt x="872" y="622" on="1"/>
        <pt x="1071" y="944" on="1"/>
        <pt x="1324" y="944" on="1"/>
        <pt x="1008" y="434" on="1"/>
        <pt x="1324" y="0" on="1"/>
        <pt x="1067" y="0" on="1"/>
        <pt x="890" y="243" on="1"/>
        <pt x="740" y="0" on="1"/>
        <pt x="350" y="0" on="1"/>
        <pt x="272" y="0" on="0"/>
        <pt x="216" y="74" on="1"/>
        <pt x="159" y="150" on="0"/>
        <pt x="159" y="254" on="1"/>
      </contour>
      <contour>
        <pt x="593" y="171" on="1"/>
        <pt x="753" y="431" on="1"/>
        <pt x="539" y="726" on="1"/>
        <pt x="410" y="726" on="1"/>
        <pt x="410" y="171" on="1"/>
      </contour>
    </TTGlyph>
    <TTGlyph name="aring" xMin="237" yMin="0" xMax="1344" yMax="1752">
      <component glyphName="a" x="0" y="0" flags="0x1204"/>
      <component glyphName="ring" x="59" y="-122" flags="0x1004"/>
    </TTGlyph>
    <TTGlyph name="asciicircum" xMin="267" yMin="467" xMax="1165" yMax="1515">
      <contour>
        <pt x="607" y="1515" on="1"/>
        <pt x="809" y="1515" on="1"/>
        <pt x="809" y="1515" on="0"/>
        <pt x="1165" y="467" on="1"/>
        <pt x="980" y="467" on="1"/>
        <pt x="708" y="1333" on="1"/>
        <pt x="452" y="467" on="1"/>
        <pt x="267" y="467" on="1"/>
      </contour>
    </TTGlyph>
    <TTGlyph name="asciitilde" xMin="138" yMin="354" xMax="1187" yMax="733">
      <contour>
        <pt x="168" y="519" on="1"/>
        <pt x="194" y="612" on="0"/>
        <pt x="290" y="672" on="1"/>
        <pt x="386" y="733" on="0"/>
        <pt x="508" y="733" on="1"/>
        <pt x="656" y="733" on="0"/>
        <pt x="763" y="626" on="1"/>
        <pt x="796" y="593" on="0"/>
        <pt x="818" y="554" on="1"/>
        <pt x="975" y="554" on="1"/>
        <pt x="1043" y="670" on="1"/>
        <pt x="1187" y="670" on="1"/>
        <pt x="1160" y="568" on="1"/>
        <pt x="1134" y="471" on="0"/>
        <pt x="1038" y="412" on="1"/>
        <pt x="943" y="354" on="0"/>
        <pt x="820" y="354" on="1"/>
        <pt x="663" y="354" on="0"/>
        <pt x="554" y="461" on="1"/>
        <pt x="521" y="494" on="0"/>
        <pt x="498" y="533" on="1"/>
        <pt x="351" y="533" on="1"/>
        <pt x="282" y="417" on="1"/>
        <pt x="138" y="417" on="1"/>
      </contour>
    </TTGlyph>
    <TTGlyph name="asterisk" xMin="201" yMin="592" xMax="1163" yMax="1523">
      <contour>
        <pt x="501" y="599" on="1"/>
        <pt x="481" y="592" on="0"/>
        <pt x="433" y="592" on="0"/>
        <pt x="388" y="615" on="0"/>
        <pt x="372" y="634" on="1"/>
        <pt x="339" y="672" on="0"/>
        <pt x="339" y="710" on="1"/>
        <pt x="339" y="784" on="0"/>
        <pt x="396" y="833" on="1"/>
        <pt x="575" y="987" on="1"/>
        <pt x="335" y="1010" on="1"/>
        <pt x="282" y="1016" on="0"/>
        <pt x="253" y="1042" on="1"/>
        <pt x="201" y="1087" on="0"/>
        <pt x="201" y="1170" on="0"/>
        <pt x="224" y="1218" on="0"/>
        <pt x="242" y="1234" on="1"/>
        <pt x="279" y="1268" on="0"/>
        <pt x="314" y="1268" on="1"/>
        <pt x="366" y="1268" on="0"/>
        <pt x="412" y="1242" on="1"/>
        <pt x="606" y="1126" on="1"/>
        <pt x="557" y="1349" on="1"/>
        <pt x="553" y="1364" on="0"/>
        <pt x="553" y="1409" on="0"/>
        <pt x="569" y="1459" on="0"/>
        <pt x="585" y="1479" on="1"/>
        <pt x="620" y="1523" on="0"/>
        <pt x="678" y="1523" on="1"/>
        <pt x="736" y="1523" on="0"/>
        <pt x="774" y="1482" on="1"/>
        <pt x="808" y="1443" on="0"/>
        <pt x="808" y="1386" on="1"/>
        <pt x="808" y="1369" on="0"/>
        <pt x="803" y="1347" on="1"/>
        <pt x="749" y="1121" on="1"/>
        <pt x="954" y="1241" on="1"/>
        <pt x="1018" y="1278" on="0"/>
        <pt x="1082" y="1256" on="1"/>
        <pt x="1129" y="1241" on="0"/>
        <pt x="1152" y="1194" on="1"/>
        <pt x="1163" y="1170" on="0"/>
        <pt x="1163" y="1111" on="0"/>
        <pt x="1142" y="1065" on="0"/>
        <pt x="1124" y="1048" on="1"/>
        <pt x="1083" y="1011" on="0"/>
        <pt x="1028" y="1007" on="1"/>
        <pt x="795" y="988" on="1"/>
        <pt x="973" y="832" on="1"/>
        <pt x="1028" y="784" on="0"/>
        <pt x="1028" y="714" on="1"/>
        <pt x="1028" y="668" on="0"/>
        <pt x="1002" y="641" on="1"/>
        <pt x="956" y="593" on="0"/>
        <pt x="863" y="593" on="0"/>
        <pt x="792" y="645" on="0"/>
        <pt x="774" y="688" on="1"/>
        <pt x="685" y="901" on="1"/>
        <pt x="591" y="685" on="1"/>
        <pt x="564" y="621" on="0"/>
      </contour>
    </TTGlyph>
    <TTGlyph name="at" xMin="283" yMin="-391" xMax="2191" yMax="1467">
      <contour>
        <pt x="283" y="1221" on="1"/>
        <pt x="283" y="1322" on="0"/>
        <pt x="350" y="1396" on="1"/>
        <pt x="415" y="1467" on="0"/>
        <pt x="507" y="1467" on="1"/>
        <pt x="1965" y="1467" on="1"/>
        <pt x="2059" y="1467" on="0"/>
        <pt x="2191" y="1324" on="0"/>
        <pt x="2191" y="1221" on="1"/>
        <pt x="2191" y="252" on="1"/>
        <pt x="2191" y="142" on="0"/>
        <pt x="2122" y="69" on="1"/>
        <pt x="2056" y="0" on="0"/>
        <pt x="1969" y="0" on="1"/>
        <pt x="1605" y="0" on="1"/>
        <pt x="1556" y="0" on="0"/>
        <pt x="1468" y="67" on="0"/>
        <pt x="1439" y="124" on="1"/>
        <pt x="1410" y="67" on="0"/>
        <pt x="1322" y="0" on="0"/>
        <pt x="1273" y="0" on="1"/>
        <pt x="1000" y="0" on="1"/>
        <pt x="921" y="0" on="0"/>
        <pt x="810" y="148" on="0"/>
        <pt x="810" y="251" on="1"/>
        <pt x="810" y="764" on="1"/>
        <pt x="810" y="885" on="0"/>
        <pt x="872" y="966" on="1"/>
        <pt x="934" y="1047" on="0"/>
        <pt x="1026" y="1047" on="1"/>
        <pt x="1670" y="1047" on="1"/>
        <pt x="1670" y="171" on="1"/>
        <pt x="1997" y="171" on="1"/>
        <pt x="1997" y="1323" on="1"/>
        <pt x="475" y="1323" on="1"/>
        <pt x="475" y="-244" on="1"/>
        <pt x="1755" y="-244" on="1"/>
        <pt x="1714" y="-347" on="0"/>
        <pt x="1612" y="-380" on="1"/>
        <pt x="1580" y="-391" on="0"/>
        <pt x="1545" y="-391" on="1"/>
        <pt x="507" y="-391" on="1"/>
        <pt x="416" y="-391" on="0"/>
        <pt x="350" y="-318" on="1"/>
        <pt x="283" y="-245" on="0"/>
        <pt x="283" y="-144" on="1"/>
      </contour>
      <contour>
        <pt x="1432" y="171" on="1"/>
        <pt x="1432" y="876" on="1"/>
        <pt x="1048" y="876" on="1"/>
        <pt x="1048" y="171" on="1"/>
      </contour>
    </TTGlyph>
    <TTGlyph name="atilde" xMin="237" yMin="0" xMax="1344" yMax="1646">
      <component glyphName="a" x="0" y="0" flags="0x1204"/>
      <component glyphName="tilde" x="-28" y="-170" flags="0x1004"/>
    </TTGlyph>
    <TTGlyph name="b" xMin="237" yMin="0" xMax="1338" yMax="1591">
      <contour>
        <pt x="636" y="0" on="1"/>
        <pt x="538" y="0" on="0"/>
        <pt x="475" y="113" on="1"/>
        <pt x="475" y="0" on="1"/>
        <pt x="237" y="0" on="1"/>
        <pt x="237" y="1591" on="1"/>
        <pt x="475" y="1591" on="1"/>
        <pt x="475" y="931" on="1"/>
        <pt x="535" y="1047" on="0"/>
        <pt x="636" y="1047" on="1"/>
        <pt x="938" y="1047" on="1"/>
        <pt x="1015" y="1047" on="0"/>
        <pt x="1127" y="898" on="0"/>
        <pt x="1127" y="793" on="1"/>
        <pt x="1127" y="171" on="1"/>
        <pt x="1338" y="171" on="1"/>
        <pt x="1330" y="99" on="0"/>
        <pt x="1280" y="50" on="1"/>
        <pt x="1228" y="0" on="0"/>
        <pt x="1163" y="0" on="1"/>
      </contour>
      <contour>
        <pt x="889" y="171" on="1"/>
        <pt x="889" y="876" on="1"/>
        <pt x="475" y="876" on="1"/>
        <pt x="475" y="171" on="1"/>
      </contour>
    </TTGlyph>
    <TTGlyph name="backslash" xMin="163" yMin="-176" xMax="1082" yMax="1769">
      <contour>
        <pt x="163" y="1769" on="1"/>
        <pt x="333" y="1769" on="1"/>
        <pt x="333" y="1769" on="0"/>
        <pt x="1082" y="-176" on="1"/>
        <pt x="909" y="-176" on="1"/>
      </contour>
    </TTGlyph>
    <TTGlyph name="bar" xMin="349" yMin="-354" xMax="506" yMax="1735">
      <contour>
        <pt x="349" y="174" on="0"/>
        <pt x="350" y="1208" on="0"/>
        <pt x="350" y="1735" on="1"/>
        <pt x="506" y="1735" on="1"/>
        <pt x="506" y="-354" on="1"/>
        <pt x="349" y="-354" on="1"/>
      </contour>
    </TTGlyph>
    <TTGlyph name="braceleft" xMin="269" yMin="-391" xMax="1004" yMax="1778">
      <contour>
        <pt x="445" y="466" on="1"/>
        <pt x="445" y="616" on="0"/>
        <pt x="269" y="644" on="1"/>
        <pt x="269" y="743" on="1"/>
        <pt x="445" y="761" on="0"/>
        <pt x="445" y="933" on="1"/>
        <pt x="445" y="1249" on="1"/>
        <pt x="445" y="1473" on="0"/>
        <pt x="608" y="1620" on="1"/>
        <pt x="763" y="1759" on="0"/>
        <pt x="1004" y="1778" on="1"/>
        <pt x="1004" y="1632" on="1"/>
        <pt x="866" y="1620" on="0"/>
        <pt x="770" y="1543" on="1"/>
        <pt x="674" y="1466" on="0"/>
        <pt x="674" y="1358" on="1"/>
        <pt x="674" y="950" on="1"/>
        <pt x="674" y="831" on="0"/>
        <pt x="546" y="740" on="1"/>
        <pt x="506" y="712" on="0"/>
        <pt x="460" y="692" on="1"/>
        <pt x="609" y="635" on="0"/>
        <pt x="658" y="513" on="1"/>
        <pt x="674" y="475" on="0"/>
        <pt x="674" y="435" on="1"/>
        <pt x="674" y="21" on="1"/>
        <pt x="674" y="-85" on="0"/>
        <pt x="770" y="-158" on="1"/>
        <pt x="864" y="-231" on="0"/>
        <pt x="1004" y="-245" on="1"/>
        <pt x="1004" y="-391" on="1"/>
        <pt x="763" y="-377" on="0"/>
        <pt x="606" y="-238" on="1"/>
        <pt x="445" y="-95" on="0"/>
        <pt x="445" y="129" on="1"/>
      </contour>
    </TTGlyph>
    <TTGlyph name="braceright" xMin="269" yMin="-391" xMax="1004" yMax="1778">
      <contour>
        <pt x="1004" y="644" on="1"/>
        <pt x="828" y="616" on="0"/>
        <pt x="828" y="466" on="1"/>
        <pt x="828" y="129" on="1"/>
        <pt x="828" y="-90" on="0"/>
        <pt x="664" y="-235" on="1"/>
        <pt x="510" y="-372" on="0"/>
        <pt x="269" y="-391" on="1"/>
        <pt x="269" y="-245" on="1"/>
        <pt x="409" y="-231" on="0"/>
        <pt x="503" y="-158" on="1"/>
        <pt x="599" y="-85" on="0"/>
        <pt x="599" y="21" on="1"/>
        <pt x="599" y="435" on="1"/>
        <pt x="599" y="513" on="0"/>
        <pt x="660" y="585" on="1"/>
        <pt x="718" y="655" on="0"/>
        <pt x="813" y="692" on="1"/>
        <pt x="666" y="756" on="0"/>
        <pt x="616" y="872" on="1"/>
        <pt x="599" y="910" on="0"/>
        <pt x="599" y="950" on="1"/>
        <pt x="599" y="1358" on="1"/>
        <pt x="599" y="1466" on="0"/>
        <pt x="503" y="1543" on="1"/>
        <pt x="407" y="1620" on="0"/>
        <pt x="269" y="1632" on="1"/>
        <pt x="269" y="1778" on="1"/>
        <pt x="511" y="1764" on="0"/>
        <pt x="666" y="1622" on="1"/>
        <pt x="828" y="1476" on="0"/>
        <pt x="828" y="1249" on="1"/>
        <pt x="828" y="933" on="1"/>
        <pt x="828" y="803" on="0"/>
        <pt x="932" y="760" on="1"/>
        <pt x="964" y="747" on="0"/>
        <pt x="1004" y="743" on="1"/>
      </contour>
    </TTGlyph>
    <TTGlyph name="bracketleft" xMin="357" yMin="-392" xMax="915" yMax="1779">
      <contour>
        <pt x="357" y="1534" on="1"/>
        <pt x="357" y="1634" on="0"/>
        <pt x="424" y="1708" on="1"/>
        <pt x="489" y="1779" on="0"/>
        <pt x="581" y="1779" on="1"/>
        <pt x="915" y="1779" on="1"/>
        <pt x="915" y="1634" on="1"/>
        <pt x="586" y="1634" on="1"/>
        <pt x="586" y="-245" on="1"/>
        <pt x="915" y="-245" on="1"/>
        <pt x="915" y="-392" on="1"/>
        <pt x="581" y="-392" on="1"/>
        <pt x="490" y="-392" on="0"/>
        <pt x="424" y="-320" on="1"/>
        <pt x="357" y="-246" on="0"/>
        <pt x="357" y="-146" on="1"/>
      </contour>
    </TTGlyph>
    <TTGlyph name="bracketright" xMin="357" yMin="-388" xMax="915" yMax="1781">
      <contour>
        <pt x="685" y="-244" on="1"/>
        <pt x="685" y="1634" on="1"/>
        <pt x="357" y="1634" on="1"/>
        <pt x="357" y="1781" on="1"/>
        <pt x="686" y="1781" on="1"/>
        <pt x="782" y="1781" on="0"/>
        <pt x="848" y="1710" on="1"/>
        <pt x="915" y="1637" on="0"/>
        <pt x="915" y="1536" on="1"/>
        <pt x="915" y="-142" on="1"/>
        <pt x="915" y="-245" on="0"/>
        <pt x="848" y="-316" on="1"/>
        <pt x="780" y="-388" on="0"/>
        <pt x="686" y="-388" on="1"/>
        <pt x="357" y="-388" on="1"/>
        <pt x="357" y="-244" on="1"/>
      </contour>
    </TTGlyph>
    <TTGlyph name="breve" xMin="278" yMin="1459" xMax="1087" yMax="1846">
      <contour>
        <pt x="637" y="1459" on="1"/>
        <pt x="486" y="1459" on="0"/>
        <pt x="383" y="1568" on="1"/>
        <pt x="278" y="1678" on="0"/>
        <pt x="278" y="1846" on="1"/>
        <pt x="429" y="1846" on="1"/>
        <pt x="429" y="1790" on="0"/>
        <pt x="498" y="1738" on="1"/>
        <pt x="570" y="1684" on="0"/>
        <pt x="660" y="1684" on="1"/>
        <pt x="706" y="1684" on="1"/>
        <pt x="797" y="1684" on="0"/>
        <pt x="868" y="1738" on="1"/>
        <pt x="937" y="1791" on="0"/>
        <pt x="937" y="1846" on="1"/>
        <pt x="1087" y="1846" on="1"/>
        <pt x="1087" y="1678" on="0"/>
        <pt x="982" y="1568" on="1"/>
        <pt x="879" y="1459" on="0"/>
        <pt x="728" y="1459" on="1"/>
      </contour>
    </TTGlyph>
    <TTGlyph name="breve.cap" xMin="29" yMin="1613" xMax="838" yMax="2000">
      <contour>
        <pt x="388" y="1613" on="1"/>
        <pt x="237" y="1613" on="0"/>
        <pt x="134" y="1722" on="1"/>
        <pt x="29" y="1832" on="0"/>
        <pt x="29" y="2000" on="1"/>
        <pt x="180" y="2000" on="1"/>
        <pt x="180" y="1944" on="0"/>
        <pt x="249" y="1892" on="1"/>
        <pt x="321" y="1838" on="0"/>
        <pt x="411" y="1838" on="1"/>
        <pt x="457" y="1838" on="1"/>
        <pt x="548" y="1838" on="0"/>
        <pt x="618" y="1892" on="1"/>
        <pt x="688" y="1945" on="0"/>
        <pt x="688" y="2000" on="1"/>
        <pt x="838" y="2000" on="1"/>
        <pt x="838" y="1832" on="0"/>
        <pt x="733" y="1722" on="1"/>
        <pt x="630" y="1613" on="0"/>
        <pt x="479" y="1613" on="1"/>
      </contour>
    </TTGlyph>
    <TTGlyph name="brokenbar" xMin="349" yMin="-354" xMax="506" yMax="1735">
      <contour>
        <pt x="349" y="1104" on="1"/>
        <pt x="350" y="1523" on="1"/>
        <pt x="350" y="1735" on="1"/>
        <pt x="506" y="1735" on="1"/>
        <pt x="506" y="892" on="1"/>
        <pt x="349" y="892" on="1"/>
      </contour>
      <contour>
        <pt x="349" y="-354" on="1"/>
        <pt x="350" y="510" on="1"/>
        <pt x="506" y="510" on="1"/>
        <pt x="506" y="-354" on="1"/>
      </contour>
    </TTGlyph>
    <TTGlyph name="bullet" xMin="-37" yMin="577" xMax="523" yMax="1136">
      <component glyphName="period" x="-466" y="597" scalex="1.65960693359" scaley="1.65808105469" flags="0x1004"/>
    </TTGlyph>
    <TTGlyph name="c" xMin="243" yMin="0" xMax="1181" yMax="1047">
      <contour>
        <pt x="243" y="793" on="1"/>
        <pt x="243" y="897" on="0"/>
        <pt x="298" y="972" on="1"/>
        <pt x="354" y="1047" on="0"/>
        <pt x="433" y="1047" on="1"/>
        <pt x="959" y="1047" on="1"/>
        <pt x="1037" y="1047" on="0"/>
        <pt x="1149" y="898" on="0"/>
        <pt x="1149" y="793" on="1"/>
        <pt x="1149" y="607" on="1"/>
        <pt x="910" y="607" on="1"/>
        <pt x="910" y="876" on="1"/>
        <pt x="481" y="876" on="1"/>
        <pt x="481" y="171" on="1"/>
        <pt x="1181" y="171" on="1"/>
        <pt x="1173" y="99" on="0"/>
        <pt x="1122" y="50" on="1"/>
        <pt x="1071" y="0" on="0"/>
        <pt x="1006" y="0" on="1"/>
        <pt x="433" y="0" on="1"/>
        <pt x="354" y="0" on="0"/>
        <pt x="298" y="74" on="1"/>
        <pt x="243" y="150" on="0"/>
        <pt x="243" y="254" on="1"/>
      </contour>
    </TTGlyph>
    <TTGlyph name="cacute" xMin="243" yMin="0" xMax="1181" yMax="1842">
      <component glyphName="c" x="0" y="0" flags="0x1204"/>
      <component glyphName="acute" x="103" y="0" flags="0x1004"/>
    </TTGlyph>
    <TTGlyph name="caron" xMin="277" yMin="1487" xMax="1119" yMax="1920">
      <contour>
        <pt x="1039" y="1920" on="1"/>
        <pt x="1119" y="1814" on="1"/>
        <pt x="854" y="1561" on="1"/>
        <pt x="774" y="1487" on="0"/>
        <pt x="620" y="1487" on="0"/>
        <pt x="542" y="1561" on="1"/>
        <pt x="277" y="1814" on="1"/>
        <pt x="289" y="1830" on="0"/>
        <pt x="300" y="1842" on="1"/>
        <pt x="348" y="1903" on="0"/>
        <pt x="361" y="1920" on="1"/>
        <pt x="697" y="1728" on="1"/>
      </contour>
    </TTGlyph>
    <TTGlyph name="caron.cap" xMin="154" yMin="1611" xMax="912" yMax="2000">
      <contour>
        <pt x="840" y="2000" on="1"/>
        <pt x="912" y="1905" on="1"/>
        <pt x="673" y="1677" on="1"/>
        <pt x="605" y="1611" on="0"/>
        <pt x="532" y="1611" on="1"/>
        <pt x="461" y="1611" on="0"/>
        <pt x="393" y="1677" on="1"/>
        <pt x="154" y="1905" on="1"/>
        <pt x="165" y="1920" on="0"/>
        <pt x="174" y="1932" on="1"/>
        <pt x="230" y="2000" on="1"/>
        <pt x="532" y="1828" on="1"/>
      </contour>
    </TTGlyph>
    <TTGlyph name="ccaron" xMin="243" yMin="0" xMax="1181" yMax="1920">
      <component glyphName="c" x="0" y="0" flags="0x1204"/>
      <component glyphName="caron" x="-17" y="0" flags="0x1004"/>
    </TTGlyph>
    <TTGlyph name="ccedilla" xMin="243" yMin="-508" xMax="1181" yMax="1047">
      <component glyphName="c" x="0" y="0" flags="0x1204"/>
      <component glyphName="cedilla" x="140" y="0" flags="0x1004"/>
    </TTGlyph>
    <TTGlyph name="ccircumflex" xMin="243" yMin="0" xMax="1181" yMax="1848">
      <component glyphName="c" x="0" y="0" flags="0x1204"/>
      <component glyphName="circumflex" x="-27" y="0" flags="0x1004"/>
    </TTGlyph>
    <TTGlyph name="cdotaccent" xMin="243" yMin="0" xMax="1181" yMax="1800">
      <component glyphName="c" x="0" y="0" flags="0x1204"/>
      <component glyphName="dotaccentcmb" x="338" y="0" flags="0x1004"/>
    </TTGlyph>
    <TTGlyph name="cedilla" xMin="220" yMin="-508" xMax="869" yMax="0">
      <contour>
        <pt x="578" y="0" on="1"/>
        <pt x="578" y="-96" on="1"/>
        <pt x="705" y="-96" on="1"/>
        <pt x="771" y="-96" on="0"/>
        <pt x="820" y="-157" on="1"/>
        <pt x="869" y="-217" on="0"/>
        <pt x="869" y="-303" on="1"/>
        <pt x="869" y="-388" on="0"/>
        <pt x="820" y="-448" on="1"/>
        <pt x="771" y="-508" on="0"/>
        <pt x="705" y="-508" on="1"/>
        <pt x="220" y="-508" on="1"/>
        <pt x="228" y="-436" on="0"/>
        <pt x="278" y="-388" on="1"/>
        <pt x="329" y="-338" on="0"/>
        <pt x="395" y="-338" on="1"/>
        <pt x="664" y="-338" on="1"/>
        <pt x="664" y="-222" on="1"/>
        <pt x="458" y="-222" on="1"/>
        <pt x="458" y="0" on="1"/>
      </contour>
    </TTGlyph>
    <TTGlyph name="cent" xMin="267" yMin="-156" xMax="1178" yMax="1408">
      <contour>
        <pt x="267" y="894" on="1"/>
        <pt x="267" y="999" on="0"/>
        <pt x="322" y="1074" on="1"/>
        <pt x="377" y="1148" on="0"/>
        <pt x="455" y="1148" on="1"/>
        <pt x="657" y="1148" on="1"/>
        <pt x="657" y="1408" on="1"/>
        <pt x="813" y="1408" on="1"/>
        <pt x="813" y="1148" on="1"/>
        <pt x="987" y="1148" on="1"/>
        <pt x="1067" y="1148" on="0"/>
        <pt x="1122" y="1074" on="1"/>
        <pt x="1178" y="1000" on="0"/>
        <pt x="1178" y="894" on="1"/>
        <pt x="1177" y="727" on="1"/>
        <pt x="939" y="727" on="1"/>
        <pt x="939" y="979" on="1"/>
        <pt x="813" y="979" on="1"/>
        <pt x="813" y="274" on="1"/>
        <pt x="939" y="274" on="1"/>
        <pt x="939" y="390" on="1"/>
        <pt x="1177" y="390" on="1"/>
        <pt x="1177" y="355" on="1"/>
        <pt x="1177" y="250" on="0"/>
        <pt x="1121" y="177" on="1"/>
        <pt x="1064" y="103" on="0"/>
        <pt x="987" y="103" on="1"/>
        <pt x="813" y="103" on="1"/>
        <pt x="813" y="-156" on="1"/>
        <pt x="656" y="-156" on="1"/>
        <pt x="656" y="103" on="1"/>
        <pt x="455" y="103" on="1"/>
        <pt x="378" y="103" on="0"/>
        <pt x="267" y="251" on="0"/>
        <pt x="267" y="355" on="1"/>
      </contour>
      <contour>
        <pt x="656" y="452" on="1"/>
        <pt x="657" y="800" on="1"/>
        <pt x="657" y="979" on="1"/>
        <pt x="506" y="979" on="1"/>
        <pt x="506" y="274" on="1"/>
        <pt x="656" y="274" on="1"/>
        <pt x="656" y="274" on="0"/>
      </contour>
    </TTGlyph>
    <TTGlyph name="circumflex" xMin="286" yMin="1415" xMax="1128" yMax="1848">
      <contour>
        <pt x="366" y="1415" on="1"/>
        <pt x="366" y="1415" on="0"/>
        <pt x="286" y="1521" on="1"/>
        <pt x="551" y="1774" on="1"/>
        <pt x="631" y="1848" on="0"/>
        <pt x="785" y="1848" on="0"/>
        <pt x="863" y="1774" on="1"/>
        <pt x="1128" y="1521" on="1"/>
        <pt x="1116" y="1505" on="0"/>
        <pt x="1106" y="1492" on="1"/>
        <pt x="1057" y="1432" on="0"/>
        <pt x="1044" y="1415" on="1"/>
        <pt x="708" y="1607" on="1"/>
      </contour>
    </TTGlyph>
    <TTGlyph name="circumflex.cap" xMin="146" yMin="1611" xMax="904" yMax="2000">
      <contour>
        <pt x="218" y="1611" on="1"/>
        <pt x="218" y="1611" on="0"/>
        <pt x="146" y="1706" on="1"/>
        <pt x="385" y="1934" on="1"/>
        <pt x="453" y="2000" on="0"/>
        <pt x="526" y="2000" on="1"/>
        <pt x="597" y="2000" on="0"/>
        <pt x="665" y="1934" on="1"/>
        <pt x="904" y="1706" on="1"/>
        <pt x="893" y="1691" on="0"/>
        <pt x="884" y="1680" on="1"/>
        <pt x="828" y="1611" on="1"/>
        <pt x="526" y="1783" on="1"/>
      </contour>
    </TTGlyph>
    <TTGlyph name="colon" xMin="259" yMin="-12" xMax="596" yMax="981">
      <component glyphName="period" x="0" y="0" flags="0x1204"/>
      <component glyphName="period" x="0" y="656" flags="0x1004"/>
    </TTGlyph>
    <TTGlyph name="comma" xMin="250" yMin="-291" xMax="597" yMax="326">
      <contour>
        <pt x="341" y="12" on="1"/>
        <pt x="259" y="61" on="0"/>
        <pt x="259" y="157" on="1"/>
        <pt x="259" y="227" on="0"/>
        <pt x="308" y="277" on="1"/>
        <pt x="355" y="326" on="0"/>
        <pt x="428" y="326" on="1"/>
        <pt x="498" y="326" on="0"/>
        <pt x="547" y="277" on="1"/>
        <pt x="597" y="227" on="0"/>
        <pt x="597" y="113" on="0"/>
        <pt x="578" y="37" on="0"/>
        <pt x="560" y="1" on="1"/>
        <pt x="528" y="-63" on="0"/>
        <pt x="458" y="-148" on="1"/>
        <pt x="344" y="-291" on="1"/>
        <pt x="250" y="-246" on="1"/>
      </contour>
    </TTGlyph>
    <TTGlyph name="commaaccent" xMin="367" yMin="-556" xMax="705" yMax="-39">
      <contour>
        <pt x="459" y="-332" on="1"/>
        <pt x="367" y="-290" on="0"/>
        <pt x="367" y="-207" on="1"/>
        <pt x="367" y="-136" on="0"/>
        <pt x="464" y="-39" on="0"/>
        <pt x="536" y="-39" on="1"/>
        <pt x="605" y="-39" on="0"/>
        <pt x="655" y="-88" on="1"/>
        <pt x="705" y="-136" on="0"/>
        <pt x="705" y="-251" on="0"/>
        <pt x="672" y="-332" on="0"/>
        <pt x="613" y="-416" on="0"/>
        <pt x="573" y="-460" on="1"/>
        <pt x="485" y="-556" on="1"/>
        <pt x="391" y="-511" on="1"/>
      </contour>
    </TTGlyph>
    <TTGlyph name="copyright" xMin="461" yMin="0" xMax="2013" yMax="1516">
      <contour>
        <pt x="461" y="1282" on="1"/>
        <pt x="461" y="1379" on="0"/>
        <pt x="587" y="1516" on="0"/>
        <pt x="674" y="1516" on="1"/>
        <pt x="1800" y="1516" on="1"/>
        <pt x="1887" y="1516" on="0"/>
        <pt x="2013" y="1379" on="0"/>
        <pt x="2013" y="1282" on="1"/>
        <pt x="2013" y="235" on="1"/>
        <pt x="2013" y="139" on="0"/>
        <pt x="1950" y="69" on="1"/>
        <pt x="1887" y="0" on="0"/>
        <pt x="1800" y="0" on="1"/>
        <pt x="674" y="0" on="1"/>
        <pt x="587" y="0" on="0"/>
        <pt x="524" y="69" on="1"/>
        <pt x="461" y="139" on="0"/>
        <pt x="461" y="235" on="1"/>
      </contour>
      <contour>
        <pt x="1830" y="140" on="1"/>
        <pt x="1830" y="1379" on="1"/>
        <pt x="644" y="1379" on="1"/>
        <pt x="644" y="140" on="1"/>
      </contour>
      <contour>
        <pt x="847" y="959" on="1"/>
        <pt x="847" y="1063" on="0"/>
        <pt x="900" y="1132" on="1"/>
        <pt x="954" y="1202" on="0"/>
        <pt x="1028" y="1202" on="1"/>
        <pt x="1457" y="1202" on="1"/>
        <pt x="1530" y="1202" on="0"/>
        <pt x="1584" y="1132" on="1"/>
        <pt x="1638" y="1061" on="0"/>
        <pt x="1638" y="959" on="1"/>
        <pt x="1638" y="834" on="1"/>
        <pt x="1412" y="834" on="1"/>
        <pt x="1412" y="1039" on="1"/>
        <pt x="1074" y="1039" on="1"/>
        <pt x="1074" y="486" on="1"/>
        <pt x="1412" y="486" on="1"/>
        <pt x="1412" y="609" on="1"/>
        <pt x="1638" y="609" on="1"/>
        <pt x="1638" y="564" on="1"/>
        <pt x="1638" y="464" on="0"/>
        <pt x="1584" y="394" on="1"/>
        <pt x="1531" y="323" on="0"/>
        <pt x="1458" y="323" on="1"/>
        <pt x="1028" y="323" on="1"/>
        <pt x="954" y="323" on="0"/>
        <pt x="900" y="394" on="1"/>
        <pt x="847" y="462" on="0"/>
        <pt x="847" y="564" on="1"/>
      </contour>
    </TTGlyph>
    <TTGlyph name="currency" xMin="138" yMin="39" xMax="1307" yMax="1146">
      <contour>
        <pt x="1138" y="406" on="1"/>
        <pt x="1138" y="350" on="0"/>
        <pt x="1122" y="304" on="1"/>
        <pt x="1307" y="126" on="1"/>
        <pt x="1215" y="39" on="1"/>
        <pt x="1049" y="191" on="1"/>
        <pt x="1004" y="152" on="0"/>
        <pt x="949" y="152" on="1"/>
        <pt x="497" y="152" on="1"/>
        <pt x="442" y="152" on="0"/>
        <pt x="395" y="191" on="1"/>
        <pt x="230" y="39" on="1"/>
        <pt x="138" y="126" on="1"/>
        <pt x="323" y="304" on="1"/>
        <pt x="307" y="350" on="0"/>
        <pt x="307" y="406" on="1"/>
        <pt x="307" y="790" on="1"/>
        <pt x="307" y="842" on="0"/>
        <pt x="320" y="884" on="1"/>
        <pt x="138" y="1059" on="1"/>
        <pt x="230" y="1146" on="1"/>
        <pt x="388" y="1000" on="1"/>
        <pt x="437" y="1045" on="0"/>
        <pt x="497" y="1045" on="1"/>
        <pt x="948" y="1045" on="1"/>
        <pt x="1007" y="1045" on="0"/>
        <pt x="1056" y="1000" on="1"/>
        <pt x="1215" y="1146" on="1"/>
        <pt x="1307" y="1059" on="1"/>
        <pt x="1124" y="883" on="1"/>
        <pt x="1138" y="838" on="0"/>
        <pt x="1138" y="790" on="1"/>
      </contour>
      <contour>
        <pt x="900" y="325" on="1"/>
        <pt x="900" y="874" on="1"/>
        <pt x="545" y="874" on="1"/>
        <pt x="545" y="325" on="1"/>
      </contour>
    </TTGlyph>
    <TTGlyph name="d" xMin="237" yMin="0" xMax="1317" yMax="1590">
      <contour>
        <pt x="237" y="793" on="1"/>
        <pt x="237" y="897" on="0"/>
        <pt x="292" y="972" on="1"/>
        <pt x="348" y="1047" on="0"/>
        <pt x="427" y="1047" on="1"/>
        <pt x="889" y="1047" on="1"/>
        <pt x="889" y="1590" on="1"/>
        <pt x="1127" y="1590" on="1"/>
        <pt x="1127" y="171" on="1"/>
        <pt x="1317" y="171" on="1"/>
        <pt x="1309" y="99" on="0"/>
        <pt x="1258" y="50" on="1"/>
        <pt x="1207" y="0" on="0"/>
        <pt x="1142" y="0" on="1"/>
        <pt x="889" y="0" on="1"/>
        <pt x="889" y="109" on="1"/>
        <pt x="862" y="58" on="0"/>
        <pt x="778" y="0" on="0"/>
        <pt x="731" y="0" on="1"/>
        <pt x="427" y="0" on="1"/>
        <pt x="348" y="0" on="0"/>
        <pt x="292" y="74" on="1"/>
        <pt x="237" y="150" on="0"/>
        <pt x="237" y="254" on="1"/>
      </contour>
      <contour>
        <pt x="889" y="171" on="1"/>
        <pt x="889" y="876" on="1"/>
        <pt x="475" y="876" on="1"/>
        <pt x="475" y="171" on="1"/>
      </contour>
    </TTGlyph>
    <TTGlyph name="dagger" xMin="218" yMin="-525" xMax="1141" yMax="1578">
      <contour>
        <pt x="566" y="892" on="1"/>
        <pt x="218" y="892" on="1"/>
        <pt x="227" y="993" on="0"/>
        <pt x="320" y="1036" on="1"/>
        <pt x="348" y="1048" on="0"/>
        <pt x="378" y="1048" on="1"/>
        <pt x="566" y="1048" on="1"/>
        <pt x="566" y="1578" on="1"/>
        <pt x="804" y="1578" on="1"/>
        <pt x="804" y="1048" on="1"/>
        <pt x="1141" y="1048" on="1"/>
        <pt x="1132" y="947" on="0"/>
        <pt x="1038" y="904" on="1"/>
        <pt x="1011" y="892" on="0"/>
        <pt x="981" y="892" on="1"/>
        <pt x="804" y="892" on="1"/>
        <pt x="804" y="-269" on="1"/>
        <pt x="804" y="-375" on="0"/>
        <pt x="744" y="-450" on="1"/>
        <pt x="684" y="-525" on="0"/>
        <pt x="602" y="-525" on="1"/>
        <pt x="566" y="-525" on="1"/>
      </contour>
    </TTGlyph>
    <TTGlyph name="daggerdbl" xMin="217" yMin="-525" xMax="1140" yMax="1578">
      <contour>
        <pt x="217" y="527" on="1"/>
        <pt x="226" y="628" on="0"/>
        <pt x="320" y="670" on="1"/>
        <pt x="347" y="683" on="0"/>
        <pt x="377" y="683" on="1"/>
        <pt x="565" y="683" on="1"/>
        <pt x="565" y="892" on="1"/>
        <pt x="217" y="892" on="1"/>
        <pt x="226" y="993" on="0"/>
        <pt x="320" y="1036" on="1"/>
        <pt x="347" y="1048" on="0"/>
        <pt x="377" y="1048" on="1"/>
        <pt x="565" y="1048" on="1"/>
        <pt x="565" y="1578" on="1"/>
        <pt x="803" y="1578" on="1"/>
        <pt x="803" y="1048" on="1"/>
        <pt x="1140" y="1048" on="1"/>
        <pt x="1131" y="947" on="0"/>
        <pt x="1038" y="904" on="1"/>
        <pt x="1010" y="892" on="0"/>
        <pt x="980" y="892" on="1"/>
        <pt x="803" y="892" on="1"/>
        <pt x="803" y="683" on="1"/>
        <pt x="1140" y="683" on="1"/>
        <pt x="1131" y="582" on="0"/>
        <pt x="1038" y="540" on="1"/>
        <pt x="1010" y="527" on="0"/>
        <pt x="980" y="527" on="1"/>
        <pt x="803" y="527" on="1"/>
        <pt x="803" y="-269" on="1"/>
        <pt x="803" y="-375" on="0"/>
        <pt x="744" y="-450" on="1"/>
        <pt x="683" y="-525" on="0"/>
        <pt x="601" y="-525" on="1"/>
        <pt x="565" y="-525" on="1"/>
        <pt x="565" y="527" on="1"/>
      </contour>
    </TTGlyph>
    <TTGlyph name="dcaron" xMin="237" yMin="0" xMax="1628" yMax="1590">
      <contour>
        <pt x="1372" y="1201" on="1"/>
        <pt x="1290" y="1250" on="0"/>
        <pt x="1290" y="1346" on="1"/>
        <pt x="1290" y="1416" on="0"/>
        <pt x="1338" y="1466" on="1"/>
        <pt x="1386" y="1515" on="0"/>
        <pt x="1459" y="1515" on="1"/>
        <pt x="1529" y="1515" on="0"/>
        <pt x="1578" y="1466" on="1"/>
        <pt x="1628" y="1416" on="0"/>
        <pt x="1628" y="1302" on="0"/>
        <pt x="1609" y="1226" on="0"/>
        <pt x="1591" y="1190" on="1"/>
        <pt x="1559" y="1126" on="0"/>
        <pt x="1489" y="1041" on="1"/>
        <pt x="1375" y="898" on="1"/>
        <pt x="1281" y="943" on="1"/>
      </contour>
      <contour>
        <pt x="237" y="793" on="1"/>
        <pt x="237" y="897" on="0"/>
        <pt x="292" y="972" on="1"/>
        <pt x="348" y="1047" on="0"/>
        <pt x="427" y="1047" on="1"/>
        <pt x="889" y="1047" on="1"/>
        <pt x="889" y="1590" on="1"/>
        <pt x="1127" y="1590" on="1"/>
        <pt x="1127" y="171" on="1"/>
        <pt x="1317" y="171" on="1"/>
        <pt x="1309" y="99" on="0"/>
        <pt x="1258" y="50" on="1"/>
        <pt x="1207" y="0" on="0"/>
        <pt x="1142" y="0" on="1"/>
        <pt x="889" y="0" on="1"/>
        <pt x="889" y="109" on="1"/>
        <pt x="862" y="58" on="0"/>
        <pt x="778" y="0" on="0"/>
        <pt x="731" y="0" on="1"/>
        <pt x="427" y="0" on="1"/>
        <pt x="348" y="0" on="0"/>
        <pt x="292" y="74" on="1"/>
        <pt x="237" y="150" on="0"/>
        <pt x="237" y="254" on="1"/>
      </contour>
      <contour>
        <pt x="889" y="171" on="1"/>
        <pt x="889" y="876" on="1"/>
        <pt x="475" y="876" on="1"/>
        <pt x="475" y="171" on="1"/>
      </contour>
    </TTGlyph>
    <TTGlyph name="dcroat" xMin="237" yMin="0" xMax="1317" yMax="1590">
      <contour>
        <pt x="613" y="1374" on="1"/>
        <pt x="1252" y="1374" on="1"/>
        <pt x="1252" y="1208" on="1"/>
        <pt x="613" y="1208" on="1"/>
      </contour>
      <contour>
        <pt x="237" y="793" on="1"/>
        <pt x="237" y="897" on="0"/>
        <pt x="292" y="972" on="1"/>
        <pt x="348" y="1047" on="0"/>
        <pt x="427" y="1047" on="1"/>
        <pt x="889" y="1047" on="1"/>
        <pt x="889" y="1590" on="1"/>
        <pt x="1127" y="1590" on="1"/>
        <pt x="1127" y="171" on="1"/>
        <pt x="1317" y="171" on="1"/>
        <pt x="1309" y="99" on="0"/>
        <pt x="1258" y="50" on="1"/>
        <pt x="1207" y="0" on="0"/>
        <pt x="1142" y="0" on="1"/>
        <pt x="889" y="0" on="1"/>
        <pt x="889" y="109" on="1"/>
        <pt x="862" y="58" on="0"/>
        <pt x="778" y="0" on="0"/>
        <pt x="731" y="0" on="1"/>
        <pt x="427" y="0" on="1"/>
        <pt x="348" y="0" on="0"/>
        <pt x="292" y="74" on="1"/>
        <pt x="237" y="150" on="0"/>
        <pt x="237" y="254" on="1"/>
      </contour>
      <contour>
        <pt x="889" y="171" on="1"/>
        <pt x="889" y="876" on="1"/>
        <pt x="475" y="876" on="1"/>
        <pt x="475" y="171" on="1"/>
      </contour>
    </TTGlyph>
    <TTGlyph name="degree" xMin="327" yMin="557" xMax="1037" yMax="1269">
      <contour>
        <pt x="682" y="557" on="1"/>
        <pt x="608" y="557" on="0"/>
        <pt x="479" y="613" on="0"/>
        <pt x="431" y="662" on="1"/>
        <pt x="327" y="767" on="0"/>
        <pt x="327" y="914" on="1"/>
        <pt x="327" y="1061" on="0"/>
        <pt x="535" y="1269" on="0"/>
        <pt x="829" y="1269" on="0"/>
        <pt x="1037" y="1061" on="0"/>
        <pt x="1037" y="914" on="1"/>
        <pt x="1037" y="767" on="0"/>
        <pt x="933" y="662" on="1"/>
        <pt x="830" y="557" on="0"/>
      </contour>
      <contour>
        <pt x="681" y="724" on="1"/>
        <pt x="719" y="724" on="0"/>
        <pt x="789" y="754" on="0"/>
        <pt x="815" y="780" on="1"/>
        <pt x="873" y="836" on="0"/>
        <pt x="873" y="914" on="1"/>
        <pt x="873" y="989" on="0"/>
        <pt x="815" y="1047" on="1"/>
        <pt x="759" y="1103" on="0"/>
        <pt x="682" y="1103" on="1"/>
        <pt x="602" y="1103" on="0"/>
        <pt x="548" y="1047" on="1"/>
        <pt x="492" y="990" on="0"/>
        <pt x="492" y="914" on="1"/>
        <pt x="492" y="835" on="0"/>
        <pt x="603" y="724" on="0"/>
      </contour>
    </TTGlyph>
    <TTGlyph name="dieresis" xMin="373" yMin="1459" xMax="1240" yMax="1800">
      <contour>
        <pt x="1073" y="1459" on="1"/>
        <pt x="1038" y="1459" on="0"/>
        <pt x="976" y="1483" on="0"/>
        <pt x="954" y="1506" on="1"/>
        <pt x="907" y="1554" on="0"/>
        <pt x="907" y="1700" on="0"/>
        <pt x="954" y="1750" on="1"/>
        <pt x="1000" y="1800" on="0"/>
        <pt x="1074" y="1800" on="1"/>
        <pt x="1144" y="1800" on="0"/>
        <pt x="1192" y="1750" on="1"/>
        <pt x="1240" y="1700" on="0"/>
        <pt x="1240" y="1554" on="0"/>
        <pt x="1192" y="1506" on="1"/>
        <pt x="1145" y="1459" on="0"/>
      </contour>
      <contour>
        <pt x="539" y="1459" on="1"/>
        <pt x="504" y="1459" on="0"/>
        <pt x="442" y="1483" on="0"/>
        <pt x="420" y="1506" on="1"/>
        <pt x="373" y="1554" on="0"/>
        <pt x="373" y="1700" on="0"/>
        <pt x="420" y="1750" on="1"/>
        <pt x="466" y="1800" on="0"/>
        <pt x="540" y="1800" on="1"/>
        <pt x="610" y="1800" on="0"/>
        <pt x="658" y="1750" on="1"/>
        <pt x="706" y="1700" on="0"/>
        <pt x="706" y="1554" on="0"/>
        <pt x="658" y="1506" on="1"/>
        <pt x="611" y="1459" on="0"/>
      </contour>
    </TTGlyph>
    <TTGlyph name="dieresis.cap" xMin="141" yMin="1671" xMax="922" yMax="1978">
      <contour>
        <pt x="858" y="1693" on="0"/>
        <pt x="803" y="1671" on="0"/>
        <pt x="739" y="1671" on="0"/>
        <pt x="684" y="1693" on="0"/>
        <pt x="664" y="1713" on="1"/>
        <pt x="622" y="1755" on="0"/>
        <pt x="622" y="1855" on="0"/>
        <pt x="644" y="1912" on="0"/>
        <pt x="664" y="1933" on="1"/>
        <pt x="707" y="1978" on="0"/>
        <pt x="772" y="1978" on="1"/>
        <pt x="835" y="1978" on="0"/>
        <pt x="878" y="1933" on="1"/>
        <pt x="922" y="1887" on="0"/>
        <pt x="922" y="1788" on="0"/>
        <pt x="898" y="1733" on="0"/>
      </contour>
      <contour>
        <pt x="377" y="1693" on="0"/>
        <pt x="323" y="1671" on="0"/>
        <pt x="259" y="1671" on="0"/>
        <pt x="204" y="1693" on="0"/>
        <pt x="184" y="1713" on="1"/>
        <pt x="141" y="1754" on="0"/>
        <pt x="141" y="1855" on="0"/>
        <pt x="163" y="1912" on="0"/>
        <pt x="184" y="1933" on="1"/>
        <pt x="227" y="1978" on="0"/>
        <pt x="292" y="1978" on="1"/>
        <pt x="354" y="1978" on="0"/>
        <pt x="397" y="1933" on="1"/>
        <pt x="441" y="1887" on="0"/>
        <pt x="441" y="1788" on="0"/>
        <pt x="417" y="1733" on="0"/>
      </contour>
    </TTGlyph>
    <TTGlyph name="divide" xMin="290" yMin="-15" xMax="1164" yMax="1050">
      <contour>
        <pt x="593" y="906" on="1"/>
        <pt x="593" y="967" on="0"/>
        <pt x="620" y="997" on="1"/>
        <pt x="668" y="1050" on="0"/>
        <pt x="726" y="1050" on="1"/>
        <pt x="782" y="1050" on="0"/>
        <pt x="822" y="1008" on="1"/>
        <pt x="862" y="966" on="0"/>
        <pt x="862" y="906" on="1"/>
        <pt x="862" y="846" on="0"/>
        <pt x="822" y="804" on="1"/>
        <pt x="782" y="762" on="0"/>
        <pt x="740" y="762" on="1"/>
        <pt x="668" y="762" on="0"/>
        <pt x="593" y="845" on="0"/>
      </contour>
      <contour>
        <pt x="290" y="607" on="1"/>
        <pt x="1164" y="607" on="1"/>
        <pt x="1164" y="431" on="1"/>
        <pt x="290" y="431" on="1"/>
      </contour>
      <contour>
        <pt x="593" y="129" on="1"/>
        <pt x="593" y="226" on="0"/>
        <pt x="672" y="264" on="1"/>
        <pt x="697" y="275" on="0"/>
        <pt x="753" y="275" on="0"/>
        <pt x="803" y="252" on="0"/>
        <pt x="822" y="232" on="1"/>
        <pt x="862" y="190" on="0"/>
        <pt x="862" y="129" on="1"/>
        <pt x="862" y="69" on="0"/>
        <pt x="822" y="27" on="1"/>
        <pt x="782" y="-14" on="0"/>
        <pt x="697" y="-14" on="0"/>
        <pt x="648" y="8" on="0"/>
        <pt x="630" y="27" on="1"/>
        <pt x="593" y="68" on="0"/>
      </contour>
    </TTGlyph>
    <TTGlyph name="dollar" xMin="263" yMin="-217" xMax="1181" yMax="1565">
      <contour>
        <pt x="263" y="357" on="1"/>
        <pt x="502" y="357" on="1"/>
        <pt x="502" y="171" on="1"/>
        <pt x="649" y="171" on="1"/>
        <pt x="649" y="610" on="1"/>
        <pt x="395" y="737" on="1"/>
        <pt x="263" y="803" on="0"/>
        <pt x="263" y="980" on="1"/>
        <pt x="263" y="1092" on="1"/>
        <pt x="263" y="1199" on="0"/>
        <pt x="318" y="1272" on="1"/>
        <pt x="372" y="1346" on="0"/>
        <pt x="450" y="1346" on="1"/>
        <pt x="650" y="1346" on="1"/>
        <pt x="650" y="1565" on="1"/>
        <pt x="806" y="1565" on="1"/>
        <pt x="806" y="1346" on="1"/>
        <pt x="993" y="1346" on="1"/>
        <pt x="1071" y="1346" on="0"/>
        <pt x="1126" y="1272" on="1"/>
        <pt x="1181" y="1197" on="0"/>
        <pt x="1181" y="1092" on="1"/>
        <pt x="1181" y="989" on="1"/>
        <pt x="942" y="989" on="1"/>
        <pt x="942" y="1175" on="1"/>
        <pt x="806" y="1175" on="1"/>
        <pt x="806" y="749" on="1"/>
        <pt x="1049" y="628" on="1"/>
        <pt x="1181" y="562" on="0"/>
        <pt x="1181" y="385" on="1"/>
        <pt x="1181" y="254" on="1"/>
        <pt x="1181" y="147" on="0"/>
        <pt x="1126" y="74" on="1"/>
        <pt x="1072" y="0" on="0"/>
        <pt x="994" y="0" on="1"/>
        <pt x="806" y="0" on="1"/>
        <pt x="806" y="-217" on="1"/>
        <pt x="649" y="-217" on="1"/>
        <pt x="649" y="0" on="1"/>
        <pt x="451" y="0" on="1"/>
        <pt x="373" y="0" on="0"/>
        <pt x="318" y="74" on="1"/>
        <pt x="263" y="149" on="0"/>
        <pt x="263" y="254" on="1"/>
      </contour>
      <contour>
        <pt x="650" y="827" on="1"/>
        <pt x="650" y="1175" on="1"/>
        <pt x="502" y="1175" on="1"/>
        <pt x="502" y="903" on="1"/>
      </contour>
      <contour>
        <pt x="942" y="171" on="1"/>
        <pt x="942" y="462" on="1"/>
        <pt x="806" y="531" on="1"/>
        <pt x="806" y="171" on="1"/>
      </contour>
    </TTGlyph>
    <TTGlyph name="dotaccent" xMin="175" yMin="1459" xMax="508" yMax="1800">
      <component glyphName="dotaccentcmb" x="0" y="0" flags="0x1004"/>
    </TTGlyph>
    <TTGlyph name="dotaccent.cap" xMin="267" yMin="1659" xMax="600" yMax="2000">
      <contour>
        <pt x="433" y="1659" on="1"/>
        <pt x="398" y="1659" on="0"/>
        <pt x="336" y="1683" on="0"/>
        <pt x="314" y="1706" on="1"/>
        <pt x="267" y="1754" on="0"/>
        <pt x="267" y="1900" on="0"/>
        <pt x="314" y="1950" on="1"/>
        <pt x="360" y="2000" on="0"/>
        <pt x="434" y="2000" on="1"/>
        <pt x="504" y="2000" on="0"/>
        <pt x="552" y="1950" on="1"/>
        <pt x="600" y="1900" on="0"/>
        <pt x="600" y="1754" on="0"/>
        <pt x="552" y="1706" on="1"/>
        <pt x="505" y="1659" on="0"/>
      </contour>
    </TTGlyph>
    <TTGlyph name="dotaccentcmb" xMin="175" yMin="1459" xMax="508" yMax="1800">
      <contour>
        <pt x="341" y="1459" on="1"/>
        <pt x="306" y="1459" on="0"/>
        <pt x="244" y="1483" on="0"/>
        <pt x="222" y="1506" on="1"/>
        <pt x="175" y="1554" on="0"/>
        <pt x="175" y="1700" on="0"/>
        <pt x="222" y="1750" on="1"/>
        <pt x="268" y="1800" on="0"/>
        <pt x="342" y="1800" on="1"/>
        <pt x="412" y="1800" on="0"/>
        <pt x="460" y="1750" on="1"/>
        <pt x="508" y="1700" on="0"/>
        <pt x="508" y="1554" on="0"/>
        <pt x="460" y="1506" on="1"/>
        <pt x="413" y="1459" on="0"/>
      </contour>
    </TTGlyph>
    <TTGlyph name="dotaccentcmb.cap" xMin="175" yMin="1659" xMax="508" yMax="2000">
      <component glyphName="dotaccentcmb" x="0" y="200" flags="0x1004"/>
    </TTGlyph>
    <TTGlyph name="dotlessi" xMin="217" yMin="0" xMax="670" yMax="1047">
      <contour>
        <pt x="217" y="1047" on="1"/>
        <pt x="456" y="1047" on="1"/>
        <pt x="456" y="171" on="1"/>
        <pt x="670" y="171" on="1"/>
        <pt x="664" y="100" on="0"/>
        <pt x="612" y="50" on="1"/>
        <pt x="561" y="0" on="0"/>
        <pt x="496" y="0" on="1"/>
        <pt x="408" y="0" on="1"/>
        <pt x="329" y="0" on="0"/>
        <pt x="217" y="149" on="0"/>
        <pt x="217" y="254" on="1"/>
      </contour>
    </TTGlyph>
    <TTGlyph name="dotlessj" xMin="71" yMin="-541" xMax="456" yMax="1047">
      <contour>
        <pt x="217" y="-368" on="1"/>
        <pt x="217" y="1047" on="1"/>
        <pt x="456" y="1047" on="1"/>
        <pt x="456" y="-285" on="1"/>
        <pt x="456" y="-390" on="0"/>
        <pt x="400" y="-466" on="1"/>
        <pt x="345" y="-541" on="0"/>
        <pt x="267" y="-541" on="1"/>
        <pt x="71" y="-541" on="1"/>
        <pt x="71" y="-368" on="1"/>
      </contour>
    </TTGlyph>
    <TTGlyph name="e" xMin="237" yMin="0" xMax="1210" yMax="1047">
      <contour>
        <pt x="237" y="793" on="1"/>
        <pt x="237" y="897" on="0"/>
        <pt x="292" y="972" on="1"/>
        <pt x="348" y="1047" on="0"/>
        <pt x="427" y="1047" on="1"/>
        <pt x="958" y="1047" on="1"/>
        <pt x="1036" y="1047" on="0"/>
        <pt x="1148" y="898" on="0"/>
        <pt x="1148" y="793" on="1"/>
        <pt x="1148" y="460" on="1"/>
        <pt x="476" y="460" on="1"/>
        <pt x="476" y="171" on="1"/>
        <pt x="1210" y="171" on="1"/>
        <pt x="1202" y="99" on="0"/>
        <pt x="1152" y="50" on="1"/>
        <pt x="1100" y="0" on="0"/>
        <pt x="1035" y="0" on="1"/>
        <pt x="427" y="0" on="1"/>
        <pt x="348" y="0" on="0"/>
        <pt x="292" y="74" on="1"/>
        <pt x="237" y="150" on="0"/>
        <pt x="237" y="254" on="1"/>
      </contour>
      <contour>
        <pt x="909" y="600" on="1"/>
        <pt x="909" y="876" on="1"/>
        <pt x="476" y="876" on="1"/>
        <pt x="476" y="600" on="1"/>
      </contour>
    </TTGlyph>
    <TTGlyph name="eacute" xMin="237" yMin="0" xMax="1210" yMax="1672">
      <component glyphName="e" x="0" y="0" flags="0x1204"/>
      <component glyphName="acute" x="111" y="-170" flags="0x1004"/>
    </TTGlyph>
    <TTGlyph name="ebreve" xMin="237" yMin="0" xMax="1210" yMax="1846">
      <component glyphName="e" x="0" y="0" flags="0x1204"/>
      <component glyphName="breve" x="5" y="0" flags="0x1004"/>
    </TTGlyph>
    <TTGlyph name="ecaron" xMin="237" yMin="0" xMax="1210" yMax="1920">
      <component glyphName="e" x="0" y="0" flags="0x1204"/>
      <component glyphName="caron" x="-9" y="0" flags="0x1004"/>
    </TTGlyph>
    <TTGlyph name="ecircumflex" xMin="237" yMin="0" xMax="1210" yMax="1678">
      <component glyphName="e" x="0" y="0" flags="0x1204"/>
      <component glyphName="circumflex" x="-8" y="-170" flags="0x1004"/>
    </TTGlyph>
    <TTGlyph name="edieresis" xMin="237" yMin="0" xMax="1210" yMax="1630">
      <component glyphName="e" x="0" y="0" flags="0x1204"/>
      <component glyphName="dieresis" x="-107" y="-170" flags="0x1004"/>
    </TTGlyph>
    <TTGlyph name="edotaccent" xMin="237" yMin="0" xMax="1210" yMax="1800">
      <component glyphName="e" x="0" y="0" flags="0x1204"/>
      <component glyphName="dotaccentcmb" x="346" y="0" flags="0x1004"/>
    </TTGlyph>
    <TTGlyph name="egrave" xMin="237" yMin="0" xMax="1210" yMax="1672">
      <component glyphName="e" x="0" y="0" flags="0x1204"/>
      <component glyphName="grave" x="78" y="-170" flags="0x1004"/>
    </TTGlyph>
    <TTGlyph name="eight" xMin="271" yMin="0" xMax="1151" yMax="1249">
      <contour>
        <pt x="271" y="393" on="1"/>
        <pt x="271" y="519" on="0"/>
        <pt x="360" y="602" on="1"/>
        <pt x="388" y="627" on="0"/>
        <pt x="421" y="643" on="1"/>
        <pt x="317" y="694" on="0"/>
        <pt x="282" y="814" on="1"/>
        <pt x="271" y="853" on="0"/>
        <pt x="271" y="894" on="1"/>
        <pt x="271" y="995" on="1"/>
        <pt x="271" y="1101" on="0"/>
        <pt x="328" y="1174" on="1"/>
        <pt x="385" y="1249" on="0"/>
        <pt x="462" y="1249" on="1"/>
        <pt x="960" y="1249" on="1"/>
        <pt x="1039" y="1249" on="0"/>
        <pt x="1151" y="1100" on="0"/>
        <pt x="1151" y="995" on="1"/>
        <pt x="1151" y="894" on="1"/>
        <pt x="1151" y="768" on="0"/>
        <pt x="1060" y="684" on="1"/>
        <pt x="1033" y="659" on="0"/>
        <pt x="1001" y="643" on="1"/>
        <pt x="1105" y="588" on="0"/>
        <pt x="1140" y="473" on="1"/>
        <pt x="1151" y="435" on="0"/>
        <pt x="1151" y="393" on="1"/>
        <pt x="1151" y="254" on="1"/>
        <pt x="1151" y="149" on="0"/>
        <pt x="1039" y="0" on="0"/>
        <pt x="960" y="0" on="1"/>
        <pt x="462" y="0" on="1"/>
        <pt x="385" y="0" on="0"/>
        <pt x="328" y="74" on="1"/>
        <pt x="271" y="148" on="0"/>
        <pt x="271" y="254" on="1"/>
      </contour>
      <contour>
        <pt x="911" y="724" on="1"/>
        <pt x="911" y="1078" on="1"/>
        <pt x="510" y="1078" on="1"/>
        <pt x="510" y="724" on="1"/>
      </contour>
      <contour>
        <pt x="911" y="172" on="1"/>
        <pt x="911" y="553" on="1"/>
        <pt x="510" y="553" on="1"/>
        <pt x="510" y="172" on="1"/>
      </contour>
    </TTGlyph>
    <TTGlyph name="ellipsis" xMin="259" yMin="-12" xMax="2306" yMax="325">
      <contour>
        <pt x="1969" y="156" on="1"/>
        <pt x="1969" y="226" on="0"/>
        <pt x="2018" y="275" on="1"/>
        <pt x="2068" y="325" on="0"/>
        <pt x="2137" y="325" on="1"/>
        <pt x="2206" y="325" on="0"/>
        <pt x="2306" y="225" on="0"/>
        <pt x="2306" y="156" on="1"/>
        <pt x="2306" y="87" on="0"/>
        <pt x="2256" y="37" on="1"/>
        <pt x="2207" y="-12" on="0"/>
        <pt x="2067" y="-12" on="0"/>
        <pt x="1969" y="86" on="0"/>
      </contour>
      <contour>
        <pt x="1114" y="156" on="1"/>
        <pt x="1114" y="226" on="0"/>
        <pt x="1163" y="275" on="1"/>
        <pt x="1213" y="325" on="0"/>
        <pt x="1282" y="325" on="1"/>
        <pt x="1351" y="325" on="0"/>
        <pt x="1451" y="225" on="0"/>
        <pt x="1451" y="156" on="1"/>
        <pt x="1451" y="87" on="0"/>
        <pt x="1401" y="37" on="1"/>
        <pt x="1352" y="-12" on="0"/>
        <pt x="1212" y="-12" on="0"/>
        <pt x="1114" y="86" on="0"/>
      </contour>
      <contour>
        <pt x="259" y="156" on="1"/>
        <pt x="259" y="226" on="0"/>
        <pt x="308" y="275" on="1"/>
        <pt x="358" y="325" on="0"/>
        <pt x="427" y="325" on="1"/>
        <pt x="496" y="325" on="0"/>
        <pt x="596" y="225" on="0"/>
        <pt x="596" y="156" on="1"/>
        <pt x="596" y="87" on="0"/>
        <pt x="546" y="37" on="1"/>
        <pt x="497" y="-12" on="0"/>
        <pt x="357" y="-12" on="0"/>
        <pt x="259" y="86" on="0"/>
      </contour>
    </TTGlyph>
    <TTGlyph name="emacron" xMin="237" yMin="0" xMax="1210" yMax="1570">
      <component glyphName="e" x="0" y="0" flags="0x1204"/>
      <component glyphName="macron" x="-2" y="0" flags="0x1004"/>
    </TTGlyph>
    <TTGlyph name="emdash" xMin="180" yMin="533" xMax="1991" yMax="704">
      <contour>
        <pt x="180" y="533" on="1"/>
        <pt x="186" y="602" on="0"/>
        <pt x="238" y="654" on="1"/>
        <pt x="288" y="704" on="0"/>
        <pt x="355" y="704" on="1"/>
        <pt x="1991" y="704" on="1"/>
        <pt x="1985" y="634" on="0"/>
        <pt x="1934" y="583" on="1"/>
        <pt x="1884" y="533" on="0"/>
        <pt x="1817" y="533" on="1"/>
      </contour>
    </TTGlyph>
    <TTGlyph name="endash" xMin="184" yMin="533" xMax="1576" yMax="704">
      <contour>
        <pt x="184" y="533" on="1"/>
        <pt x="190" y="602" on="0"/>
        <pt x="242" y="654" on="1"/>
        <pt x="292" y="704" on="0"/>
        <pt x="359" y="704" on="1"/>
        <pt x="1576" y="704" on="1"/>
        <pt x="1568" y="632" on="0"/>
        <pt x="1518" y="583" on="1"/>
        <pt x="1466" y="533" on="0"/>
        <pt x="1401" y="533" on="1"/>
      </contour>
    </TTGlyph>
    <TTGlyph name="equal" xMin="290" yMin="181" xMax="1164" yMax="859">
      <contour>
        <pt x="290" y="859" on="1"/>
        <pt x="1164" y="859" on="1"/>
        <pt x="1164" y="683" on="1"/>
        <pt x="290" y="683" on="1"/>
      </contour>
      <contour>
        <pt x="290" y="356" on="1"/>
        <pt x="1164" y="356" on="1"/>
        <pt x="1164" y="181" on="1"/>
        <pt x="290" y="181" on="1"/>
      </contour>
    </TTGlyph>
    <TTGlyph name="eth" xMin="237" yMin="0" xMax="1139" yMax="1593">
      <contour>
        <pt x="237" y="706" on="1"/>
        <pt x="237" y="811" on="0"/>
        <pt x="292" y="886" on="1"/>
        <pt x="347" y="960" on="0"/>
        <pt x="425" y="960" on="1"/>
        <pt x="794" y="960" on="1"/>
        <pt x="587" y="1245" on="1"/>
        <pt x="263" y="1133" on="1"/>
        <pt x="263" y="1294" on="1"/>
        <pt x="494" y="1373" on="1"/>
        <pt x="335" y="1593" on="1"/>
        <pt x="604" y="1593" on="1"/>
        <pt x="710" y="1448" on="1"/>
        <pt x="1035" y="1560" on="1"/>
        <pt x="1035" y="1399" on="1"/>
        <pt x="804" y="1319" on="1"/>
        <pt x="1087" y="933" on="1"/>
        <pt x="1139" y="857" on="0"/>
        <pt x="1139" y="758" on="1"/>
        <pt x="1138" y="252" on="1"/>
        <pt x="1138" y="147" on="0"/>
        <pt x="1082" y="74" on="1"/>
        <pt x="1025" y="0" on="0"/>
        <pt x="948" y="0" on="1"/>
        <pt x="425" y="0" on="1"/>
        <pt x="348" y="0" on="0"/>
        <pt x="237" y="148" on="0"/>
        <pt x="237" y="252" on="1"/>
      </contour>
      <contour>
        <pt x="910" y="171" on="1"/>
        <pt x="910" y="789" on="1"/>
        <pt x="466" y="789" on="1"/>
        <pt x="466" y="171" on="1"/>
      </contour>
    </TTGlyph>
    <TTGlyph name="exclam" xMin="259" yMin="-11" xMax="596" yMax="1543">
      <contour>
        <pt x="268" y="1282" on="1"/>
        <pt x="262" y="1324" on="0"/>
        <pt x="262" y="1393" on="0"/>
        <pt x="287" y="1462" on="0"/>
        <pt x="308" y="1488" on="1"/>
        <pt x="355" y="1543" on="0"/>
        <pt x="422" y="1543" on="1"/>
        <pt x="490" y="1543" on="0"/>
        <pt x="538" y="1488" on="1"/>
        <pt x="586" y="1435" on="0"/>
        <pt x="586" y="1356" on="1"/>
        <pt x="586" y="1324" on="0"/>
        <pt x="581" y="1279" on="1"/>
        <pt x="480" y="505" on="1"/>
        <pt x="365" y="505" on="1"/>
      </contour>
      <contour>
        <pt x="259" y="157" on="1"/>
        <pt x="259" y="227" on="0"/>
        <pt x="308" y="276" on="1"/>
        <pt x="358" y="326" on="0"/>
        <pt x="427" y="326" on="1"/>
        <pt x="496" y="326" on="0"/>
        <pt x="596" y="226" on="0"/>
        <pt x="596" y="157" on="1"/>
        <pt x="596" y="88" on="0"/>
        <pt x="546" y="38" on="1"/>
        <pt x="497" y="-11" on="0"/>
        <pt x="357" y="-11" on="0"/>
        <pt x="259" y="87" on="0"/>
      </contour>
    </TTGlyph>
    <TTGlyph name="exclamdown" xMin="259" yMin="-11" xMax="596" yMax="1543">
      <contour>
        <pt x="426" y="1206" on="1"/>
        <pt x="392" y="1206" on="0"/>
        <pt x="331" y="1232" on="0"/>
        <pt x="308" y="1255" on="1"/>
        <pt x="259" y="1304" on="0"/>
        <pt x="259" y="1374" on="1"/>
        <pt x="259" y="1444" on="0"/>
        <pt x="308" y="1493" on="1"/>
        <pt x="358" y="1543" on="0"/>
        <pt x="427" y="1543" on="1"/>
        <pt x="496" y="1543" on="0"/>
        <pt x="596" y="1443" on="0"/>
        <pt x="596" y="1374" on="1"/>
        <pt x="596" y="1305" on="0"/>
        <pt x="546" y="1255" on="1"/>
        <pt x="497" y="1206" on="0"/>
      </contour>
      <contour>
        <pt x="268" y="250" on="1"/>
        <pt x="365" y="1027" on="1"/>
        <pt x="480" y="1027" on="1"/>
        <pt x="581" y="253" on="1"/>
        <pt x="586" y="208" on="0"/>
        <pt x="586" y="137" on="0"/>
        <pt x="561" y="69" on="0"/>
        <pt x="538" y="44" on="1"/>
        <pt x="490" y="-11" on="0"/>
        <pt x="422" y="-11" on="1"/>
        <pt x="355" y="-11" on="0"/>
        <pt x="308" y="44" on="1"/>
        <pt x="262" y="100" on="0"/>
        <pt x="262" y="208" on="0"/>
      </contour>
    </TTGlyph>
    <TTGlyph name="f" xMin="213" yMin="-525" xMax="861" yMax="1591">
      <contour>
        <pt x="531" y="-269" on="1"/>
        <pt x="531" y="-375" on="0"/>
        <pt x="472" y="-450" on="1"/>
        <pt x="411" y="-525" on="0"/>
        <pt x="329" y="-525" on="1"/>
        <pt x="293" y="-525" on="1"/>
        <pt x="293" y="894" on="1"/>
        <pt x="213" y="894" on="1"/>
        <pt x="213" y="1048" on="1"/>
        <pt x="293" y="1048" on="1"/>
        <pt x="293" y="1336" on="1"/>
        <pt x="293" y="1441" on="0"/>
        <pt x="348" y="1516" on="1"/>
        <pt x="404" y="1591" on="0"/>
        <pt x="483" y="1591" on="1"/>
        <pt x="861" y="1591" on="1"/>
        <pt x="861" y="1417" on="1"/>
        <pt x="531" y="1417" on="1"/>
        <pt x="531" y="1048" on="1"/>
        <pt x="777" y="1048" on="1"/>
        <pt x="777" y="894" on="1"/>
        <pt x="531" y="894" on="1"/>
      </contour>
    </TTGlyph>
    <TTGlyph name="ff" xMin="213" yMin="-525" xMax="1713" yMax="1591">
      <contour>
        <pt x="531" y="-269" on="1"/>
        <pt x="531" y="-375" on="0"/>
        <pt x="472" y="-450" on="1"/>
        <pt x="411" y="-525" on="0"/>
        <pt x="329" y="-525" on="1"/>
        <pt x="293" y="-525" on="1"/>
        <pt x="293" y="894" on="1"/>
        <pt x="213" y="894" on="1"/>
        <pt x="213" y="1048" on="1"/>
        <pt x="293" y="1048" on="1"/>
        <pt x="293" y="1336" on="1"/>
        <pt x="293" y="1441" on="0"/>
        <pt x="348" y="1516" on="1"/>
        <pt x="404" y="1591" on="0"/>
        <pt x="483" y="1591" on="1"/>
        <pt x="861" y="1591" on="1"/>
        <pt x="861" y="1417" on="1"/>
        <pt x="531" y="1417" on="1"/>
        <pt x="531" y="1048" on="1"/>
        <pt x="1145" y="1048" on="1"/>
        <pt x="1145" y="1336" on="1"/>
        <pt x="1145" y="1441" on="0"/>
        <pt x="1200" y="1516" on="1"/>
        <pt x="1256" y="1591" on="0"/>
        <pt x="1335" y="1591" on="1"/>
        <pt x="1713" y="1591" on="1"/>
        <pt x="1713" y="1417" on="1"/>
        <pt x="1383" y="1417" on="1"/>
        <pt x="1383" y="1048" on="1"/>
        <pt x="1629" y="1048" on="1"/>
        <pt x="1629" y="894" on="1"/>
        <pt x="1383" y="894" on="1"/>
        <pt x="1383" y="-269" on="1"/>
        <pt x="1383" y="-375" on="0"/>
        <pt x="1324" y="-450" on="1"/>
        <pt x="1263" y="-525" on="0"/>
        <pt x="1181" y="-525" on="1"/>
        <pt x="1145" y="-525" on="1"/>
        <pt x="1145" y="894" on="1"/>
        <pt x="531" y="894" on="1"/>
      </contour>
    </TTGlyph>
    <TTGlyph name="ffl" xMin="213" yMin="-525" xMax="2373" yMax="1591">
      <contour>
        <pt x="531" y="-269" on="1"/>
        <pt x="531" y="-375" on="0"/>
        <pt x="472" y="-450" on="1"/>
        <pt x="411" y="-525" on="0"/>
        <pt x="329" y="-525" on="1"/>
        <pt x="293" y="-525" on="1"/>
        <pt x="293" y="894" on="1"/>
        <pt x="213" y="894" on="1"/>
        <pt x="213" y="1048" on="1"/>
        <pt x="293" y="1048" on="1"/>
        <pt x="293" y="1336" on="1"/>
        <pt x="293" y="1441" on="0"/>
        <pt x="348" y="1516" on="1"/>
        <pt x="404" y="1591" on="0"/>
        <pt x="483" y="1591" on="1"/>
        <pt x="861" y="1591" on="1"/>
        <pt x="861" y="1417" on="1"/>
        <pt x="531" y="1417" on="1"/>
        <pt x="531" y="1048" on="1"/>
        <pt x="1145" y="1048" on="1"/>
        <pt x="1145" y="1336" on="1"/>
        <pt x="1145" y="1441" on="0"/>
        <pt x="1200" y="1516" on="1"/>
        <pt x="1256" y="1591" on="0"/>
        <pt x="1335" y="1591" on="1"/>
        <pt x="2160" y="1591" on="1"/>
        <pt x="2160" y="171" on="1"/>
        <pt x="2373" y="171" on="1"/>
        <pt x="2355" y="49" on="0"/>
        <pt x="2258" y="12" on="1"/>
        <pt x="2228" y="0" on="0"/>
        <pt x="2196" y="0" on="1"/>
        <pt x="2112" y="0" on="1"/>
        <pt x="2033" y="0" on="0"/>
        <pt x="1921" y="149" on="0"/>
        <pt x="1921" y="254" on="1"/>
        <pt x="1921" y="1417" on="1"/>
        <pt x="1383" y="1417" on="1"/>
        <pt x="1383" y="1048" on="1"/>
        <pt x="1629" y="1048" on="1"/>
        <pt x="1629" y="894" on="1"/>
        <pt x="1383" y="894" on="1"/>
        <pt x="1383" y="-269" on="1"/>
        <pt x="1383" y="-375" on="0"/>
        <pt x="1324" y="-450" on="1"/>
        <pt x="1263" y="-525" on="0"/>
        <pt x="1181" y="-525" on="1"/>
        <pt x="1145" y="-525" on="1"/>
        <pt x="1145" y="894" on="1"/>
        <pt x="531" y="894" on="1"/>
      </contour>
    </TTGlyph>
    <TTGlyph name="fi" xMin="213" yMin="-525" xMax="1623" yMax="1626">
      <contour>
        <pt x="1286" y="1289" on="1"/>
        <pt x="1252" y="1289" on="0"/>
        <pt x="1191" y="1315" on="0"/>
        <pt x="1168" y="1338" on="1"/>
        <pt x="1119" y="1387" on="0"/>
        <pt x="1119" y="1457" on="1"/>
        <pt x="1119" y="1527" on="0"/>
        <pt x="1168" y="1576" on="1"/>
        <pt x="1218" y="1626" on="0"/>
        <pt x="1287" y="1626" on="1"/>
        <pt x="1356" y="1626" on="0"/>
        <pt x="1456" y="1526" on="0"/>
        <pt x="1456" y="1457" on="1"/>
        <pt x="1456" y="1388" on="0"/>
        <pt x="1406" y="1338" on="1"/>
        <pt x="1357" y="1289" on="0"/>
      </contour>
      <contour>
        <pt x="531" y="-269" on="1"/>
        <pt x="531" y="-375" on="0"/>
        <pt x="472" y="-450" on="1"/>
        <pt x="411" y="-525" on="0"/>
        <pt x="329" y="-525" on="1"/>
        <pt x="293" y="-525" on="1"/>
        <pt x="293" y="894" on="1"/>
        <pt x="213" y="894" on="1"/>
        <pt x="213" y="1048" on="1"/>
        <pt x="293" y="1048" on="1"/>
        <pt x="293" y="1336" on="1"/>
        <pt x="293" y="1441" on="0"/>
        <pt x="348" y="1516" on="1"/>
        <pt x="404" y="1591" on="0"/>
        <pt x="483" y="1591" on="1"/>
        <pt x="807" y="1591" on="1"/>
        <pt x="807" y="1417" on="1"/>
        <pt x="531" y="1417" on="1"/>
        <pt x="531" y="1048" on="1"/>
        <pt x="1409" y="1048" on="1"/>
        <pt x="1409" y="171" on="1"/>
        <pt x="1623" y="171" on="1"/>
        <pt x="1617" y="100" on="0"/>
        <pt x="1566" y="50" on="1"/>
        <pt x="1514" y="0" on="0"/>
        <pt x="1449" y="0" on="1"/>
        <pt x="1361" y="0" on="1"/>
        <pt x="1282" y="0" on="0"/>
        <pt x="1170" y="149" on="0"/>
        <pt x="1170" y="254" on="1"/>
        <pt x="1170" y="894" on="1"/>
        <pt x="531" y="894" on="1"/>
      </contour>
    </TTGlyph>
    <TTGlyph name="five" xMin="297" yMin="0" xMax="1128" yMax="1250">
      <contour>
        <pt x="297" y="360" on="1"/>
        <pt x="534" y="360" on="1"/>
        <pt x="534" y="172" on="1"/>
        <pt x="891" y="172" on="1"/>
        <pt x="891" y="638" on="1"/>
        <pt x="297" y="638" on="1"/>
        <pt x="297" y="1250" on="1"/>
        <pt x="1093" y="1250" on="1"/>
        <pt x="1093" y="1078" on="1"/>
        <pt x="534" y="1078" on="1"/>
        <pt x="534" y="809" on="1"/>
        <pt x="939" y="809" on="1"/>
        <pt x="1016" y="809" on="0"/>
        <pt x="1072" y="734" on="1"/>
        <pt x="1128" y="659" on="0"/>
        <pt x="1128" y="552" on="1"/>
        <pt x="1128" y="254" on="1"/>
        <pt x="1128" y="149" on="0"/>
        <pt x="1016" y="0" on="0"/>
        <pt x="939" y="0" on="1"/>
        <pt x="487" y="0" on="1"/>
        <pt x="408" y="0" on="0"/>
        <pt x="352" y="74" on="1"/>
        <pt x="297" y="150" on="0"/>
        <pt x="297" y="254" on="1"/>
      </contour>
    </TTGlyph>
    <TTGlyph name="fl" xMin="213" yMin="-525" xMax="1621" yMax="1591">
      <contour>
        <pt x="531" y="-269" on="1"/>
        <pt x="531" y="-375" on="0"/>
        <pt x="472" y="-450" on="1"/>
        <pt x="411" y="-525" on="0"/>
        <pt x="329" y="-525" on="1"/>
        <pt x="293" y="-525" on="1"/>
        <pt x="293" y="894" on="1"/>
        <pt x="213" y="894" on="1"/>
        <pt x="213" y="1048" on="1"/>
        <pt x="293" y="1048" on="1"/>
        <pt x="293" y="1336" on="1"/>
        <pt x="293" y="1441" on="0"/>
        <pt x="348" y="1516" on="1"/>
        <pt x="404" y="1591" on="0"/>
        <pt x="483" y="1591" on="1"/>
        <pt x="1408" y="1591" on="1"/>
        <pt x="1408" y="171" on="1"/>
        <pt x="1621" y="171" on="1"/>
        <pt x="1603" y="49" on="0"/>
        <pt x="1506" y="12" on="1"/>
        <pt x="1476" y="0" on="0"/>
        <pt x="1444" y="0" on="1"/>
        <pt x="1360" y="0" on="1"/>
        <pt x="1281" y="0" on="0"/>
        <pt x="1169" y="149" on="0"/>
        <pt x="1169" y="254" on="1"/>
        <pt x="1169" y="1417" on="1"/>
        <pt x="531" y="1417" on="1"/>
        <pt x="531" y="1048" on="1"/>
        <pt x="777" y="1048" on="1"/>
        <pt x="777" y="894" on="1"/>
        <pt x="531" y="894" on="1"/>
      </contour>
    </TTGlyph>
    <TTGlyph name="florin" xMin="63" yMin="-525" xMax="950" yMax="1591">
      <contour>
        <pt x="339" y="-269" on="1"/>
        <pt x="323" y="-375" on="0"/>
        <pt x="252" y="-450" on="1"/>
        <pt x="181" y="-525" on="0"/>
        <pt x="99" y="-525" on="1"/>
        <pt x="63" y="-525" on="1"/>
        <pt x="277" y="894" on="1"/>
        <pt x="197" y="894" on="1"/>
        <pt x="220" y="1048" on="1"/>
        <pt x="300" y="1048" on="1"/>
        <pt x="344" y="1336" on="1"/>
        <pt x="360" y="1441" on="0"/>
        <pt x="426" y="1516" on="1"/>
        <pt x="492" y="1591" on="0"/>
        <pt x="572" y="1591" on="1"/>
        <pt x="950" y="1591" on="1"/>
        <pt x="924" y="1417" on="1"/>
        <pt x="594" y="1417" on="1"/>
        <pt x="538" y="1048" on="1"/>
        <pt x="784" y="1048" on="1"/>
        <pt x="761" y="894" on="1"/>
        <pt x="515" y="894" on="1"/>
      </contour>
    </TTGlyph>
    <TTGlyph name="foundryicon" xMin="193" yMin="231" xMax="2725" yMax="1287">
      <contour>
        <pt x="392" y="232" on="1"/>
        <pt x="309" y="232" on="0"/>
        <pt x="193" y="348" on="0"/>
        <pt x="193" y="431" on="1"/>
        <pt x="193" y="1088" on="1"/>
        <pt x="193" y="1171" on="0"/>
        <pt x="309" y="1287" on="0"/>
        <pt x="392" y="1287" on="1"/>
        <pt x="1248" y="1287" on="1"/>
        <pt x="1329" y="1287" on="0"/>
        <pt x="1388" y="1228" on="1"/>
        <pt x="1446" y="1170" on="0"/>
        <pt x="1446" y="1088" on="1"/>
        <pt x="1446" y="436" on="1"/>
        <pt x="1446" y="348" on="0"/>
        <pt x="1384" y="288" on="1"/>
        <pt x="1326" y="232" on="0"/>
        <pt x="1251" y="232" on="1"/>
      </contour>
      <contour>
        <pt x="2421" y="1014" on="1"/>
        <pt x="2372" y="1014" on="0"/>
        <pt x="2346" y="1055" on="1"/>
        <pt x="2346" y="545" on="1"/>
        <pt x="2206" y="545" on="1"/>
        <pt x="2206" y="1284" on="1"/>
        <pt x="2636" y="1285" on="1"/>
        <pt x="2672" y="1285" on="0"/>
        <pt x="2724" y="1234" on="0"/>
        <pt x="2724" y="1198" on="1"/>
        <pt x="2724" y="1100" on="1"/>
        <pt x="2724" y="1044" on="0"/>
        <pt x="2670" y="1020" on="1"/>
        <pt x="2654" y="1013" on="0"/>
        <pt x="2636" y="1013" on="1"/>
      </contour>
      <contour>
        <pt x="2024" y="1055" on="1"/>
        <pt x="2008" y="1014" on="0"/>
        <pt x="1955" y="1014" on="1"/>
        <pt x="1926" y="1014" on="1"/>
        <pt x="1869" y="1014" on="0"/>
        <pt x="1846" y="1068" on="1"/>
        <pt x="1840" y="1083" on="0"/>
        <pt x="1840" y="1101" on="1"/>
        <pt x="1840" y="1284" on="1"/>
        <pt x="1978" y="1284" on="1"/>
        <pt x="1978" y="1128" on="1"/>
        <pt x="2024" y="1128" on="1"/>
        <pt x="2024" y="1284" on="1"/>
        <pt x="2164" y="1284" on="1"/>
        <pt x="2164" y="632" on="1"/>
        <pt x="2164" y="596" on="0"/>
        <pt x="2114" y="545" on="0"/>
        <pt x="2077" y="545" on="1"/>
        <pt x="1735" y="545" on="1"/>
        <pt x="1701" y="545" on="0"/>
        <pt x="1681" y="564" on="1"/>
        <pt x="1648" y="595" on="0"/>
        <pt x="1648" y="632" on="1"/>
        <pt x="1648" y="654" on="1"/>
        <pt x="2024" y="654" on="1"/>
        <pt x="2024" y="773" on="1"/>
        <pt x="2019" y="742" on="0"/>
        <pt x="1971" y="700" on="0"/>
        <pt x="1938" y="700" on="1"/>
        <pt x="1734" y="700" on="1"/>
        <pt x="1679" y="700" on="0"/>
        <pt x="1655" y="754" on="1"/>
        <pt x="1648" y="769" on="0"/>
        <pt x="1648" y="787" on="1"/>
        <pt x="1648" y="857" on="1"/>
        <pt x="1615" y="857" on="1"/>
        <pt x="1615" y="967" on="1"/>
        <pt x="1648" y="967" on="1"/>
        <pt x="1648" y="1238" on="1"/>
        <pt x="1787" y="1284" on="1"/>
        <pt x="1787" y="967" on="1"/>
        <pt x="1981" y="967" on="1"/>
        <pt x="1981" y="857" on="1"/>
        <pt x="1787" y="857" on="1"/>
        <pt x="1787" y="810" on="1"/>
        <pt x="2024" y="810" on="1"/>
      </contour>
      <contour>
        <pt x="2584" y="1128" on="1"/>
        <pt x="2584" y="1176" on="1"/>
        <pt x="2346" y="1176" on="1"/>
        <pt x="2346" y="1128" on="1"/>
      </contour>
      <contour>
        <pt x="963" y="593" on="1"/>
        <pt x="963" y="518" on="0"/>
        <pt x="1016" y="488" on="1"/>
        <pt x="1031" y="479" on="0"/>
        <pt x="1049" y="479" on="1"/>
        <pt x="1161" y="479" on="1"/>
        <pt x="1190" y="479" on="0"/>
        <pt x="1235" y="523" on="0"/>
        <pt x="1240" y="555" on="1"/>
        <pt x="1071" y="555" on="1"/>
        <pt x="1071" y="878" on="1"/>
        <pt x="1200" y="878" on="1"/>
        <pt x="1200" y="947" on="1"/>
        <pt x="1071" y="947" on="1"/>
        <pt x="1071" y="1124" on="1"/>
        <pt x="963" y="1071" on="1"/>
        <pt x="963" y="947" on="1"/>
        <pt x="886" y="947" on="1"/>
        <pt x="886" y="878" on="1"/>
        <pt x="963" y="878" on="1"/>
      </contour>
      <contour>
        <pt x="479" y="479" on="1"/>
        <pt x="613" y="847" on="1"/>
        <pt x="620" y="804" on="0"/>
        <pt x="677" y="739" on="0"/>
        <pt x="708" y="688" on="0"/>
        <pt x="708" y="652" on="0"/>
        <pt x="708" y="648" on="1"/>
        <pt x="704" y="601" on="0"/>
        <pt x="657" y="560" on="0"/>
        <pt x="628" y="557" on="1"/>
        <pt x="620" y="479" on="0"/>
        <pt x="695" y="479" on="1"/>
        <pt x="822" y="479" on="1"/>
        <pt x="850" y="479" on="0"/>
        <pt x="894" y="522" on="0"/>
        <pt x="903" y="557" on="1"/>
        <pt x="737" y="557" on="1"/>
        <pt x="771" y="566" on="0"/>
        <pt x="819" y="623" on="0"/>
        <pt x="822" y="687" on="0"/>
        <pt x="807" y="736" on="0"/>
        <pt x="794" y="758" on="1"/>
        <pt x="771" y="801" on="0"/>
        <pt x="743" y="824" on="1"/>
        <pt x="700" y="859" on="1"/>
        <pt x="634" y="911" on="0"/>
        <pt x="659" y="973" on="1"/>
        <pt x="556" y="973" on="1"/>
        <pt x="373" y="479" on="1"/>
      </contour>
      <contour>
        <pt x="2390" y="879" on="1"/>
        <pt x="2390" y="936" on="0"/>
        <pt x="2444" y="960" on="1"/>
        <pt x="2460" y="967" on="0"/>
        <pt x="2477" y="967" on="1"/>
        <pt x="2637" y="967" on="1"/>
        <pt x="2673" y="967" on="0"/>
        <pt x="2725" y="916" on="0"/>
        <pt x="2725" y="879" on="1"/>
        <pt x="2725" y="701" on="1"/>
        <pt x="2531" y="701" on="1"/>
        <pt x="2531" y="654" on="1"/>
        <pt x="2725" y="654" on="1"/>
        <pt x="2725" y="632" on="1"/>
        <pt x="2725" y="596" on="0"/>
        <pt x="2673" y="545" on="0"/>
        <pt x="2637" y="545" on="1"/>
        <pt x="2477" y="545" on="1"/>
        <pt x="2442" y="545" on="0"/>
        <pt x="2390" y="595" on="0"/>
        <pt x="2390" y="632" on="1"/>
      </contour>
      <contour>
        <pt x="2585" y="810" on="1"/>
        <pt x="2585" y="857" on="1"/>
        <pt x="2531" y="857" on="1"/>
        <pt x="2531" y="810" on="1"/>
      </contour>
      <contour>
        <pt x="1647" y="409" on="1"/>
        <pt x="1647" y="465" on="0"/>
        <pt x="1700" y="489" on="1"/>
        <pt x="1716" y="496" on="0"/>
        <pt x="1734" y="496" on="1"/>
        <pt x="2072" y="496" on="1"/>
        <pt x="2109" y="496" on="0"/>
        <pt x="2159" y="445" on="0"/>
        <pt x="2159" y="409" on="1"/>
        <pt x="2159" y="387" on="1"/>
        <pt x="1787" y="387" on="1"/>
        <pt x="1787" y="340" on="1"/>
        <pt x="2207" y="340" on="1"/>
        <pt x="2207" y="410" on="1"/>
        <pt x="2207" y="444" on="0"/>
        <pt x="2226" y="464" on="1"/>
        <pt x="2257" y="497" on="0"/>
        <pt x="2293" y="497" on="1"/>
        <pt x="2637" y="497" on="1"/>
        <pt x="2694" y="497" on="0"/>
        <pt x="2718" y="444" on="1"/>
        <pt x="2725" y="428" on="0"/>
        <pt x="2725" y="410" on="1"/>
        <pt x="2725" y="318" on="1"/>
        <pt x="2725" y="282" on="0"/>
        <pt x="2673" y="231" on="0"/>
        <pt x="2637" y="231" on="1"/>
        <pt x="2293" y="231" on="1"/>
        <pt x="2258" y="231" on="0"/>
        <pt x="2208" y="280" on="0"/>
        <pt x="2207" y="315" on="1"/>
        <pt x="2204" y="260" on="0"/>
        <pt x="2154" y="238" on="1"/>
        <pt x="2138" y="232" on="0"/>
        <pt x="2120" y="232" on="1"/>
        <pt x="1734" y="231" on="1"/>
        <pt x="1700" y="231" on="0"/>
        <pt x="1680" y="250" on="1"/>
        <pt x="1647" y="281" on="0"/>
        <pt x="1647" y="318" on="1"/>
      </contour>
      <contour>
        <pt x="2585" y="340" on="1"/>
        <pt x="2585" y="387" on="1"/>
        <pt x="2347" y="387" on="1"/>
        <pt x="2347" y="340" on="1"/>
      </contour>
    </TTGlyph>
    <TTGlyph name="four" xMin="193" yMin="0" xMax="1272" yMax="1250">
      <contour>
        <pt x="193" y="399" on="1"/>
        <pt x="193" y="399" on="0"/>
        <pt x="488" y="1250" on="1"/>
        <pt x="733" y="1250" on="1"/>
        <pt x="435" y="384" on="1"/>
        <pt x="826" y="384" on="1"/>
        <pt x="826" y="846" on="1"/>
        <pt x="1064" y="846" on="1"/>
        <pt x="1064" y="384" on="1"/>
        <pt x="1272" y="384" on="1"/>
        <pt x="1272" y="214" on="1"/>
        <pt x="1064" y="214" on="1"/>
        <pt x="1064" y="0" on="1"/>
        <pt x="826" y="0" on="1"/>
        <pt x="826" y="214" on="1"/>
        <pt x="193" y="214" on="1"/>
      </contour>
    </TTGlyph>
    <TTGlyph name="fraction" xMin="215" yMin="-59" xMax="912" yMax="1311">
      <contour>
        <pt x="740" y="1311" on="1"/>
        <pt x="912" y="1311" on="1"/>
        <pt x="386" y="-59" on="1"/>
        <pt x="215" y="-59" on="1"/>
      </contour>
    </TTGlyph>
    <TTGlyph name="g" xMin="237" yMin="-541" xMax="1338" yMax="1047">
      <contour>
        <pt x="888" y="111" on="1"/>
        <pt x="826" y="0" on="0"/>
        <pt x="729" y="0" on="1"/>
        <pt x="427" y="0" on="1"/>
        <pt x="348" y="0" on="0"/>
        <pt x="292" y="74" on="1"/>
        <pt x="237" y="150" on="0"/>
        <pt x="237" y="254" on="1"/>
        <pt x="237" y="793" on="1"/>
        <pt x="237" y="897" on="0"/>
        <pt x="292" y="972" on="1"/>
        <pt x="348" y="1047" on="0"/>
        <pt x="427" y="1047" on="1"/>
        <pt x="1127" y="1047" on="1"/>
        <pt x="1127" y="171" on="1"/>
        <pt x="1338" y="171" on="1"/>
        <pt x="1330" y="99" on="0"/>
        <pt x="1280" y="50" on="1"/>
        <pt x="1228" y="0" on="0"/>
        <pt x="1163" y="0" on="1"/>
        <pt x="1127" y="0" on="1"/>
        <pt x="1127" y="-285" on="1"/>
        <pt x="1127" y="-391" on="0"/>
        <pt x="1071" y="-466" on="1"/>
        <pt x="1014" y="-541" on="0"/>
        <pt x="938" y="-541" on="1"/>
        <pt x="453" y="-541" on="1"/>
        <pt x="453" y="-368" on="1"/>
        <pt x="888" y="-368" on="1"/>
      </contour>
      <contour>
        <pt x="888" y="171" on="1"/>
        <pt x="888" y="876" on="1"/>
        <pt x="475" y="876" on="1"/>
        <pt x="475" y="171" on="1"/>
      </contour>
    </TTGlyph>
    <TTGlyph name="gbreve" xMin="237" yMin="-541" xMax="1338" yMax="1846">
      <component glyphName="g" x="0" y="0" flags="0x1204"/>
      <component glyphName="breve" x="-35" y="0" flags="0x1004"/>
    </TTGlyph>
    <TTGlyph name="gcircumflex" xMin="226" yMin="-541" xMax="1338" yMax="1848">
      <component glyphName="g" x="0" y="0" flags="0x1204"/>
      <component glyphName="circumflex" x="-60" y="0" flags="0x1004"/>
    </TTGlyph>
    <TTGlyph name="gcommaaccent" xMin="237" yMin="-541" xMax="1338" yMax="1824">
      <component glyphName="g" x="0" y="0" flags="0x1204"/>
      <component glyphName="commaaccent" x="1218" y="1268" scale="-0.999938964844" flags="0x1004"/>
    </TTGlyph>
    <TTGlyph name="gdotaccent" xMin="237" yMin="-541" xMax="1338" yMax="1800">
      <component glyphName="g" x="0" y="0" flags="0x1204"/>
      <component glyphName="dotaccentcmb" x="305" y="0" flags="0x1004"/>
    </TTGlyph>
    <TTGlyph name="germandbls" xMin="266" yMin="0" xMax="1269" yMax="1591">
      <contour>
        <pt x="1081" y="1131" on="1"/>
        <pt x="1081" y="989" on="0"/>
        <pt x="968" y="909" on="1"/>
        <pt x="1067" y="889" on="0"/>
        <pt x="1124" y="804" on="1"/>
        <pt x="1174" y="731" on="0"/>
        <pt x="1174" y="645" on="1"/>
        <pt x="1174" y="416" on="1"/>
        <pt x="1174" y="320" on="0"/>
        <pt x="1123" y="246" on="1"/>
        <pt x="1078" y="180" on="0"/>
        <pt x="1026" y="171" on="1"/>
        <pt x="1269" y="171" on="1"/>
        <pt x="1263" y="101" on="0"/>
        <pt x="1212" y="50" on="1"/>
        <pt x="1162" y="0" on="0"/>
        <pt x="1094" y="0" on="1"/>
        <pt x="676" y="0" on="1"/>
        <pt x="682" y="70" on="0"/>
        <pt x="734" y="120" on="1"/>
        <pt x="786" y="171" on="0"/>
        <pt x="851" y="171" on="1"/>
        <pt x="932" y="171" on="1"/>
        <pt x="932" y="806" on="1"/>
        <pt x="712" y="806" on="1"/>
        <pt x="712" y="977" on="1"/>
        <pt x="839" y="977" on="1"/>
        <pt x="839" y="1423" on="1"/>
        <pt x="504" y="1423" on="1"/>
        <pt x="504" y="0" on="1"/>
        <pt x="266" y="0" on="1"/>
        <pt x="266" y="1336" on="1"/>
        <pt x="266" y="1441" on="0"/>
        <pt x="322" y="1516" on="1"/>
        <pt x="377" y="1591" on="0"/>
        <pt x="456" y="1591" on="1"/>
        <pt x="876" y="1591" on="1"/>
        <pt x="957" y="1591" on="0"/>
        <pt x="1018" y="1518" on="1"/>
        <pt x="1081" y="1443" on="0"/>
        <pt x="1081" y="1339" on="1"/>
      </contour>
    </TTGlyph>
    <TTGlyph name="grave" xMin="211" yMin="1430" xMax="820" yMax="1842">
      <contour>
        <pt x="335" y="1543" on="1"/>
        <pt x="265" y="1562" on="0"/>
        <pt x="230" y="1624" on="1"/>
        <pt x="211" y="1659" on="0"/>
        <pt x="211" y="1727" on="0"/>
        <pt x="225" y="1758" on="1"/>
        <pt x="263" y="1842" on="0"/>
        <pt x="345" y="1842" on="1"/>
        <pt x="392" y="1842" on="0"/>
        <pt x="439" y="1809" on="1"/>
        <pt x="820" y="1535" on="1"/>
        <pt x="759" y="1430" on="1"/>
      </contour>
    </TTGlyph>
    <TTGlyph name="grave.cap" xMin="137" yMin="1627" xMax="685" yMax="1998">
      <contour>
        <pt x="249" y="1729" on="1"/>
        <pt x="187" y="1746" on="0"/>
        <pt x="155" y="1802" on="1"/>
        <pt x="137" y="1833" on="0"/>
        <pt x="137" y="1894" on="0"/>
        <pt x="150" y="1922" on="1"/>
        <pt x="183" y="1998" on="0"/>
        <pt x="258" y="1998" on="1"/>
        <pt x="300" y="1998" on="0"/>
        <pt x="342" y="1968" on="1"/>
        <pt x="685" y="1721" on="1"/>
        <pt x="630" y="1627" on="1"/>
      </contour>
    </TTGlyph>
    <TTGlyph name="greater" xMin="290" yMin="161" xMax="1126" yMax="883">
      <contour>
        <pt x="290" y="342" on="1"/>
        <pt x="938" y="523" on="1"/>
        <pt x="290" y="701" on="1"/>
        <pt x="290" y="883" on="1"/>
        <pt x="1126" y="615" on="1"/>
        <pt x="1126" y="429" on="1"/>
        <pt x="290" y="161" on="1"/>
      </contour>
    </TTGlyph>
    <TTGlyph name="greaterequal" xMin="290" yMin="83" xMax="1126" yMax="1065">
      <contour>
        <pt x="290" y="544" on="1"/>
        <pt x="290" y="544" on="0"/>
        <pt x="938" y="715" on="1"/>
        <pt x="290" y="883" on="1"/>
        <pt x="290" y="1065" on="1"/>
        <pt x="1126" y="807" on="1"/>
        <pt x="1126" y="621" on="1"/>
        <pt x="290" y="363" on="1"/>
      </contour>
      <contour>
        <pt x="290" y="259" on="1"/>
        <pt x="1126" y="259" on="1"/>
        <pt x="1126" y="83" on="1"/>
        <pt x="290" y="83" on="1"/>
      </contour>
    </TTGlyph>
    <TTGlyph name="guillemotleft" xMin="334" yMin="31" xMax="1415" yMax="1029">
      <contour>
        <pt x="940" y="393" on="1"/>
        <pt x="881" y="459" on="0"/>
        <pt x="881" y="529" on="1"/>
        <pt x="881" y="596" on="0"/>
        <pt x="940" y="664" on="1"/>
        <pt x="1256" y="1029" on="1"/>
        <pt x="1415" y="1029" on="1"/>
        <pt x="1169" y="530" on="1"/>
        <pt x="1415" y="31" on="1"/>
        <pt x="1256" y="31" on="1"/>
      </contour>
      <contour>
        <pt x="393" y="393" on="1"/>
        <pt x="334" y="459" on="0"/>
        <pt x="334" y="529" on="1"/>
        <pt x="334" y="596" on="0"/>
        <pt x="393" y="664" on="1"/>
        <pt x="709" y="1029" on="1"/>
        <pt x="868" y="1029" on="1"/>
        <pt x="622" y="530" on="1"/>
        <pt x="868" y="31" on="1"/>
        <pt x="709" y="31" on="1"/>
      </contour>
    </TTGlyph>
    <TTGlyph name="guillemotright" xMin="354" yMin="31" xMax="1435" yMax="1029">
      <contour>
        <pt x="1147" y="530" on="1"/>
        <pt x="901" y="1029" on="1"/>
        <pt x="1060" y="1029" on="1"/>
        <pt x="1376" y="664" on="1"/>
        <pt x="1435" y="596" on="0"/>
        <pt x="1435" y="541" on="1"/>
        <pt x="1435" y="459" on="0"/>
        <pt x="1376" y="393" on="1"/>
        <pt x="1060" y="31" on="1"/>
        <pt x="901" y="31" on="1"/>
      </contour>
      <contour>
        <pt x="600" y="530" on="1"/>
        <pt x="354" y="1029" on="1"/>
        <pt x="513" y="1029" on="1"/>
        <pt x="829" y="664" on="1"/>
        <pt x="888" y="596" on="0"/>
        <pt x="888" y="541" on="1"/>
        <pt x="888" y="459" on="0"/>
        <pt x="829" y="393" on="1"/>
        <pt x="513" y="31" on="1"/>
        <pt x="354" y="31" on="1"/>
      </contour>
    </TTGlyph>
    <TTGlyph name="guilsinglleft" xMin="334" yMin="31" xMax="868" yMax="1029">
      <contour>
        <pt x="393" y="393" on="1"/>
        <pt x="334" y="459" on="0"/>
        <pt x="334" y="529" on="1"/>
        <pt x="334" y="596" on="0"/>
        <pt x="393" y="664" on="1"/>
        <pt x="709" y="1029" on="1"/>
        <pt x="868" y="1029" on="1"/>
        <pt x="622" y="530" on="1"/>
        <pt x="868" y="31" on="1"/>
        <pt x="709" y="31" on="1"/>
      </contour>
    </TTGlyph>
    <TTGlyph name="guilsinglright" xMin="354" yMin="31" xMax="888" yMax="1029">
      <contour>
        <pt x="600" y="530" on="1"/>
        <pt x="354" y="1029" on="1"/>
        <pt x="513" y="1029" on="1"/>
        <pt x="829" y="664" on="1"/>
        <pt x="888" y="596" on="0"/>
        <pt x="888" y="541" on="1"/>
        <pt x="888" y="459" on="0"/>
        <pt x="829" y="393" on="1"/>
        <pt x="513" y="31" on="1"/>
        <pt x="354" y="31" on="1"/>
      </contour>
    </TTGlyph>
    <TTGlyph name="h" xMin="237" yMin="0" xMax="1341" yMax="1590">
      <contour>
        <pt x="476" y="933" on="1"/>
        <pt x="535" y="1047" on="0"/>
        <pt x="636" y="1047" on="1"/>
        <pt x="937" y="1047" on="1"/>
        <pt x="1015" y="1047" on="0"/>
        <pt x="1127" y="898" on="0"/>
        <pt x="1127" y="793" on="1"/>
        <pt x="1127" y="171" on="1"/>
        <pt x="1341" y="171" on="1"/>
        <pt x="1333" y="100" on="0"/>
        <pt x="1233" y="0" on="0"/>
        <pt x="1168" y="0" on="1"/>
        <pt x="1079" y="0" on="1"/>
        <pt x="1000" y="0" on="0"/>
        <pt x="888" y="149" on="0"/>
        <pt x="888" y="254" on="1"/>
        <pt x="888" y="876" on="1"/>
        <pt x="476" y="876" on="1"/>
        <pt x="476" y="0" on="1"/>
        <pt x="237" y="0" on="1"/>
        <pt x="237" y="1590" on="1"/>
        <pt x="476" y="1590" on="1"/>
      </contour>
    </TTGlyph>
    <TTGlyph name="hbar" xMin="46" yMin="0" xMax="1313" yMax="1590">
      <contour>
        <pt x="476" y="933" on="1"/>
        <pt x="535" y="1047" on="0"/>
        <pt x="636" y="1047" on="1"/>
        <pt x="909" y="1047" on="1"/>
        <pt x="987" y="1047" on="0"/>
        <pt x="1099" y="898" on="0"/>
        <pt x="1099" y="793" on="1"/>
        <pt x="1099" y="171" on="1"/>
        <pt x="1313" y="171" on="1"/>
        <pt x="1305" y="100" on="0"/>
        <pt x="1205" y="0" on="0"/>
        <pt x="1140" y="0" on="1"/>
        <pt x="1051" y="0" on="1"/>
        <pt x="972" y="0" on="0"/>
        <pt x="860" y="149" on="0"/>
        <pt x="860" y="254" on="1"/>
        <pt x="860" y="876" on="1"/>
        <pt x="476" y="876" on="1"/>
        <pt x="476" y="0" on="1"/>
        <pt x="237" y="0" on="1"/>
        <pt x="237" y="1237" on="1"/>
        <pt x="46" y="1237" on="1"/>
        <pt x="46" y="1391" on="1"/>
        <pt x="237" y="1391" on="1"/>
        <pt x="237" y="1590" on="1"/>
        <pt x="476" y="1590" on="1"/>
        <pt x="476" y="1391" on="1"/>
        <pt x="888" y="1391" on="1"/>
        <pt x="888" y="1237" on="1"/>
        <pt x="476" y="1237" on="1"/>
      </contour>
    </TTGlyph>
    <TTGlyph name="hcircumflex" xMin="237" yMin="0" xMax="1341" yMax="2000">
      <component glyphName="h" x="0" y="0" flags="0x1204"/>
      <component glyphName="circumflex.cap" x="157" y="0" flags="0x1004"/>
    </TTGlyph>
    <TTGlyph name="hungarumlaut" xMin="424" yMin="1344" xMax="1391" yMax="1896">
      <contour>
        <pt x="424" y="1431" on="1"/>
        <pt x="560" y="1793" on="1"/>
        <pt x="586" y="1862" on="0"/>
        <pt x="646" y="1886" on="1"/>
        <pt x="670" y="1896" on="0"/>
        <pt x="685" y="1896" on="1"/>
        <pt x="733" y="1896" on="0"/>
        <pt x="768" y="1875" on="1"/>
        <pt x="836" y="1833" on="0"/>
        <pt x="836" y="1750" on="1"/>
        <pt x="836" y="1681" on="0"/>
        <pt x="789" y="1628" on="1"/>
        <pt x="548" y="1356" on="1"/>
      </contour>
      <contour>
        <pt x="1118" y="1774" on="1"/>
        <pt x="1146" y="1841" on="0"/>
        <pt x="1209" y="1863" on="1"/>
        <pt x="1228" y="1870" on="0"/>
        <pt x="1244" y="1870" on="1"/>
        <pt x="1292" y="1870" on="0"/>
        <pt x="1327" y="1845" on="1"/>
        <pt x="1391" y="1800" on="0"/>
        <pt x="1391" y="1724" on="1"/>
        <pt x="1390" y="1648" on="0"/>
        <pt x="1335" y="1593" on="1"/>
        <pt x="1086" y="1344" on="1"/>
        <pt x="960" y="1425" on="1"/>
      </contour>
    </TTGlyph>
    <TTGlyph name="hungarumlaut.cap" xMin="9" yMin="1571" xMax="994" yMax="1999">
      <contour>
        <pt x="509" y="1686" on="1"/>
        <pt x="741" y="1944" on="1"/>
        <pt x="790" y="1999" on="0"/>
        <pt x="856" y="1999" on="1"/>
        <pt x="923" y="1999" on="0"/>
        <pt x="966" y="1941" on="1"/>
        <pt x="993" y="1904" on="0"/>
        <pt x="993" y="1834" on="0"/>
        <pt x="983" y="1806" on="1"/>
        <pt x="959" y="1738" on="0"/>
        <pt x="892" y="1706" on="1"/>
        <pt x="596" y="1571" on="1"/>
      </contour>
      <contour>
        <pt x="9" y="1686" on="1"/>
        <pt x="241" y="1944" on="1"/>
        <pt x="290" y="1999" on="0"/>
        <pt x="356" y="1999" on="1"/>
        <pt x="423" y="1999" on="0"/>
        <pt x="466" y="1941" on="1"/>
        <pt x="493" y="1904" on="0"/>
        <pt x="493" y="1834" on="0"/>
        <pt x="483" y="1806" on="1"/>
        <pt x="459" y="1738" on="0"/>
        <pt x="392" y="1706" on="1"/>
        <pt x="96" y="1571" on="1"/>
      </contour>
    </TTGlyph>
    <TTGlyph name="hyphen" xMin="290" yMin="431" xMax="1164" yMax="607">
      <contour>
        <pt x="290" y="607" on="1"/>
        <pt x="1164" y="607" on="1"/>
        <pt x="1164" y="431" on="1"/>
        <pt x="290" y="431" on="1"/>
      </contour>
    </TTGlyph>
    <TTGlyph name="i" xMin="166" yMin="0" xMax="670" yMax="1626">
      <contour>
        <pt x="334" y="1289" on="1"/>
        <pt x="299" y="1289" on="0"/>
        <pt x="238" y="1315" on="0"/>
        <pt x="215" y="1338" on="1"/>
        <pt x="166" y="1387" on="0"/>
        <pt x="166" y="1457" on="1"/>
        <pt x="166" y="1527" on="0"/>
        <pt x="215" y="1576" on="1"/>
        <pt x="265" y="1626" on="0"/>
        <pt x="334" y="1626" on="1"/>
        <pt x="403" y="1626" on="0"/>
        <pt x="503" y="1526" on="0"/>
        <pt x="503" y="1457" on="1"/>
        <pt x="503" y="1388" on="0"/>
        <pt x="453" y="1338" on="1"/>
        <pt x="404" y="1289" on="0"/>
      </contour>
      <contour>
        <pt x="217" y="1047" on="1"/>
        <pt x="456" y="1047" on="1"/>
        <pt x="456" y="171" on="1"/>
        <pt x="670" y="171" on="1"/>
        <pt x="664" y="100" on="0"/>
        <pt x="612" y="50" on="1"/>
        <pt x="561" y="0" on="0"/>
        <pt x="496" y="0" on="1"/>
        <pt x="408" y="0" on="1"/>
        <pt x="329" y="0" on="0"/>
        <pt x="217" y="149" on="0"/>
        <pt x="217" y="254" on="1"/>
      </contour>
    </TTGlyph>
    <TTGlyph name="iacute" xMin="127" yMin="0" xMax="736" yMax="1672">
      <component glyphName="dotlessi" x="0" y="0" flags="0x1204"/>
      <component glyphName="acute" x="-239" y="-170" flags="0x1004"/>
    </TTGlyph>
    <TTGlyph name="ibreve" xMin="-67" yMin="0" xMax="742" yMax="1846">
      <component glyphName="dotlessi" x="0" y="0" flags="0x1204"/>
      <component glyphName="breve" x="-345" y="0" flags="0x1004"/>
    </TTGlyph>
    <TTGlyph name="icircumflex" xMin="-73" yMin="0" xMax="769" yMax="1678">
      <component glyphName="dotlessi" x="0" y="0" flags="0x1204"/>
      <component glyphName="circumflex" x="-359" y="-170" flags="0x1004"/>
    </TTGlyph>
    <TTGlyph name="idieresis" xMin="-85" yMin="0" xMax="782" yMax="1630">
      <component glyphName="dotlessi" x="0" y="0" flags="0x1204"/>
      <component glyphName="dieresis" x="-458" y="-170" flags="0x1004"/>
    </TTGlyph>
    <TTGlyph name="igrave" xMin="-61" yMin="0" xMax="670" yMax="1672">
      <component glyphName="dotlessi" x="0" y="0" flags="0x1204"/>
      <component glyphName="grave" x="-272" y="-170" flags="0x1004"/>
    </TTGlyph>
    <TTGlyph name="ij" xMin="166" yMin="-541" xMax="1185" yMax="1626">
      <component glyphName="i" x="0" y="0" flags="0x1004"/>
      <component glyphName="j" x="682" y="0" flags="0x1004"/>
    </TTGlyph>
    <TTGlyph name="imacron" xMin="-103" yMin="0" xMax="799" yMax="1570">
      <component glyphName="dotlessi" x="0" y="0" flags="0x1204"/>
      <component glyphName="macron" x="-353" y="0" flags="0x1004"/>
    </TTGlyph>
    <TTGlyph name="itilde" xMin="-62" yMin="0" xMax="823" yMax="1646">
      <component glyphName="dotlessi" x="0" y="0" flags="0x1204"/>
      <component glyphName="tilde" x="-375" y="-170" flags="0x1004"/>
    </TTGlyph>
    <TTGlyph name="j" xMin="71" yMin="-541" xMax="503" yMax="1626">
      <contour>
        <pt x="334" y="1289" on="1"/>
        <pt x="299" y="1289" on="0"/>
        <pt x="238" y="1315" on="0"/>
        <pt x="215" y="1338" on="1"/>
        <pt x="166" y="1387" on="0"/>
        <pt x="166" y="1457" on="1"/>
        <pt x="166" y="1527" on="0"/>
        <pt x="215" y="1576" on="1"/>
        <pt x="265" y="1626" on="0"/>
        <pt x="334" y="1626" on="1"/>
        <pt x="403" y="1626" on="0"/>
        <pt x="503" y="1526" on="0"/>
        <pt x="503" y="1457" on="1"/>
        <pt x="503" y="1388" on="0"/>
        <pt x="453" y="1338" on="1"/>
        <pt x="404" y="1289" on="0"/>
      </contour>
      <contour>
        <pt x="217" y="-368" on="1"/>
        <pt x="217" y="1047" on="1"/>
        <pt x="456" y="1047" on="1"/>
        <pt x="456" y="-285" on="1"/>
        <pt x="456" y="-390" on="0"/>
        <pt x="400" y="-466" on="1"/>
        <pt x="345" y="-541" on="0"/>
        <pt x="267" y="-541" on="1"/>
        <pt x="71" y="-541" on="1"/>
        <pt x="71" y="-368" on="1"/>
      </contour>
    </TTGlyph>
    <TTGlyph name="jcircumflex" xMin="-74" yMin="-541" xMax="768" yMax="1678">
      <component glyphName="dotlessj" x="0" y="0" flags="0x1204"/>
      <component glyphName="circumflex" x="-360" y="-170" flags="0x1004"/>
    </TTGlyph>
    <TTGlyph name="k" xMin="237" yMin="0" xMax="1328" yMax="1591">
      <contour>
        <pt x="237" y="1591" on="1"/>
        <pt x="476" y="1591" on="1"/>
        <pt x="476" y="625" on="1"/>
        <pt x="671" y="625" on="1"/>
        <pt x="898" y="1047" on="1"/>
        <pt x="1149" y="1047" on="1"/>
        <pt x="908" y="628" on="1"/>
        <pt x="990" y="614" on="0"/>
        <pt x="1044" y="542" on="1"/>
        <pt x="1098" y="468" on="0"/>
        <pt x="1098" y="371" on="1"/>
        <pt x="1098" y="171" on="1"/>
        <pt x="1328" y="171" on="1"/>
        <pt x="1320" y="99" on="0"/>
        <pt x="1270" y="50" on="1"/>
        <pt x="1218" y="0" on="0"/>
        <pt x="1153" y="0" on="1"/>
        <pt x="1050" y="0" on="1"/>
        <pt x="972" y="0" on="0"/>
        <pt x="860" y="149" on="0"/>
        <pt x="860" y="254" on="1"/>
        <pt x="860" y="457" on="1"/>
        <pt x="476" y="457" on="1"/>
        <pt x="476" y="0" on="1"/>
        <pt x="237" y="0" on="1"/>
      </contour>
    </TTGlyph>
    <TTGlyph name="kcommaaccent" xMin="237" yMin="-556" xMax="1328" yMax="1591">
      <component glyphName="k" x="0" y="0" flags="0x1204"/>
      <component glyphName="commaaccent" x="185" y="0" flags="0x1004"/>
    </TTGlyph>
    <TTGlyph name="kgreenlandic" xMin="237" yMin="0" xMax="1258" yMax="1047">
      <contour>
        <pt x="237" y="1047" on="1"/>
        <pt x="476" y="1047" on="1"/>
        <pt x="476" y="595" on="1"/>
        <pt x="641" y="595" on="1"/>
        <pt x="828" y="1047" on="1"/>
        <pt x="1079" y="1047" on="1"/>
        <pt x="878" y="598" on="1"/>
        <pt x="960" y="584" on="0"/>
        <pt x="1014" y="512" on="1"/>
        <pt x="1068" y="438" on="0"/>
        <pt x="1068" y="341" on="1"/>
        <pt x="1068" y="171" on="1"/>
        <pt x="1258" y="171" on="1"/>
        <pt x="1250" y="99" on="0"/>
        <pt x="1200" y="50" on="1"/>
        <pt x="1148" y="0" on="0"/>
        <pt x="1083" y="0" on="1"/>
        <pt x="1020" y="0" on="1"/>
        <pt x="942" y="0" on="0"/>
        <pt x="830" y="149" on="0"/>
        <pt x="830" y="254" on="1"/>
        <pt x="830" y="427" on="1"/>
        <pt x="476" y="427" on="1"/>
        <pt x="476" y="0" on="1"/>
        <pt x="237" y="0" on="1"/>
      </contour>
    </TTGlyph>
    <TTGlyph name="l" xMin="217" yMin="0" xMax="669" yMax="1591">
      <contour>
        <pt x="217" y="1591" on="1"/>
        <pt x="456" y="1591" on="1"/>
        <pt x="456" y="171" on="1"/>
        <pt x="669" y="171" on="1"/>
        <pt x="651" y="49" on="0"/>
        <pt x="554" y="12" on="1"/>
        <pt x="524" y="0" on="0"/>
        <pt x="492" y="0" on="1"/>
        <pt x="408" y="0" on="1"/>
        <pt x="329" y="0" on="0"/>
        <pt x="217" y="149" on="0"/>
        <pt x="217" y="254" on="1"/>
      </contour>
    </TTGlyph>
    <TTGlyph name="lcaron" xMin="172" yMin="0" xMax="928" yMax="1591">
      <contour>
        <pt x="172" y="1591" on="1"/>
        <pt x="411" y="1591" on="1"/>
        <pt x="411" y="171" on="1"/>
        <pt x="624" y="171" on="1"/>
        <pt x="606" y="49" on="0"/>
        <pt x="508" y="12" on="1"/>
        <pt x="479" y="0" on="0"/>
        <pt x="447" y="0" on="1"/>
        <pt x="363" y="0" on="1"/>
        <pt x="284" y="0" on="0"/>
        <pt x="172" y="149" on="0"/>
        <pt x="172" y="254" on="1"/>
      </contour>
      <contour>
        <pt x="672" y="1201" on="1"/>
        <pt x="590" y="1250" on="0"/>
        <pt x="590" y="1346" on="1"/>
        <pt x="590" y="1416" on="0"/>
        <pt x="638" y="1466" on="1"/>
        <pt x="686" y="1515" on="0"/>
        <pt x="759" y="1515" on="1"/>
        <pt x="829" y="1515" on="0"/>
        <pt x="878" y="1466" on="1"/>
        <pt x="928" y="1416" on="0"/>
        <pt x="928" y="1302" on="0"/>
        <pt x="909" y="1226" on="0"/>
        <pt x="891" y="1190" on="1"/>
        <pt x="859" y="1126" on="0"/>
        <pt x="789" y="1041" on="1"/>
        <pt x="675" y="898" on="1"/>
        <pt x="581" y="943" on="1"/>
      </contour>
    </TTGlyph>
    <TTGlyph name="lcommaaccent" xMin="173" yMin="-556" xMax="669" yMax="1591">
      <component glyphName="l" x="0" y="0" flags="0x1204"/>
      <component glyphName="commaaccent" x="-194" y="0" flags="0x1004"/>
    </TTGlyph>
    <TTGlyph name="ldot" xMin="217" yMin="0" xMax="999" yMax="1591">
      <component glyphName="l" x="0" y="0" flags="0x1004"/>
      <component glyphName="dotaccentcmb" x="491" y="-875" flags="0x1004"/>
    </TTGlyph>
    <TTGlyph name="less" xMin="290" yMin="161" xMax="1126" yMax="883">
      <contour>
        <pt x="290" y="615" on="1"/>
        <pt x="1126" y="883" on="1"/>
        <pt x="1126" y="701" on="1"/>
        <pt x="478" y="523" on="1"/>
        <pt x="1126" y="342" on="1"/>
        <pt x="1126" y="161" on="1"/>
        <pt x="290" y="429" on="1"/>
      </contour>
    </TTGlyph>
    <TTGlyph name="lessequal" xMin="290" yMin="83" xMax="1126" yMax="1065">
      <contour>
        <pt x="290" y="807" on="1"/>
        <pt x="290" y="807" on="0"/>
        <pt x="1126" y="1065" on="1"/>
        <pt x="1126" y="883" on="1"/>
        <pt x="478" y="715" on="1"/>
        <pt x="1126" y="544" on="1"/>
        <pt x="1126" y="363" on="1"/>
        <pt x="290" y="621" on="1"/>
      </contour>
      <contour>
        <pt x="290" y="259" on="1"/>
        <pt x="1126" y="259" on="1"/>
        <pt x="1126" y="83" on="1"/>
        <pt x="290" y="83" on="1"/>
      </contour>
    </TTGlyph>
    <TTGlyph name="logicalnot" xMin="290" yMin="293" xMax="1291" yMax="868">
      <contour>
        <pt x="290" y="868" on="1"/>
        <pt x="1291" y="868" on="1"/>
        <pt x="1291" y="293" on="1"/>
        <pt x="1114" y="293" on="1"/>
        <pt x="1114" y="692" on="1"/>
        <pt x="290" y="692" on="1"/>
      </contour>
    </TTGlyph>
    <TTGlyph name="lozenge" xMin="221" yMin="0" xMax="1204" yMax="1487">
      <contour>
        <pt x="221" y="742" on="1"/>
        <pt x="601" y="1487" on="1"/>
        <pt x="830" y="1487" on="1"/>
        <pt x="1204" y="742" on="1"/>
        <pt x="832" y="0" on="1"/>
        <pt x="603" y="0" on="1"/>
      </contour>
      <contour>
        <pt x="1006" y="742" on="1"/>
        <pt x="712" y="1356" on="1"/>
        <pt x="410" y="742" on="1"/>
        <pt x="711" y="131" on="1"/>
      </contour>
    </TTGlyph>
    <TTGlyph name="lslash" xMin="99" yMin="0" xMax="671" yMax="1591">
      <contour>
        <pt x="217" y="753" on="1"/>
        <pt x="99" y="713" on="1"/>
        <pt x="99" y="884" on="1"/>
        <pt x="217" y="924" on="1"/>
        <pt x="217" y="1591" on="1"/>
        <pt x="456" y="1591" on="1"/>
        <pt x="456" y="1007" on="1"/>
        <pt x="671" y="1081" on="1"/>
        <pt x="671" y="910" on="1"/>
        <pt x="456" y="836" on="1"/>
        <pt x="456" y="171" on="1"/>
        <pt x="669" y="171" on="1"/>
        <pt x="651" y="49" on="0"/>
        <pt x="554" y="12" on="1"/>
        <pt x="524" y="0" on="0"/>
        <pt x="492" y="0" on="1"/>
        <pt x="408" y="0" on="1"/>
        <pt x="329" y="0" on="0"/>
        <pt x="217" y="149" on="0"/>
        <pt x="217" y="254" on="1"/>
      </contour>
    </TTGlyph>
    <TTGlyph name="m" xMin="273" yMin="0" xMax="1857" yMax="1048">
      <contour>
        <pt x="273" y="1047" on="1"/>
        <pt x="512" y="1047" on="1"/>
        <pt x="512" y="645" on="1"/>
        <pt x="755" y="971" on="1"/>
        <pt x="820" y="1048" on="0"/>
        <pt x="906" y="1048" on="1"/>
        <pt x="987" y="1048" on="0"/>
        <pt x="1046" y="974" on="1"/>
        <pt x="1107" y="898" on="0"/>
        <pt x="1107" y="794" on="1"/>
        <pt x="1107" y="681" on="1"/>
        <pt x="1317" y="971" on="1"/>
        <pt x="1384" y="1048" on="0"/>
        <pt x="1478" y="1048" on="1"/>
        <pt x="1559" y="1048" on="0"/>
        <pt x="1618" y="974" on="1"/>
        <pt x="1679" y="898" on="0"/>
        <pt x="1679" y="794" on="1"/>
        <pt x="1679" y="171" on="1"/>
        <pt x="1857" y="171" on="1"/>
        <pt x="1849" y="99" on="0"/>
        <pt x="1798" y="50" on="1"/>
        <pt x="1747" y="0" on="0"/>
        <pt x="1682" y="0" on="1"/>
        <pt x="1628" y="0" on="1"/>
        <pt x="1549" y="0" on="0"/>
        <pt x="1441" y="149" on="0"/>
        <pt x="1441" y="254" on="1"/>
        <pt x="1441" y="855" on="1"/>
        <pt x="1107" y="450" on="1"/>
        <pt x="1107" y="0" on="1"/>
        <pt x="868" y="0" on="1"/>
        <pt x="868" y="855" on="1"/>
        <pt x="512" y="415" on="1"/>
        <pt x="512" y="0" on="1"/>
        <pt x="273" y="0" on="1"/>
      </contour>
    </TTGlyph>
    <TTGlyph name="macron" xMin="250" yMin="1399" xMax="1152" yMax="1570">
      <contour>
        <pt x="250" y="1399" on="1"/>
        <pt x="258" y="1470" on="0"/>
        <pt x="308" y="1520" on="1"/>
        <pt x="358" y="1570" on="0"/>
        <pt x="425" y="1570" on="1"/>
        <pt x="1152" y="1570" on="1"/>
        <pt x="1146" y="1500" on="0"/>
        <pt x="1095" y="1449" on="1"/>
        <pt x="1045" y="1399" on="0"/>
        <pt x="978" y="1399" on="1"/>
      </contour>
    </TTGlyph>
    <TTGlyph name="macron.cap" xMin="-17" yMin="1698" xMax="885" yMax="1869">
      <contour>
        <pt x="-17" y="1698" on="1"/>
        <pt x="-9" y="1769" on="0"/>
        <pt x="40" y="1818" on="1"/>
        <pt x="91" y="1869" on="0"/>
        <pt x="158" y="1869" on="1"/>
        <pt x="885" y="1869" on="1"/>
        <pt x="879" y="1799" on="0"/>
        <pt x="828" y="1748" on="1"/>
        <pt x="778" y="1698" on="0"/>
        <pt x="711" y="1698" on="1"/>
      </contour>
    </TTGlyph>
    <TTGlyph name="mu" xMin="217" yMin="-541" xMax="1318" yMax="1047">
      <contour>
        <pt x="869" y="107" on="1"/>
        <pt x="807" y="0" on="0"/>
        <pt x="712" y="0" on="1"/>
        <pt x="456" y="0" on="1"/>
        <pt x="456" y="-285" on="1"/>
        <pt x="456" y="-392" on="0"/>
        <pt x="402" y="-466" on="1"/>
        <pt x="346" y="-541" on="0"/>
        <pt x="269" y="-541" on="1"/>
        <pt x="217" y="-541" on="1"/>
        <pt x="217" y="1047" on="1"/>
        <pt x="456" y="1047" on="1"/>
        <pt x="456" y="171" on="1"/>
        <pt x="869" y="171" on="1"/>
        <pt x="869" y="1047" on="1"/>
        <pt x="1107" y="1047" on="1"/>
        <pt x="1107" y="171" on="1"/>
        <pt x="1318" y="171" on="1"/>
        <pt x="1310" y="99" on="0"/>
        <pt x="1260" y="50" on="1"/>
        <pt x="1208" y="0" on="0"/>
        <pt x="1143" y="0" on="1"/>
        <pt x="869" y="0" on="1"/>
      </contour>
    </TTGlyph>
    <TTGlyph name="multiply" xMin="290" yMin="96" xMax="1141" yMax="947">
      <contour>
        <pt x="591" y="522" on="1"/>
        <pt x="294" y="818" on="1"/>
        <pt x="423" y="947" on="1"/>
        <pt x="717" y="648" on="1"/>
        <pt x="1012" y="945" on="1"/>
        <pt x="1124" y="834" on="0"/>
        <pt x="1138" y="820" on="1"/>
        <pt x="841" y="525" on="1"/>
        <pt x="1141" y="228" on="1"/>
        <pt x="1012" y="96" on="1"/>
        <pt x="715" y="395" on="1"/>
        <pt x="419" y="96" on="1"/>
        <pt x="290" y="227" on="1"/>
      </contour>
    </TTGlyph>
    <TTGlyph name="n" xMin="273" yMin="0" xMax="1375" yMax="1048">
      <contour>
        <pt x="273" y="1047" on="1"/>
        <pt x="512" y="1047" on="1"/>
        <pt x="512" y="651" on="1"/>
        <pt x="821" y="971" on="1"/>
        <pt x="888" y="1048" on="0"/>
        <pt x="970" y="1048" on="1"/>
        <pt x="1052" y="1048" on="0"/>
        <pt x="1112" y="974" on="1"/>
        <pt x="1173" y="898" on="0"/>
        <pt x="1173" y="794" on="1"/>
        <pt x="1173" y="172" on="1"/>
        <pt x="1375" y="172" on="1"/>
        <pt x="1367" y="101" on="0"/>
        <pt x="1266" y="0" on="0"/>
        <pt x="1200" y="0" on="1"/>
        <pt x="1122" y="0" on="1"/>
        <pt x="1043" y="0" on="0"/>
        <pt x="988" y="74" on="1"/>
        <pt x="932" y="150" on="0"/>
        <pt x="932" y="254" on="1"/>
        <pt x="932" y="862" on="1"/>
        <pt x="512" y="430" on="1"/>
        <pt x="512" y="0" on="1"/>
        <pt x="273" y="0" on="1"/>
      </contour>
    </TTGlyph>
    <TTGlyph name="nacute" xMin="273" yMin="0" xMax="1375" yMax="1672">
      <component glyphName="n" x="0" y="0" flags="0x1204"/>
      <component glyphName="acute" x="129" y="-170" flags="0x1004"/>
    </TTGlyph>
    <TTGlyph name="ncaron" xMin="273" yMin="0" xMax="1375" yMax="1920">
      <component glyphName="n" x="0" y="0" flags="0x1204"/>
      <component glyphName="caron" x="8" y="0" flags="0x1004"/>
    </TTGlyph>
    <TTGlyph name="ncommaaccent" xMin="273" yMin="-556" xMax="1375" yMax="1048">
      <component glyphName="n" x="0" y="0" flags="0x1204"/>
      <component glyphName="commaaccent" x="293" y="0" flags="0x1004"/>
    </TTGlyph>
    <TTGlyph name="nine" xMin="256" yMin="0" xMax="1129" yMax="1250">
      <contour>
        <pt x="387" y="172" on="1"/>
        <pt x="889" y="172" on="1"/>
        <pt x="889" y="454" on="1"/>
        <pt x="447" y="454" on="1"/>
        <pt x="368" y="454" on="0"/>
        <pt x="256" y="603" on="0"/>
        <pt x="256" y="710" on="1"/>
        <pt x="256" y="996" on="1"/>
        <pt x="256" y="1101" on="0"/>
        <pt x="368" y="1250" on="0"/>
        <pt x="447" y="1250" on="1"/>
        <pt x="936" y="1250" on="1"/>
        <pt x="1015" y="1250" on="0"/>
        <pt x="1072" y="1176" on="1"/>
        <pt x="1129" y="1102" on="0"/>
        <pt x="1129" y="996" on="1"/>
        <pt x="1129" y="254" on="1"/>
        <pt x="1129" y="148" on="0"/>
        <pt x="1072" y="74" on="1"/>
        <pt x="1015" y="0" on="0"/>
        <pt x="936" y="0" on="1"/>
        <pt x="387" y="0" on="1"/>
      </contour>
      <contour>
        <pt x="889" y="617" on="1"/>
        <pt x="889" y="1078" on="1"/>
        <pt x="494" y="1078" on="1"/>
        <pt x="494" y="617" on="1"/>
      </contour>
    </TTGlyph>
    <TTGlyph name="nonbreakingspace" xMin="0" yMin="0" xMax="0" yMax="0">
      <component glyphName="space" x="0" y="0" flags="0x1004"/>
    </TTGlyph>
    <TTGlyph name="notequal" xMin="290" yMin="-59" xMax="1165" yMax="1121">
      <contour>
        <pt x="290" y="376" on="1"/>
        <pt x="584" y="376" on="1"/>
        <pt x="702" y="683" on="1"/>
        <pt x="290" y="683" on="1"/>
        <pt x="290" y="859" on="1"/>
        <pt x="769" y="859" on="1"/>
        <pt x="870" y="1121" on="1"/>
        <pt x="1042" y="1121" on="1"/>
        <pt x="941" y="859" on="1"/>
        <pt x="1165" y="859" on="1"/>
        <pt x="1165" y="683" on="1"/>
        <pt x="874" y="683" on="1"/>
        <pt x="756" y="376" on="1"/>
        <pt x="1165" y="376" on="1"/>
        <pt x="1165" y="201" on="1"/>
        <pt x="689" y="201" on="1"/>
        <pt x="590" y="-59" on="1"/>
        <pt x="417" y="-59" on="1"/>
        <pt x="517" y="201" on="1"/>
        <pt x="290" y="201" on="1"/>
      </contour>
    </TTGlyph>
    <TTGlyph name="ntilde" xMin="273" yMin="0" xMax="1375" yMax="1646">
      <component glyphName="n" x="0" y="0" flags="0x1204"/>
      <component glyphName="tilde" x="-6" y="-170" flags="0x1004"/>
    </TTGlyph>
    <TTGlyph name="numbersign" xMin="114" yMin="0" xMax="1251" yMax="1230">
      <contour>
        <pt x="1251" y="940" on="1"/>
        <pt x="1236" y="764" on="1"/>
        <pt x="1011" y="764" on="1"/>
        <pt x="985" y="465" on="1"/>
        <pt x="1211" y="465" on="1"/>
        <pt x="1194" y="290" on="1"/>
        <pt x="967" y="290" on="1"/>
        <pt x="964" y="260" on="0"/>
        <pt x="961" y="222" on="1"/>
        <pt x="955" y="146" on="1"/>
        <pt x="952" y="106" on="0"/>
        <pt x="947" y="30" on="0"/>
        <pt x="944" y="0" on="1"/>
        <pt x="793" y="0" on="1"/>
        <pt x="816" y="290" on="1"/>
        <pt x="491" y="290" on="1"/>
        <pt x="465" y="0" on="1"/>
        <pt x="312" y="0" on="1"/>
        <pt x="340" y="290" on="1"/>
        <pt x="114" y="290" on="1"/>
        <pt x="129" y="465" on="1"/>
        <pt x="354" y="465" on="1"/>
        <pt x="381" y="764" on="1"/>
        <pt x="156" y="764" on="1"/>
        <pt x="160" y="813" on="0"/>
        <pt x="164" y="852" on="1"/>
        <pt x="174" y="940" on="1"/>
        <pt x="394" y="940" on="1"/>
        <pt x="421" y="1230" on="1"/>
        <pt x="571" y="1230" on="1"/>
        <pt x="548" y="940" on="1"/>
        <pt x="874" y="940" on="1"/>
        <pt x="877" y="970" on="0"/>
        <pt x="882" y="1045" on="0"/>
        <pt x="885" y="1084" on="1"/>
        <pt x="891" y="1162" on="1"/>
        <pt x="894" y="1200" on="0"/>
        <pt x="897" y="1230" on="1"/>
        <pt x="1050" y="1230" on="1"/>
        <pt x="1027" y="940" on="1"/>
      </contour>
      <contour>
        <pt x="832" y="465" on="1"/>
        <pt x="856" y="764" on="1"/>
        <pt x="531" y="764" on="1"/>
        <pt x="508" y="465" on="1"/>
      </contour>
    </TTGlyph>
    <TTGlyph name="o" xMin="237" yMin="0" xMax="1263" yMax="1047">
      <contour>
        <pt x="237" y="793" on="1"/>
        <pt x="237" y="898" on="0"/>
        <pt x="292" y="974" on="1"/>
        <pt x="347" y="1047" on="0"/>
        <pt x="425" y="1047" on="1"/>
        <pt x="1263" y="1047" on="1"/>
        <pt x="1255" y="975" on="0"/>
        <pt x="1204" y="926" on="1"/>
        <pt x="1153" y="876" on="0"/>
        <pt x="1088" y="876" on="1"/>
        <pt x="1025" y="876" on="1"/>
        <pt x="1094" y="825" on="0"/>
        <pt x="1118" y="726" on="1"/>
        <pt x="1127" y="691" on="0"/>
        <pt x="1127" y="651" on="1"/>
        <pt x="1127" y="252" on="1"/>
        <pt x="1127" y="147" on="0"/>
        <pt x="1071" y="74" on="1"/>
        <pt x="1014" y="0" on="0"/>
        <pt x="937" y="0" on="1"/>
        <pt x="425" y="0" on="1"/>
        <pt x="348" y="0" on="0"/>
        <pt x="237" y="148" on="0"/>
        <pt x="237" y="252" on="1"/>
      </contour>
      <contour>
        <pt x="888" y="171" on="1"/>
        <pt x="888" y="876" on="1"/>
        <pt x="476" y="876" on="1"/>
        <pt x="476" y="171" on="1"/>
      </contour>
    </TTGlyph>
    <TTGlyph name="oacute" xMin="237" yMin="0" xMax="1263" yMax="1672">
      <component glyphName="o" x="0" y="0" flags="0x1204"/>
      <component glyphName="acute" x="112" y="-170" flags="0x1004"/>
    </TTGlyph>
    <TTGlyph name="obreve" xMin="237" yMin="0" xMax="1263" yMax="1846">
      <component glyphName="o" x="0" y="0" flags="0x1204"/>
      <component glyphName="breve" x="6" y="0" flags="0x1004"/>
    </TTGlyph>
    <TTGlyph name="ocircumflex" xMin="237" yMin="0" xMax="1263" yMax="1678">
      <component glyphName="o" x="0" y="0" flags="0x1204"/>
      <component glyphName="circumflex" x="-7" y="-170" flags="0x1004"/>
    </TTGlyph>
    <TTGlyph name="odieresis" xMin="237" yMin="0" xMax="1263" yMax="1630">
      <component glyphName="o" x="0" y="0" flags="0x1204"/>
      <component glyphName="dieresis" x="-106" y="-170" flags="0x1004"/>
    </TTGlyph>
    <TTGlyph name="oe" xMin="237" yMin="0" xMax="1862" yMax="1047">
      <contour>
        <pt x="237" y="793" on="1"/>
        <pt x="237" y="898" on="0"/>
        <pt x="292" y="974" on="1"/>
        <pt x="347" y="1047" on="0"/>
        <pt x="425" y="1047" on="1"/>
        <pt x="855" y="1047" on="1"/>
        <pt x="904" y="1047" on="0"/>
        <pt x="992" y="980" on="0"/>
        <pt x="1021" y="923" on="1"/>
        <pt x="1050" y="980" on="0"/>
        <pt x="1138" y="1047" on="0"/>
        <pt x="1187" y="1047" on="1"/>
        <pt x="1620" y="1047" on="1"/>
        <pt x="1698" y="1047" on="0"/>
        <pt x="1810" y="898" on="0"/>
        <pt x="1810" y="793" on="1"/>
        <pt x="1810" y="460" on="1"/>
        <pt x="1138" y="460" on="1"/>
        <pt x="1138" y="171" on="1"/>
        <pt x="1862" y="171" on="1"/>
        <pt x="1854" y="99" on="0"/>
        <pt x="1804" y="50" on="1"/>
        <pt x="1752" y="0" on="0"/>
        <pt x="1687" y="0" on="1"/>
        <pt x="1181" y="0" on="1"/>
        <pt x="1132" y="0" on="0"/>
        <pt x="1044" y="67" on="0"/>
        <pt x="1015" y="124" on="1"/>
        <pt x="986" y="67" on="0"/>
        <pt x="898" y="0" on="0"/>
        <pt x="849" y="0" on="1"/>
        <pt x="425" y="0" on="1"/>
        <pt x="348" y="0" on="0"/>
        <pt x="237" y="148" on="0"/>
        <pt x="237" y="252" on="1"/>
      </contour>
      <contour>
        <pt x="1571" y="600" on="1"/>
        <pt x="1571" y="876" on="1"/>
        <pt x="1138" y="876" on="1"/>
        <pt x="1138" y="600" on="1"/>
      </contour>
      <contour>
        <pt x="898" y="171" on="1"/>
        <pt x="898" y="876" on="1"/>
        <pt x="476" y="876" on="1"/>
        <pt x="476" y="171" on="1"/>
      </contour>
    </TTGlyph>
    <TTGlyph name="ogonek" xMin="398" yMin="-509" xMax="961" yMax="111">
      <contour>
        <pt x="760" y="111" on="1"/>
        <pt x="926" y="59" on="1"/>
        <pt x="579" y="-301" on="1"/>
        <pt x="961" y="-301" on="1"/>
        <pt x="961" y="-509" on="1"/>
        <pt x="561" y="-509" on="1"/>
        <pt x="493" y="-509" on="0"/>
        <pt x="445" y="-457" on="1"/>
        <pt x="398" y="-406" on="0"/>
        <pt x="398" y="-292" on="0"/>
        <pt x="424" y="-233" on="0"/>
        <pt x="447" y="-207" on="1"/>
      </contour>
    </TTGlyph>
    <TTGlyph name="ograve" xMin="237" yMin="0" xMax="1263" yMax="1672">
      <component glyphName="o" x="0" y="0" flags="0x1204"/>
      <component glyphName="grave" x="79" y="-170" flags="0x1004"/>
    </TTGlyph>
    <TTGlyph name="ohungarumlaut" xMin="237" yMin="0" xMax="1263" yMax="1896">
      <component glyphName="o" x="0" y="0" flags="0x1204"/>
      <component glyphName="hungarumlaut" x="-160" y="0" flags="0x1004"/>
    </TTGlyph>
    <TTGlyph name="omacron" xMin="237" yMin="0" xMax="1263" yMax="1570">
      <component glyphName="o" x="0" y="0" flags="0x1204"/>
      <component glyphName="macron" x="-1" y="0" flags="0x1004"/>
    </TTGlyph>
    <TTGlyph name="one" xMin="200" yMin="0" xMax="593" yMax="1249">
      <contour>
        <pt x="354" y="1078" on="1"/>
        <pt x="200" y="1078" on="1"/>
        <pt x="200" y="1249" on="1"/>
        <pt x="593" y="1249" on="1"/>
        <pt x="593" y="0" on="1"/>
        <pt x="354" y="0" on="1"/>
      </contour>
    </TTGlyph>
    <TTGlyph name="onehalf" xMin="116" yMin="-59" xMax="1929" yMax="1311">
      <contour>
        <pt x="473" y="-59" on="1"/>
        <pt x="473" y="-59" on="0"/>
        <pt x="999" y="1311" on="1"/>
        <pt x="1170" y="1311" on="1"/>
        <pt x="644" y="-59" on="1"/>
      </contour>
      <contour>
        <pt x="248" y="1151" on="1"/>
        <pt x="116" y="1151" on="1"/>
        <pt x="116" y="1249" on="1"/>
        <pt x="460" y="1249" on="1"/>
        <pt x="460" y="454" on="1"/>
        <pt x="248" y="454" on="1"/>
      </contour>
      <contour>
        <pt x="1187" y="207" on="1"/>
        <pt x="1187" y="258" on="0"/>
        <pt x="1230" y="337" on="0"/>
        <pt x="1266" y="351" on="1"/>
        <pt x="1707" y="521" on="1"/>
        <pt x="1707" y="687" on="1"/>
        <pt x="1409" y="687" on="1"/>
        <pt x="1409" y="566" on="1"/>
        <pt x="1187" y="566" on="1"/>
        <pt x="1187" y="637" on="1"/>
        <pt x="1187" y="703" on="0"/>
        <pt x="1230" y="750" on="1"/>
        <pt x="1273" y="796" on="0"/>
        <pt x="1335" y="796" on="1"/>
        <pt x="1780" y="796" on="1"/>
        <pt x="1842" y="796" on="0"/>
        <pt x="1885" y="750" on="1"/>
        <pt x="1929" y="702" on="0"/>
        <pt x="1929" y="637" on="1"/>
        <pt x="1929" y="537" on="1"/>
        <pt x="1929" y="486" on="0"/>
        <pt x="1879" y="408" on="0"/>
        <pt x="1840" y="392" on="1"/>
        <pt x="1409" y="223" on="1"/>
        <pt x="1409" y="108" on="1"/>
        <pt x="1929" y="108" on="1"/>
        <pt x="1929" y="0" on="1"/>
        <pt x="1187" y="0" on="1"/>
      </contour>
    </TTGlyph>
    <TTGlyph name="onequarter" xMin="181" yMin="-59" xMax="1885" yMax="1311">
      <contour>
        <pt x="1063" y="1311" on="1"/>
        <pt x="1235" y="1311" on="1"/>
        <pt x="709" y="-59" on="1"/>
        <pt x="538" y="-59" on="1"/>
      </contour>
      <contour>
        <pt x="313" y="1151" on="1"/>
        <pt x="181" y="1151" on="1"/>
        <pt x="181" y="1249" on="1"/>
        <pt x="524" y="1249" on="1"/>
        <pt x="524" y="454" on="1"/>
        <pt x="313" y="454" on="1"/>
      </contour>
      <contour>
        <pt x="1122" y="244" on="1"/>
        <pt x="1332" y="797" on="1"/>
        <pt x="1541" y="797" on="1"/>
        <pt x="1323" y="238" on="1"/>
        <pt x="1599" y="238" on="1"/>
        <pt x="1599" y="627" on="1"/>
        <pt x="1802" y="627" on="1"/>
        <pt x="1802" y="238" on="1"/>
        <pt x="1885" y="238" on="1"/>
        <pt x="1885" y="132" on="1"/>
        <pt x="1802" y="132" on="1"/>
        <pt x="1802" y="-1" on="1"/>
        <pt x="1599" y="-1" on="1"/>
        <pt x="1599" y="132" on="1"/>
        <pt x="1122" y="132" on="1"/>
      </contour>
    </TTGlyph>
    <TTGlyph name="onesuperior" xMin="119" yMin="454" xMax="463" yMax="1249">
      <contour>
        <pt x="251" y="1151" on="1"/>
        <pt x="119" y="1151" on="1"/>
        <pt x="119" y="1249" on="1"/>
        <pt x="463" y="1249" on="1"/>
        <pt x="463" y="454" on="1"/>
        <pt x="251" y="454" on="1"/>
      </contour>
    </TTGlyph>
    <TTGlyph name="ordfeminine" xMin="334" yMin="52" xMax="1189" yMax="1206">
      <contour>
        <pt x="833" y="576" on="1"/>
        <pt x="791" y="492" on="0"/>
        <pt x="720" y="492" on="1"/>
        <pt x="464" y="492" on="1"/>
        <pt x="411" y="492" on="0"/>
        <pt x="372" y="542" on="1"/>
        <pt x="334" y="591" on="0"/>
        <pt x="334" y="663" on="1"/>
        <pt x="334" y="1013" on="1"/>
        <pt x="334" y="1094" on="0"/>
        <pt x="376" y="1151" on="1"/>
        <pt x="418" y="1206" on="0"/>
        <pt x="481" y="1206" on="1"/>
        <pt x="1031" y="1206" on="1"/>
        <pt x="1031" y="609" on="1"/>
        <pt x="1189" y="609" on="1"/>
        <pt x="1183" y="560" on="0"/>
        <pt x="1158" y="535" on="1"/>
        <pt x="1115" y="492" on="0"/>
        <pt x="1070" y="492" on="1"/>
        <pt x="947" y="492" on="1"/>
        <pt x="877" y="492" on="0"/>
      </contour>
      <contour>
        <pt x="829" y="609" on="1"/>
        <pt x="829" y="1089" on="1"/>
        <pt x="536" y="1089" on="1"/>
        <pt x="536" y="609" on="1"/>
      </contour>
      <contour>
        <pt x="578" y="105" on="0"/>
        <pt x="559" y="149" on="0"/>
        <pt x="559" y="200" on="0"/>
        <pt x="578" y="245" on="0"/>
        <pt x="595" y="262" on="1"/>
        <pt x="631" y="298" on="0"/>
        <pt x="707" y="298" on="0"/>
        <pt x="752" y="279" on="0"/>
        <pt x="768" y="262" on="1"/>
        <pt x="805" y="224" on="0"/>
        <pt x="805" y="149" on="0"/>
        <pt x="785" y="105" on="0"/>
        <pt x="768" y="88" on="1"/>
        <pt x="734" y="52" on="0"/>
        <pt x="656" y="52" on="0"/>
        <pt x="612" y="71" on="0"/>
      </contour>
    </TTGlyph>
    <TTGlyph name="ordmasculine" xMin="334" yMin="52" xMax="1031" yMax="1206">
      <contour>
        <pt x="464" y="492" on="1"/>
        <pt x="411" y="492" on="0"/>
        <pt x="372" y="542" on="1"/>
        <pt x="334" y="591" on="0"/>
        <pt x="334" y="663" on="1"/>
        <pt x="334" y="1013" on="1"/>
        <pt x="334" y="1094" on="0"/>
        <pt x="376" y="1151" on="1"/>
        <pt x="418" y="1206" on="0"/>
        <pt x="481" y="1206" on="1"/>
        <pt x="901" y="1206" on="1"/>
        <pt x="954" y="1206" on="0"/>
        <pt x="993" y="1156" on="1"/>
        <pt x="1031" y="1106" on="0"/>
        <pt x="1031" y="1035" on="1"/>
        <pt x="1031" y="685" on="1"/>
        <pt x="1031" y="604" on="0"/>
        <pt x="988" y="547" on="1"/>
        <pt x="947" y="492" on="0"/>
        <pt x="884" y="492" on="1"/>
      </contour>
      <contour>
        <pt x="829" y="609" on="1"/>
        <pt x="829" y="1089" on="1"/>
        <pt x="536" y="1089" on="1"/>
        <pt x="536" y="609" on="1"/>
      </contour>
      <contour>
        <pt x="578" y="105" on="0"/>
        <pt x="559" y="149" on="0"/>
        <pt x="559" y="200" on="0"/>
        <pt x="578" y="245" on="0"/>
        <pt x="595" y="262" on="1"/>
        <pt x="631" y="298" on="0"/>
        <pt x="707" y="298" on="0"/>
        <pt x="752" y="279" on="0"/>
        <pt x="768" y="262" on="1"/>
        <pt x="805" y="224" on="0"/>
        <pt x="805" y="149" on="0"/>
        <pt x="785" y="105" on="0"/>
        <pt x="768" y="88" on="1"/>
        <pt x="734" y="52" on="0"/>
        <pt x="656" y="52" on="0"/>
        <pt x="612" y="71" on="0"/>
      </contour>
    </TTGlyph>
    <TTGlyph name="oslash" xMin="237" yMin="-177" xMax="1139" yMax="1223">
      <contour>
        <pt x="352" y="20" on="1"/>
        <pt x="301" y="49" on="0"/>
        <pt x="237" y="173" on="0"/>
        <pt x="237" y="252" on="1"/>
        <pt x="237" y="793" on="1"/>
        <pt x="237" y="898" on="0"/>
        <pt x="292" y="974" on="1"/>
        <pt x="347" y="1047" on="0"/>
        <pt x="425" y="1047" on="1"/>
        <pt x="882" y="1047" on="1"/>
        <pt x="973" y="1223" on="1"/>
        <pt x="1124" y="1223" on="1"/>
        <pt x="1023" y="1027" on="1"/>
        <pt x="1105" y="978" on="0"/>
        <pt x="1130" y="869" on="1"/>
        <pt x="1139" y="833" on="0"/>
        <pt x="1139" y="793" on="1"/>
        <pt x="1138" y="252" on="1"/>
        <pt x="1138" y="147" on="0"/>
        <pt x="1082" y="74" on="1"/>
        <pt x="1025" y="0" on="0"/>
        <pt x="948" y="0" on="1"/>
        <pt x="492" y="0" on="1"/>
        <pt x="401" y="-177" on="1"/>
        <pt x="250" y="-177" on="1"/>
      </contour>
      <contour>
        <pt x="793" y="876" on="1"/>
        <pt x="466" y="876" on="1"/>
        <pt x="466" y="241" on="1"/>
      </contour>
      <contour>
        <pt x="910" y="171" on="1"/>
        <pt x="910" y="808" on="1"/>
        <pt x="581" y="171" on="1"/>
      </contour>
    </TTGlyph>
    <TTGlyph name="otilde" xMin="237" yMin="0" xMax="1263" yMax="1646">
      <component glyphName="o" x="0" y="0" flags="0x1204"/>
      <component glyphName="tilde" x="-23" y="-170" flags="0x1004"/>
    </TTGlyph>
    <TTGlyph name="p" xMin="237" yMin="-541" xMax="1338" yMax="1047">
      <contour>
        <pt x="636" y="0" on="1"/>
        <pt x="539" y="0" on="0"/>
        <pt x="475" y="112" on="1"/>
        <pt x="476" y="-285" on="1"/>
        <pt x="476" y="-392" on="0"/>
        <pt x="422" y="-466" on="1"/>
        <pt x="366" y="-541" on="0"/>
        <pt x="289" y="-541" on="1"/>
        <pt x="237" y="-541" on="1"/>
        <pt x="237" y="1047" on="1"/>
        <pt x="938" y="1047" on="1"/>
        <pt x="1015" y="1047" on="0"/>
        <pt x="1127" y="898" on="0"/>
        <pt x="1127" y="793" on="1"/>
        <pt x="1127" y="171" on="1"/>
        <pt x="1338" y="171" on="1"/>
        <pt x="1330" y="99" on="0"/>
        <pt x="1280" y="50" on="1"/>
        <pt x="1228" y="0" on="0"/>
        <pt x="1163" y="0" on="1"/>
      </contour>
      <contour>
        <pt x="888" y="172" on="1"/>
        <pt x="888" y="876" on="1"/>
        <pt x="475" y="876" on="1"/>
        <pt x="475" y="172" on="1"/>
      </contour>
    </TTGlyph>
    <TTGlyph name="paragraph" xMin="244" yMin="-270" xMax="1517" yMax="1515">
      <contour>
        <pt x="434" y="249" on="1"/>
        <pt x="355" y="249" on="0"/>
        <pt x="300" y="322" on="1"/>
        <pt x="244" y="397" on="0"/>
        <pt x="244" y="501" on="1"/>
        <pt x="244" y="1261" on="1"/>
        <pt x="244" y="1367" on="0"/>
        <pt x="300" y="1442" on="1"/>
        <pt x="355" y="1515" on="0"/>
        <pt x="434" y="1515" on="1"/>
        <pt x="1517" y="1515" on="1"/>
        <pt x="1509" y="1443" on="0"/>
        <pt x="1458" y="1394" on="1"/>
        <pt x="1407" y="1344" on="0"/>
        <pt x="1342" y="1344" on="1"/>
        <pt x="1274" y="1344" on="1"/>
        <pt x="1274" y="-9" on="1"/>
        <pt x="1274" y="-115" on="0"/>
        <pt x="1214" y="-190" on="1"/>
        <pt x="1154" y="-265" on="0"/>
        <pt x="1072" y="-265" on="1"/>
        <pt x="1056" y="-265" on="1"/>
        <pt x="1056" y="1344" on="1"/>
        <pt x="914" y="1344" on="1"/>
        <pt x="914" y="-14" on="1"/>
        <pt x="914" y="-119" on="0"/>
        <pt x="854" y="-194" on="1"/>
        <pt x="793" y="-270" on="0"/>
        <pt x="711" y="-270" on="1"/>
        <pt x="695" y="-270" on="1"/>
        <pt x="695" y="249" on="1"/>
      </contour>
    </TTGlyph>
    <TTGlyph name="parenleft" xMin="357" yMin="-388" xMax="916" yMax="1777">
      <contour>
        <pt x="357" y="960" on="1"/>
        <pt x="357" y="1306" on="0"/>
        <pt x="516" y="1534" on="1"/>
        <pt x="673" y="1759" on="0"/>
        <pt x="916" y="1777" on="1"/>
        <pt x="916" y="1629" on="1"/>
        <pt x="774" y="1600" on="0"/>
        <pt x="682" y="1449" on="1"/>
        <pt x="586" y="1292" on="0"/>
        <pt x="586" y="1069" on="1"/>
        <pt x="586" y="319" on="1"/>
        <pt x="586" y="96" on="0"/>
        <pt x="682" y="-62" on="1"/>
        <pt x="773" y="-213" on="0"/>
        <pt x="916" y="-242" on="1"/>
        <pt x="916" y="-388" on="1"/>
        <pt x="678" y="-357" on="0"/>
        <pt x="520" y="-135" on="1"/>
        <pt x="357" y="94" on="0"/>
        <pt x="357" y="429" on="1"/>
      </contour>
    </TTGlyph>
    <TTGlyph name="parenright" xMin="357" yMin="-388" xMax="916" yMax="1777">
      <contour>
        <pt x="357" y="-242" on="1"/>
        <pt x="498" y="-213" on="0"/>
        <pt x="590" y="-61" on="1"/>
        <pt x="686" y="96" on="0"/>
        <pt x="686" y="319" on="1"/>
        <pt x="686" y="1069" on="1"/>
        <pt x="686" y="1291" on="0"/>
        <pt x="590" y="1448" on="1"/>
        <pt x="498" y="1600" on="0"/>
        <pt x="357" y="1629" on="1"/>
        <pt x="357" y="1777" on="1"/>
        <pt x="476" y="1768" on="0"/>
        <pt x="681" y="1640" on="0"/>
        <pt x="756" y="1532" on="1"/>
        <pt x="916" y="1303" on="0"/>
        <pt x="916" y="960" on="1"/>
        <pt x="916" y="429" on="1"/>
        <pt x="916" y="96" on="0"/>
        <pt x="752" y="-135" on="1"/>
        <pt x="594" y="-357" on="0"/>
        <pt x="357" y="-388" on="1"/>
      </contour>
    </TTGlyph>
    <TTGlyph name="percent" xMin="164" yMin="-59" xMax="1739" yMax="1311">
      <contour>
        <pt x="1269" y="1311" on="1"/>
        <pt x="1446" y="1311" on="1"/>
        <pt x="640" y="-59" on="1"/>
        <pt x="462" y="-59" on="1"/>
      </contour>
      <contour>
        <pt x="313" y="615" on="1"/>
        <pt x="252" y="615" on="0"/>
        <pt x="208" y="662" on="1"/>
        <pt x="164" y="707" on="0"/>
        <pt x="164" y="774" on="1"/>
        <pt x="164" y="1079" on="1"/>
        <pt x="164" y="1145" on="0"/>
        <pt x="207" y="1192" on="1"/>
        <pt x="250" y="1238" on="0"/>
        <pt x="312" y="1238" on="1"/>
        <pt x="674" y="1237" on="1"/>
        <pt x="736" y="1237" on="0"/>
        <pt x="779" y="1190" on="1"/>
        <pt x="823" y="1143" on="0"/>
        <pt x="823" y="1078" on="1"/>
        <pt x="823" y="773" on="1"/>
        <pt x="823" y="707" on="0"/>
        <pt x="780" y="660" on="1"/>
        <pt x="737" y="614" on="0"/>
        <pt x="675" y="614" on="1"/>
      </contour>
      <contour>
        <pt x="612" y="723" on="1"/>
        <pt x="612" y="1129" on="1"/>
        <pt x="376" y="1129" on="1"/>
        <pt x="376" y="723" on="1"/>
      </contour>
      <contour>
        <pt x="1080" y="464" on="1"/>
        <pt x="1080" y="530" on="0"/>
        <pt x="1123" y="576" on="1"/>
        <pt x="1166" y="623" on="0"/>
        <pt x="1228" y="623" on="1"/>
        <pt x="1590" y="622" on="1"/>
        <pt x="1652" y="622" on="0"/>
        <pt x="1695" y="576" on="1"/>
        <pt x="1739" y="528" on="0"/>
        <pt x="1739" y="463" on="1"/>
        <pt x="1739" y="158" on="1"/>
        <pt x="1739" y="92" on="0"/>
        <pt x="1696" y="46" on="1"/>
        <pt x="1653" y="-1" on="0"/>
        <pt x="1591" y="-1" on="1"/>
        <pt x="1229" y="0" on="1"/>
        <pt x="1168" y="0" on="0"/>
        <pt x="1124" y="46" on="1"/>
        <pt x="1080" y="92" on="0"/>
        <pt x="1080" y="159" on="1"/>
      </contour>
      <contour>
        <pt x="1528" y="108" on="1"/>
        <pt x="1528" y="514" on="1"/>
        <pt x="1292" y="514" on="1"/>
        <pt x="1292" y="108" on="1"/>
      </contour>
    </TTGlyph>
    <TTGlyph name="period" xMin="259" yMin="-12" xMax="596" yMax="325">
      <contour>
        <pt x="259" y="156" on="1"/>
        <pt x="259" y="226" on="0"/>
        <pt x="308" y="275" on="1"/>
        <pt x="358" y="325" on="0"/>
        <pt x="427" y="325" on="1"/>
        <pt x="496" y="325" on="0"/>
        <pt x="596" y="225" on="0"/>
        <pt x="596" y="156" on="1"/>
        <pt x="596" y="87" on="0"/>
        <pt x="546" y="37" on="1"/>
        <pt x="497" y="-12" on="0"/>
        <pt x="357" y="-12" on="0"/>
        <pt x="259" y="86" on="0"/>
      </contour>
    </TTGlyph>
    <TTGlyph name="periodcentered" xMin="259" yMin="547" xMax="596" yMax="884">
      <component glyphName="period" x="0" y="559" flags="0x1204"/>
    </TTGlyph>
</ttFont>
